<?xml version="1.0" encoding="UTF-8" standalone="no"?>
<!DOCTYPE svg PUBLIC "-//W3C//DTD SVG 1.1//EN" "http://www.w3.org/Graphics/SVG/1.1/DTD/svg11.dtd">
<svg xmlns="http://www.w3.org/2000/svg" version="1.1" viewBox="0.00 0.00 1024.00 1024.00">
<g fill="#e5c762">
<path d="
  M 487.63 275.07
  Q 487.63 275.06 485.58 271.54
  C 481.90 265.21 480.34 257.58 480.56 250.25
  A 0.38 0.38 0.0 0 1 481.13 249.93
  Q 488.86 254.47 494.22 261.88
  C 498.97 268.45 502.83 280.30 506.58 287.19
  Q 507.28 288.48 507.87 289.24
  A 0.28 0.28 0.0 0 0 508.38 289.06
  Q 507.90 277.78 507.36 272.43
  C 506.94 268.29 506.02 265.88 503.40 262.25
  Q 499.43 256.76 498.98 255.75
  Q 491.97 240.00 499.59 225.31
  Q 503.08 218.58 506.15 213.48
  A 0.75 0.75 0.0 0 1 507.37 213.39
  Q 512.37 219.47 516.10 225.39
  C 522.09 234.89 523.43 246.34 518.36 256.35
  Q 516.79 259.46 513.79 263.74
  C 511.96 266.34 511.85 268.52 512.00 271.52
  Q 512.90 289.31 513.11 303.00
  Q 513.28 313.83 511.54 323.73
  A 0.41 0.41 0.0 0 0 512.30 324.01
  C 516.09 317.63 516.89 310.00 517.69 302.41
  A 4.63 4.55 -25.4 0 1 518.45 300.33
  C 523.36 292.94 526.07 288.66 530.27 283.52
  C 535.75 276.82 535.24 268.32 536.31 261.28
  C 540.13 236.23 561.08 229.88 581.66 223.26
  A 0.65 0.65 0.0 0 1 582.51 223.88
  Q 582.42 235.88 580.85 245.81
  C 578.12 263.02 568.14 275.78 550.56 279.83
  Q 546.14 280.85 539.17 281.89
  Q 536.54 282.29 535.06 284.04
  C 530.04 289.99 525.27 296.40 522.76 304.24
  Q 522.51 305.03 518.58 318.32
  Q 517.50 321.96 513.74 327.72
  A 0.60 0.59 32.0 0 0 513.94 328.56
  L 514.18 328.70
  A 0.21 0.21 0.0 0 0 514.45 328.65
  Q 516.80 325.90 519.73 322.60
  C 523.43 318.45 525.19 314.37 528.68 309.43
  C 535.53 299.75 545.29 295.55 556.64 293.69
  A 0.62 0.61 89.4 0 1 557.35 294.39
  Q 556.05 303.49 551.80 311.54
  C 546.70 321.19 538.35 323.92 527.86 326.35
  C 522.75 327.53 519.61 333.90 517.98 338.28
  A 1.97 1.95 8.8 0 1 516.23 339.55
  L 502.32 340.19
  A 0.80 0.80 0.0 0 1 501.57 339.03
  Q 510.51 321.17 507.13 301.52
  Q 505.98 294.81 501.21 288.44
  A 10.46 10.43 -10.8 0 0 495.56 284.61
  L 491.36 283.47
  A 1.17 1.17 0.0 0 0 490.23 285.43
  Q 494.62 289.80 492.67 296.96
  C 490.33 305.56 478.60 308.69 471.98 302.78
  Q 468.80 299.94 467.89 295.22
  C 466.36 287.21 471.60 281.13 479.54 280.44
  Q 483.27 280.11 487.65 280.71
  Q 487.85 280.74 488.10 280.64
  Q 488.43 280.52 488.46 280.50
  A 1.13 1.13 0.0 0 0 488.75 278.72
  Q 488.06 278.01 486.77 277.52
  Q 474.66 272.96 474.05 272.70
  Q 467.63 269.96 464.76 269.27
  Q 459.72 268.06 455.70 267.07
  C 444.45 264.29 437.40 256.42 433.70 245.34
  Q 430.47 235.64 428.89 224.75
  A 0.09 0.09 0.0 0 1 428.99 224.65
  Q 439.89 225.88 450.36 230.60
  C 463.53 236.55 467.52 248.05 469.40 261.32
  Q 470.09 266.13 474.36 268.39
  Q 478.70 270.69 485.42 273.91
  C 486.07 274.22 486.69 274.96 487.21 275.34
  A 0.27 0.27 0.0 0 0 487.63 275.07
  Z
  M 506.07 236.11
  A 0.57 0.56 89.1 0 1 506.66 236.69
  Q 506.55 248.04 508.25 259.28
  A 1.22 1.20 -75.8 0 0 508.72 260.08
  L 509.02 260.30
  A 0.38 0.38 0.0 0 0 509.63 259.97
  L 508.69 239.15
  A 0.38 0.37 -3.1 0 1 509.05 238.76
  L 509.32 238.75
  A 0.45 0.44 -7.6 0 1 509.78 239.10
  Q 511.85 247.83 512.32 256.63
  A 0.29 0.29 0.0 0 0 512.83 256.81
  Q 515.25 254.16 516.13 250.87
  C 518.48 242.03 516.92 233.52 511.62 226.19
  Q 511.62 226.18 507.70 220.66
  A 0.55 0.55 0.0 0 0 506.81 220.66
  Q 503.61 225.16 501.50 231.18
  Q 496.52 245.39 504.51 257.85
  A 0.45 0.44 26.5 0 0 505.33 257.58
  Q 504.54 247.33 505.54 236.37
  A 0.28 0.27 1.1 0 1 505.81 236.12
  L 506.07 236.11
  Z
  M 548.20 272.15
  Q 547.96 272.22 547.74 272.48
  Q 547.50 272.77 547.79 273.03
  Q 547.39 274.12 546.63 274.87
  A 0.52 0.52 0.0 0 0 547.07 275.76
  C 563.81 273.42 573.02 262.53 576.11 246.53
  Q 577.56 239.00 577.98 229.86
  A 0.39 0.39 0.0 0 0 577.51 229.46
  Q 565.30 232.21 555.46 238.37
  Q 547.55 243.32 542.76 253.55
  C 540.93 257.45 540.06 264.32 539.67 268.92
  Q 539.63 269.42 540.12 269.43
  Q 540.33 269.43 540.48 269.24
  Q 551.16 256.40 553.27 254.02
  Q 556.35 250.56 565.11 242.16
  A 0.23 0.23 0.0 0 1 565.43 242.17
  L 565.63 242.37
  A 0.40 0.40 0.0 0 1 565.63 242.93
  C 555.17 253.63 548.55 262.94 539.59 275.89
  A 0.44 0.44 0.0 0 0 540.21 276.50
  Q 542.77 274.59 544.54 272.28
  Q 555.22 258.33 566.33 245.98
  A 0.33 0.33 0.0 0 1 566.91 246.23
  Q 566.82 247.22 566.02 248.29
  Q 557.03 260.19 548.20 272.15
  Z
  M 445.12 244.03
  Q 446.64 245.14 447.76 246.30
  Q 458.60 257.53 464.25 263.62
  A 0.38 0.38 0.0 0 0 464.91 263.33
  Q 464.83 262.25 464.22 261.52
  C 459.04 255.38 453.99 247.36 447.10 241.61
  A 1.70 1.65 75.6 0 0 446.66 241.34
  L 443.76 240.14
  A 0.43 0.43 0.0 0 1 443.53 239.57
  L 443.65 239.27
  A 0.52 0.52 0.0 0 1 444.35 239.00
  C 452.64 242.80 458.89 250.90 464.24 258.21
  A 0.24 0.24 0.0 0 0 464.67 258.04
  Q 463.66 246.58 455.45 238.52
  C 450.55 233.70 441.93 231.29 435.38 230.37
  A 0.44 0.44 0.0 0 0 434.88 230.85
  C 436.54 246.16 441.58 260.99 459.13 263.15
  A 0.36 0.36 0.0 0 0 459.44 262.55
  Q 451.40 253.88 444.74 244.41
  A 0.27 0.27 0.0 0 1 445.12 244.03
  Z
  M 498.66 280.24
  C 495.62 272.15 492.19 263.59 485.80 258.03
  A 0.43 0.43 0.0 0 0 485.09 258.34
  C 484.97 262.30 488.08 267.21 491.47 273.57
  Q 493.82 277.97 498.06 280.71
  A 0.40 0.40 0.0 0 0 498.66 280.24
  Z
  M 489.09 292.87
  A 8.55 8.55 0.0 0 0 480.54 284.32
  A 8.55 8.55 0.0 0 0 471.99 292.87
  A 8.55 8.55 0.0 0 0 480.54 301.42
  A 8.55 8.55 0.0 0 0 489.09 292.87
  Z
  M 542.30 305.05
  A 0.35 0.35 0.0 0 1 542.26 305.53
  Q 536.53 310.42 531.86 316.37
  A 3.84 3.52 -86.7 0 1 531.13 317.08
  C 528.14 319.26 525.76 320.69 524.60 323.12
  A 0.35 0.35 0.0 0 0 525.14 323.55
  L 543.02 309.10
  A 0.64 0.62 23.3 0 1 543.39 308.96
  Q 543.55 308.95 543.67 308.97
  A 0.39 0.39 0.0 0 1 543.91 309.56
  Q 540.36 314.89 533.76 319.50
  Q 533.32 319.81 533.05 320.39
  A 0.69 0.68 5.1 0 0 533.85 321.34
  C 544.27 318.57 550.02 309.55 551.50 299.37
  A 0.45 0.45 0.0 0 0 550.96 298.87
  C 542.37 300.75 532.26 306.80 529.26 315.41
  A 0.27 0.26 89.2 0 0 529.60 315.75
  Q 530.02 315.59 533.79 311.55
  Q 536.61 308.52 541.89 304.81
  A 0.18 0.17 -36.5 0 1 542.13 304.84
  L 542.30 305.05
  Z
  M 512.45 330.61
  Q 509.41 331.45 508.77 334.55
  A 1.07 1.06 -79.9 0 0 509.66 335.83
  C 513.24 336.35 513.55 334.99 514.41 331.97
  Q 514.58 331.41 514.31 331.05
  Q 514.04 330.70 513.46 330.63
  L 512.45 330.61
  Z"
/>
<path d="
  M 550.88 404.37
  Q 551.10 403.37 550.76 402.54
  C 549.41 388.79 541.21 373.84 527.82 368.62
  C 505.00 359.72 481.93 373.51 476.79 397.04
  Q 475.30 403.86 476.26 413.96
  C 478.19 434.44 491.81 450.67 505.59 464.66
  C 517.68 476.92 531.85 488.81 542.96 498.54
  Q 547.93 502.90 558.48 515.00
  Q 565.00 522.47 570.75 532.74
  C 580.87 550.82 584.38 569.93 581.05 590.48
  L 578.50 593.81
  A 0.62 0.62 0.0 0 1 577.39 593.50
  L 576.86 588.22
  Q 579.13 572.23 575.61 557.06
  C 567.51 522.10 537.10 498.18 511.67 475.96
  C 499.56 465.39 487.78 453.10 479.87 438.87
  C 472.97 426.44 470.58 414.66 471.90 400.86
  C 472.79 391.61 476.14 383.71 482.19 376.46
  C 489.55 367.65 499.79 361.91 511.25 361.78
  Q 518.05 361.70 519.73 361.96
  C 537.83 364.83 551.10 378.05 554.31 396.05
  Q 559.14 423.10 543.73 446.05
  Q 536.03 457.54 522.22 471.46
  A 0.52 0.52 0.0 0 0 522.26 472.22
  L 534.89 482.74
  A 1.50 1.49 44.5 0 0 536.81 482.73
  Q 552.00 469.84 562.47 454.05
  C 565.85 448.97 568.49 445.42 570.41 440.18
  C 576.78 422.82 577.66 404.08 571.01 386.23
  C 564.11 367.74 546.36 351.31 527.12 347.77
  C 505.66 343.83 485.44 348.23 470.07 364.62
  Q 451.23 384.69 452.19 413.07
  Q 453.16 442.12 471.30 464.19
  C 482.79 478.17 496.82 491.23 510.14 502.88
  C 518.72 510.39 528.63 520.01 533.64 525.36
  C 542.11 534.41 549.88 546.22 552.91 558.05
  Q 554.75 565.25 554.88 575.23
  C 555.11 592.05 547.00 606.22 534.27 616.79
  L 528.64 615.45
  Q 533.26 611.56 535.07 609.82
  C 544.32 600.92 549.72 589.50 550.11 576.42
  C 550.56 561.58 545.12 548.09 536.35 536.22
  Q 533.12 531.86 524.96 523.34
  Q 521.55 519.79 510.69 508.90
  C 503.82 502.02 498.28 497.51 489.83 490.02
  Q 473.28 475.34 459.74 455.78
  Q 455.60 449.81 448.13 444.88
  C 441.68 440.62 434.86 440.62 427.24 441.75
  C 417.96 443.13 416.02 449.83 412.97 457.99
  Q 406.02 476.56 387.35 483.10
  C 379.58 485.82 370.26 486.54 362.17 490.58
  A 0.50 0.49 -14.9 0 1 361.46 490.17
  Q 360.67 479.01 362.96 467.75
  C 366.61 449.82 380.67 437.57 399.00 437.30
  C 406.79 437.19 415.17 438.01 423.53 437.46
  Q 427.87 437.17 435.58 437.07
  A 0.35 0.35 0.0 0 0 435.80 436.46
  C 428.66 430.35 420.56 426.59 410.99 424.97
  Q 385.43 420.65 362.77 434.00
  C 357.68 437.00 352.02 441.12 349.53 446.54
  C 348.01 449.85 346.63 455.64 345.16 458.93
  Q 337.15 476.78 316.71 480.96
  C 311.68 481.99 303.32 482.09 296.51 483.16
  Q 294.52 483.48 290.06 484.29
  A 0.65 0.64 -1.7 0 1 289.30 483.58
  Q 290.62 472.25 293.96 462.27
  C 299.49 445.73 313.20 432.92 331.25 433.68
  Q 339.19 434.02 345.49 434.46
  C 349.80 434.76 353.52 433.52 357.79 430.84
  C 365.83 425.81 373.61 421.99 382.60 419.59
  Q 388.79 417.94 397.46 418.70
  Q 409.44 419.75 419.86 423.01
  C 429.27 425.95 437.62 431.39 444.58 437.87
  A 0.76 0.76 0.0 0 0 445.85 437.41
  Q 446.52 432.03 441.66 429.40
  Q 430.95 423.59 426.06 420.44
  Q 422.62 418.23 416.30 412.42
  Q 416.04 412.18 414.66 411.33
  A 0.37 0.36 -80.5 0 0 414.12 411.72
  Q 414.49 413.51 414.23 414.57
  A 1.04 1.03 15.1 0 1 412.93 415.31
  Q 398.71 411.19 387.43 403.84
  C 379.83 398.89 375.14 392.16 371.26 383.74
  A 0.92 0.91 80.3 0 0 370.52 383.21
  Q 367.73 382.88 366.75 382.73
  C 356.38 381.15 347.77 372.64 344.59 362.87
  Q 342.07 355.14 340.68 347.36
  A 0.61 0.61 0.0 0 1 341.38 346.65
  C 357.59 349.28 371.38 355.14 373.38 373.73
  C 373.97 379.18 375.19 383.62 378.45 388.33
  C 385.86 399.05 396.28 404.95 408.48 409.81
  Q 410.60 410.66 412.70 410.68
  A 0.28 0.28 0.0 0 0 412.93 410.24
  Q 403.78 397.20 403.60 382.89
  A 1.64 1.63 8.6 0 0 402.46 381.35
  Q 394.79 378.91 394.07 372.17
  C 393.53 367.06 394.31 362.51 398.26 359.31
  C 401.97 356.32 406.74 356.31 411.37 356.82
  A 1.13 1.12 -73.6 0 0 412.49 356.20
  Q 413.08 355.00 413.13 353.28
  A 0.91 0.91 0.0 0 0 412.70 352.47
  Q 407.17 349.02 401.00 347.26
  C 387.67 343.46 378.18 341.18 368.42 335.07
  Q 368.09 334.86 362.55 331.41
  A 1.37 1.36 51.0 0 0 361.35 331.28
  C 348.93 335.71 336.27 338.39 323.87 333.44
  C 316.00 330.30 309.50 324.12 303.66 316.14
  Q 298.46 309.05 292.73 301.97
  A 0.52 0.52 0.0 0 1 293.00 301.14
  C 305.51 297.64 315.40 294.22 327.23 295.24
  Q 345.00 296.79 355.40 310.60
  C 360.29 317.08 361.28 324.64 367.96 329.49
  Q 376.09 335.39 386.22 337.79
  A 0.40 0.40 0.0 0 0 386.68 337.27
  L 384.58 331.30
  A 2.17 2.17 0.0 0 0 382.95 329.89
  Q 374.62 328.24 373.57 320.58
  C 372.80 315.03 376.34 309.99 381.75 309.25
  Q 392.05 307.83 394.93 316.48
  C 396.78 322.03 394.90 326.88 389.50 329.39
  A 1.08 1.08 0.0 0 0 388.97 330.82
  Q 391.95 337.31 398.77 339.77
  Q 416.19 346.06 427.74 350.45
  A 0.23 0.23 0.0 0 0 428.02 350.12
  Q 423.68 342.97 412.70 324.07
  Q 406.16 312.79 397.30 304.78
  Q 394.51 302.25 390.47 301.56
  C 379.03 299.60 369.11 297.79 361.16 289.10
  Q 355.93 283.39 352.38 272.69
  Q 349.22 263.19 346.61 252.92
  A 0.50 0.50 0.0 0 1 347.16 252.30
  Q 356.69 253.44 363.55 254.75
  Q 387.18 259.25 394.41 281.62
  Q 396.16 287.06 397.38 296.69
  C 397.57 298.15 399.26 300.52 400.59 301.76
  Q 410.78 311.30 418.34 322.52
  A 0.38 0.38 0.0 0 0 419.04 322.29
  L 418.38 307.69
  A 5.77 5.73 22.8 0 0 416.92 304.14
  C 414.37 301.30 412.61 299.63 410.93 296.97
  C 403.42 285.09 404.39 269.85 410.04 257.26
  A 0.25 0.25 0.0 0 1 410.42 257.17
  Q 417.09 262.65 423.12 270.33
  Q 432.50 282.29 428.16 297.75
  A 2.56 2.06 72.6 0 1 428.01 298.13
  L 424.07 305.74
  A 7.59 7.47 -28.1 0 0 423.29 308.23
  Q 421.26 324.09 430.16 338.04
  Q 438.68 351.38 450.86 362.94
  A 0.68 0.68 0.0 0 0 452.00 362.49
  Q 452.33 357.64 452.45 351.51
  Q 452.52 347.70 452.24 346.83
  C 450.83 342.50 447.29 339.20 445.29 335.13
  C 438.28 320.91 441.60 306.93 447.56 292.75
  C 448.45 290.63 449.20 288.20 449.93 285.53
  A 0.48 0.48 0.0 0 1 450.76 285.35
  C 458.41 294.61 466.56 302.52 470.12 313.84
  Q 471.50 318.22 471.14 325.27
  C 470.62 335.54 465.67 340.36 459.22 347.68
  C 455.74 351.63 456.91 363.24 457.48 368.30
  A 5.08 5.03 56.9 0 1 456.84 371.40
  L 450.31 382.70
  A 0.64 0.63 -45.3 0 1 449.21 382.71
  C 442.58 371.49 435.31 363.24 422.47 359.02
  Q 419.04 357.89 415.70 358.10
  A 0.68 0.68 0.0 0 0 415.27 359.26
  Q 420.09 364.03 419.07 371.48
  Q 417.95 379.56 409.48 381.53
  A 1.13 1.13 0.0 0 0 408.60 382.75
  C 410.75 404.38 426.92 417.25 445.49 426.00
  Q 446.46 426.46 447.74 428.12
  A 2.79 2.76 -72.6 0 1 448.21 429.03
  Q 450.05 435.03 451.81 440.66
  Q 452.17 441.81 453.18 443.20
  A 0.44 0.44 0.0 0 0 453.96 442.80
  Q 452.90 439.62 451.10 433.18
  Q 445.02 411.44 450.67 389.94
  Q 451.67 386.12 456.59 376.09
  C 459.48 370.19 464.28 364.57 468.91 359.95
  C 478.26 350.62 491.13 344.00 504.47 342.77
  C 516.16 341.70 527.48 342.49 538.46 346.85
  C 553.86 352.95 566.22 366.15 573.43 381.32
  C 582.47 400.36 581.72 423.08 573.62 442.20
  A 0.43 0.43 0.0 0 0 574.26 442.72
  Q 575.44 441.90 576.26 440.22
  C 578.00 436.64 578.46 431.28 581.59 427.41
  Q 583.00 425.67 586.75 423.56
  Q 590.85 421.25 597.27 417.04
  C 609.66 408.93 617.90 396.94 618.69 382.22
  A 0.80 0.79 13.3 0 0 618.21 381.45
  Q 617.05 380.96 614.98 379.66
  C 607.64 375.02 608.54 364.78 614.48 359.37
  A 0.57 0.57 0.0 0 0 614.20 358.39
  C 598.89 355.66 583.88 371.52 578.51 384.37
  A 0.48 0.48 0.0 0 1 577.60 384.31
  L 576.11 378.70
  A 2.39 2.38 53.7 0 1 576.39 376.86
  Q 577.51 375.05 578.46 373.98
  C 585.75 365.80 591.44 359.83 600.39 355.91
  C 607.31 352.89 611.68 351.68 615.10 347.92
  A 0.47 0.47 0.0 0 0 614.66 347.15
  C 613.03 347.49 611.91 348.47 610.50 349.06
  Q 602.27 352.52 596.57 354.04
  Q 595.35 354.36 594.00 354.35
  A 0.86 0.86 0.0 0 1 593.22 353.16
  L 600.53 335.61
  A 0.25 0.24 24.0 0 0 600.40 335.29
  L 600.10 335.16
  A 0.38 0.38 0.0 0 0 599.62 335.35
  C 594.33 347.71 587.27 355.69 576.80 369.52
  A 0.45 0.45 0.0 0 1 576.00 369.21
  C 576.41 364.79 577.71 362.03 580.71 358.20
  Q 586.27 351.11 591.76 342.28
  C 594.61 337.71 597.31 332.75 598.24 327.26
  Q 599.55 319.55 598.68 311.51
  C 598.39 308.77 597.93 307.78 595.96 305.75
  Q 585.95 295.38 588.95 280.19
  C 591.19 268.80 598.40 262.88 607.41 253.53
  A 0.94 0.94 0.0 0 1 608.93 253.76
  C 615.13 266.12 617.69 282.14 611.61 294.88
  Q 608.35 301.71 604.09 307.16
  A 3.61 3.58 64.5 0 0 603.31 309.40
  L 603.31 324.23
  A 0.29 0.29 0.0 0 0 603.84 324.38
  Q 607.19 318.91 609.31 315.86
  C 613.08 310.44 619.57 304.91 623.18 300.68
  C 625.55 297.90 626.35 296.15 626.77 292.44
  C 629.05 272.31 640.90 258.78 660.50 254.99
  Q 669.81 253.19 677.95 252.74
  A 0.47 0.47 0.0 0 1 678.43 253.33
  Q 674.25 268.77 672.75 273.50
  Q 666.34 293.73 646.45 299.17
  Q 643.81 299.89 635.11 300.93
  C 630.06 301.53 627.50 302.55 624.04 305.80
  Q 615.67 313.64 610.23 324.49
  Q 603.75 337.42 597.26 349.28
  Q 596.83 350.07 596.69 350.76
  A 0.45 0.45 0.0 0 0 597.31 351.25
  Q 609.97 345.56 625.03 340.10
  Q 632.45 337.41 635.50 330.53
  A 0.73 0.73 0.0 0 0 635.22 329.61
  Q 634.65 329.26 633.90 328.89
  C 629.48 326.71 627.72 322.16 628.60 317.51
  C 630.30 308.56 643.81 305.26 648.97 313.48
  Q 650.96 316.64 650.35 321.14
  C 649.65 326.35 645.98 329.44 640.75 329.51
  A 1.07 1.06 -79.1 0 0 639.78 330.17
  L 636.88 337.11
  A 0.67 0.67 0.0 0 0 637.67 338.02
  C 647.84 335.49 658.67 330.22 663.74 320.76
  C 665.86 316.81 667.54 313.42 669.95 310.23
  C 680.09 296.81 695.14 293.14 711.39 296.15
  Q 717.34 297.25 730.12 300.47
  Q 731.42 300.79 732.05 301.15
  A 0.58 0.58 0.0 0 1 732.20 302.03
  C 726.80 308.24 722.03 315.91 716.13 322.29
  C 705.62 333.66 692.40 338.19 676.69 335.04
  Q 670.10 333.71 663.35 331.37
  A 0.60 0.60 0.0 0 1 663.20 330.31
  C 664.63 329.31 665.88 328.43 666.72 328.01
  Q 685.54 318.65 705.88 312.01
  A 0.18 0.17 -11.8 0 1 706.11 312.16
  L 706.17 312.70
  A 0.03 0.02 -31.7 0 1 706.16 312.72
  Q 694.69 318.11 683.16 323.20
  Q 676.74 326.03 672.54 328.70
  A 0.56 0.56 0.0 0 0 672.69 329.71
  Q 682.48 332.44 692.02 331.31
  C 707.77 329.46 715.76 316.29 723.92 304.60
  A 0.79 0.79 0.0 0 0 723.46 303.38
  C 715.01 301.28 706.53 298.92 697.77 299.48
  C 685.24 300.28 674.25 307.83 669.97 319.70
  A 0.56 0.56 0.0 0 0 670.39 320.44
  Q 670.81 320.52 671.44 320.20
  Q 682.77 314.48 695.06 310.56
  Q 699.90 309.02 705.23 308.31
  A 0.49 0.48 -9.6 0 1 705.77 308.69
  L 705.77 308.71
  A 0.55 0.54 -13.5 0 1 705.37 309.36
  C 702.39 310.08 699.89 310.68 697.50 311.61
  Q 681.99 317.67 667.66 325.67
  Q 665.22 327.02 663.35 329.31
  Q 661.60 331.44 659.97 332.46
  C 649.87 338.76 641.48 341.87 629.45 345.83
  C 624.77 347.37 621.35 348.88 615.34 351.39
  A 1.40 1.39 -18.8 0 0 614.53 353.03
  L 615.48 356.60
  A 1.32 1.32 0.0 0 0 617.12 357.53
  C 626.46 354.87 634.78 359.08 635.18 369.11
  Q 635.47 376.43 628.33 380.50
  C 627.41 381.02 625.57 381.63 624.44 382.25
  A 1.02 0.99 -11.0 0 0 623.91 383.02
  C 622.76 392.34 620.52 400.74 615.41 408.69
  A 11.15 11.10 88.2 0 1 612.71 411.58
  C 610.03 413.58 607.17 416.08 603.79 418.31
  Q 599.11 421.40 585.97 429.44
  Q 582.80 431.38 582.20 435.05
  Q 582.13 435.51 582.59 435.57
  Q 582.93 435.62 583.34 435.31
  Q 598.20 424.11 614.71 420.69
  Q 619.21 419.75 628.85 418.59
  C 645.65 416.57 659.82 424.37 673.55 432.70
  Q 677.59 435.14 682.63 434.61
  C 697.22 433.05 708.55 431.71 720.62 441.15
  C 733.01 450.85 737.75 467.10 740.42 482.34
  A 0.81 0.81 0.0 0 1 739.48 483.28
  C 728.00 481.18 716.03 482.63 704.90 478.47
  Q 689.40 472.68 682.35 457.47
  Q 681.53 455.70 678.28 446.23
  C 677.10 442.80 674.54 439.91 671.30 437.51
  C 656.69 426.65 637.55 422.52 619.58 424.22
  Q 611.77 424.96 604.69 427.94
  C 598.69 430.47 591.74 434.17 586.18 438.71
  Q 582.69 441.57 573.04 448.79
  Q 571.59 449.87 569.22 452.72
  C 565.06 457.70 561.55 463.14 557.38 467.90
  Q 550.01 476.33 546.20 479.96
  Q 539.68 486.16 536.65 489.12
  A 0.69 0.68 -46.9 0 1 535.73 489.16
  C 528.21 482.83 522.46 478.15 517.14 472.00
  A 1.37 1.36 -42.9 0 1 517.21 470.14
  C 536.02 451.23 552.59 432.72 550.88 404.37
  Z
  M 631.79 289.55
  Q 641.45 280.01 655.80 269.57
  Q 657.47 268.36 658.31 268.36
  A 0.33 0.33 0.0 0 1 658.54 268.92
  C 656.97 270.46 655.88 271.01 654.05 272.56
  Q 641.72 283.06 630.49 295.67
  A 0.36 0.36 0.0 0 0 630.74 296.27
  L 630.82 296.28
  A 1.74 1.74 0.0 0 0 632.02 295.87
  Q 643.17 286.40 653.97 276.17
  C 655.95 274.29 658.16 273.01 660.16 271.29
  A 0.14 0.14 0.0 0 1 660.35 271.30
  L 660.56 271.50
  A 0.37 0.37 0.0 0 1 660.56 272.02
  L 637.63 294.94
  A 0.58 0.58 0.0 0 0 637.99 295.93
  Q 640.64 296.17 643.16 295.62
  Q 660.42 291.84 667.35 275.85
  C 669.63 270.58 670.62 262.75 672.04 258.27
  A 0.40 0.40 0.0 0 0 671.62 257.75
  Q 665.37 258.34 659.15 259.70
  Q 638.63 264.18 632.49 284.54
  Q 631.54 287.70 631.38 289.36
  A 0.24 0.24 0.0 0 0 631.79 289.55
  Z
  M 374.71 276.07
  Q 374.66 275.57 374.17 275.63
  L 366.64 268.58
  A 0.28 0.27 42.6 0 1 366.62 268.21
  L 366.78 268.01
  A 0.43 0.42 38.7 0 1 367.37 267.95
  Q 380.54 278.40 391.68 289.31
  A 0.27 0.27 0.0 0 0 392.13 289.07
  Q 390.04 278.28 383.35 270.12
  C 376.10 261.28 364.56 258.80 353.66 257.94
  A 0.30 0.30 0.0 0 0 353.34 258.29
  C 355.78 272.18 359.58 286.64 373.22 292.80
  Q 379.57 295.67 385.97 296.22
  A 0.37 0.37 0.0 0 0 386.29 295.61
  Q 376.08 283.12 364.83 272.72
  A 0.33 0.33 0.0 0 1 365.18 272.17
  Q 366.94 272.92 369.12 274.88
  Q 379.92 284.61 390.72 295.53
  Q 391.32 296.14 392.25 296.35
  A 0.36 0.36 0.0 0 0 392.61 295.78
  Q 384.14 285.06 374.71 276.07
  Z
  M 600.93 281.97
  Q 600.74 282.43 600.82 283.04
  Q 599.87 293.43 600.58 303.68
  A 0.50 0.50 0.0 0 0 601.20 304.13
  L 601.45 304.06
  A 0.29 0.28 -5.6 0 0 601.67 303.80
  L 602.83 279.14
  A 0.76 0.54 -61.6 0 0 602.81 278.97
  L 602.43 277.55
  A 1.45 1.43 53.3 0 1 602.58 276.46
  L 603.30 275.21
  A 0.35 0.35 0.0 0 1 603.95 275.37
  L 604.91 296.50
  A 0.26 0.26 0.0 0 0 605.35 296.68
  C 608.73 293.47 610.38 287.60 610.78 283.28
  Q 611.90 271.19 607.00 260.56
  A 0.56 0.56 0.0 0 0 606.07 260.42
  C 602.08 264.80 598.80 267.98 596.51 272.00
  Q 590.92 281.80 593.55 294.19
  Q 594.10 296.81 595.88 298.32
  A 0.72 0.72 0.0 0 0 597.07 297.75
  Q 596.89 289.21 600.11 280.47
  A 0.54 0.53 -39.8 0 1 601.14 280.56
  Q 601.24 281.10 600.93 281.97
  Z
  M 415.97 279.42
  Q 416.88 289.00 419.08 300.25
  Q 419.18 300.74 419.63 301.26
  A 0.40 0.40 0.0 0 0 420.33 301.02
  Q 420.91 290.26 418.18 280.63
  A 0.23 0.23 0.0 0 1 418.61 280.45
  C 421.37 285.35 421.98 289.30 423.47 294.88
  A 0.56 0.56 0.0 0 0 424.52 294.97
  C 427.51 288.56 424.65 279.47 420.75 274.16
  Q 416.99 269.04 412.42 265.40
  A 0.59 0.59 0.0 0 0 411.49 265.69
  Q 408.47 275.92 410.21 285.25
  C 410.71 287.96 413.11 295.01 415.64 296.47
  A 0.39 0.39 0.0 0 0 416.22 296.09
  C 415.65 290.57 414.75 284.95 415.50 279.41
  A 0.24 0.24 0.0 0 1 415.97 279.42
  Z
  M 457.89 323.30
  Q 457.99 322.97 457.90 322.53
  L 457.70 315.88
  A 0.73 0.70 -2.0 0 1 458.40 315.16
  L 458.43 315.16
  A 0.58 0.57 -5.2 0 1 459.01 315.64
  Q 460.70 326.25 460.59 337.13
  A 0.52 0.52 0.0 0 0 461.47 337.51
  C 467.50 331.88 467.84 321.78 465.78 314.23
  C 463.83 307.08 457.63 299.38 452.23 293.94
  A 0.38 0.38 0.0 0 0 451.61 294.04
  Q 448.74 299.87 446.99 307.17
  Q 443.40 322.22 450.41 335.78
  A 0.28 0.25 14.9 0 0 450.47 335.87
  L 451.79 337.55
  A 0.64 0.64 0.0 0 0 452.93 337.16
  L 452.93 312.04
  A 0.41 0.41 0.0 0 1 453.34 311.63
  L 453.73 311.63
  A 0.49 0.49 0.0 0 1 454.22 312.09
  Q 455.15 326.85 455.08 343.25
  Q 455.08 344.57 455.68 345.00
  A 0.72 0.72 0.0 0 0 456.80 344.59
  Q 457.34 342.51 457.54 338.47
  Q 457.90 330.88 457.89 323.30
  Z
  M 360.51 328.43
  Q 359.07 326.69 357.31 325.69
  Q 338.41 314.95 317.77 308.76
  A 0.38 0.37 32.9 0 1 317.63 308.12
  Q 317.99 307.79 318.76 307.93
  C 330.19 309.87 341.03 314.67 352.62 319.91
  Q 353.19 320.16 354.45 320.39
  A 0.70 0.70 0.0 0 0 355.22 319.43
  C 348.48 302.99 331.00 296.84 314.50 300.29
  Q 308.15 301.62 301.55 303.97
  A 0.42 0.42 0.0 0 0 301.33 304.58
  C 306.98 314.09 312.36 322.13 322.00 327.86
  C 330.65 333.00 342.77 332.47 352.38 329.52
  A 0.38 0.38 0.0 0 0 352.48 328.85
  Q 349.91 327.15 347.30 325.94
  Q 331.40 318.59 318.40 313.28
  A 0.44 0.43 -65.0 0 1 318.18 312.67
  L 318.19 312.65
  A 0.68 0.67 22.5 0 1 318.97 312.33
  Q 336.78 317.75 349.54 323.73
  Q 355.51 326.53 360.29 328.72
  A 0.19 0.19 0.0 0 0 360.51 328.43
  Z
  M 646.4032 318.4366
  A 6.94 6.44 -5.9 0 0 638.8380 312.7441
  A 6.94 6.44 -5.9 0 0 632.5968 319.8634
  A 6.94 6.44 -5.9 0 0 640.1620 325.5559
  A 6.94 6.44 -5.9 0 0 646.4032 318.4366
  Z
  M 377.8831 317.9356
  A 6.77 6.35 -168.2 0 0 383.2115 325.5358
  A 6.77 6.35 -168.2 0 0 391.1369 320.7044
  A 6.77 6.35 -168.2 0 0 385.8085 313.1042
  A 6.77 6.35 -168.2 0 0 377.8831 317.9356
  Z
  M 416.71 350.41
  L 416.05 350.37
  Q 414.95 350.15 414.92 350.48
  Q 414.86 351.22 415.58 351.49
  Q 423.89 354.64 424.37 354.81
  C 431.93 357.54 437.53 361.59 442.94 367.07
  Q 448.39 372.58 450.26 375.55
  A 0.74 0.74 0.0 0 0 451.60 375.35
  L 452.49 372.06
  A 3.37 3.37 0.0 0 0 451.47 368.65
  Q 438.38 357.04 429.91 343.83
  Q 428.27 341.27 423.45 333.03
  A 0.18 0.18 0.0 0 0 423.12 333.11
  Q 423.03 334.68 423.88 336.43
  Q 428.73 346.40 430.05 349.92
  A 1.92 1.92 0.0 0 1 428.85 352.41
  Q 427.82 352.75 425.74 352.29
  Q 421.23 351.30 416.71 350.41
  Z
  M 368.64 378.36
  Q 367.51 375.10 365.25 371.99
  Q 360.21 365.08 357.97 362.27
  Q 357.65 361.88 357.61 361.47
  A 0.49 0.49 0.0 0 1 358.36 361.01
  Q 360.24 362.23 361.72 364.03
  Q 365.54 368.70 367.85 371.85
  A 0.56 0.56 0.0 0 0 368.86 371.52
  C 368.91 367.24 366.13 363.49 363.11 360.00
  C 359.24 355.54 352.48 353.23 346.65 351.85
  A 0.32 0.32 0.0 0 0 346.26 352.22
  C 348.06 361.76 351.99 374.39 362.57 377.33
  A 0.49 0.49 0.0 0 0 363.09 376.56
  Q 358.80 370.95 355.67 364.53
  A 0.41 0.40 12.6 0 1 356.35 364.10
  L 368.11 378.65
  A 0.31 0.31 0.0 0 0 368.64 378.36
  Z
  M 411.2362 361.6840
  A 8.54 8.31 -56.8 0 0 399.6065 364.2797
  A 8.54 8.31 -56.8 0 0 401.8838 375.9760
  A 8.54 8.31 -56.8 0 0 413.5135 373.3803
  A 8.54 8.31 -56.8 0 0 411.2362 361.6840
  Z
  M 630.61 368.90
  A 8.33 8.33 0.0 0 0 622.28 360.57
  A 8.33 8.33 0.0 0 0 613.95 368.90
  A 8.33 8.33 0.0 0 0 622.28 377.23
  A 8.33 8.33 0.0 0 0 630.61 368.90
  Z
  M 338.94 439.35
  A 0.47 0.47 0.0 0 0 338.74 438.51
  Q 331.59 437.39 324.27 438.48
  C 305.78 441.23 296.03 460.66 295.04 477.58
  A 0.41 0.40 -87.9 0 0 295.43 478.01
  C 306.63 478.15 319.29 477.66 328.28 472.14
  Q 341.72 463.87 344.00 446.33
  A 0.40 0.40 0.0 0 0 343.41 445.93
  C 337.58 449.15 331.28 452.88 325.33 457.64
  Q 319.06 462.67 310.95 468.88
  A 0.43 0.42 40.4 0 1 310.48 468.91
  L 310.22 468.76
  A 0.44 0.43 37.8 0 1 310.13 468.07
  Q 325.38 452.72 344.19 442.03
  A 2.40 2.11 -68.7 0 0 344.46 441.85
  L 347.09 439.72
  A 0.22 0.22 0.0 0 0 347.06 439.36
  L 346.84 439.23
  A 0.89 0.89 0.0 0 0 345.96 439.23
  Q 337.96 443.66 331.30 447.56
  Q 320.01 454.16 306.94 466.79
  A 0.15 0.14 37.8 0 1 306.76 466.81
  L 306.46 466.63
  A 0.37 0.36 -57.2 0 1 306.35 466.09
  C 312.72 457.60 319.99 451.77 329.41 445.66
  Q 336.93 440.79 338.94 439.35
  Z
  M 683.91 446.17
  Q 688.40 470.69 711.84 475.92
  C 718.59 477.43 725.39 477.17 733.85 477.48
  A 0.49 0.49 0.0 0 0 734.35 476.91
  Q 732.95 468.65 730.20 461.47
  C 725.93 450.32 715.97 439.76 703.70 438.35
  C 700.13 437.94 691.41 437.20 688.99 438.79
  A 0.37 0.36 42.5 0 0 689.02 439.41
  C 700.88 445.92 711.75 453.56 720.74 464.23
  A 0.61 0.61 0.0 0 1 720.72 465.03
  L 720.70 465.05
  A 0.52 0.52 0.0 0 1 719.95 465.07
  Q 710.46 455.89 698.43 447.97
  C 693.29 444.58 686.93 441.94 682.01 439.23
  Q 681.68 439.05 680.39 438.91
  A 0.23 0.23 0.0 0 0 680.23 439.33
  C 688.19 444.91 698.05 450.04 705.87 456.39
  C 711.48 460.95 715.50 463.95 717.40 466.76
  A 0.38 0.38 0.0 0 1 716.85 467.28
  C 706.72 459.51 696.13 451.88 684.22 445.93
  A 0.22 0.22 0.0 0 0 683.91 446.17
  Z
  M 413.10 443.34
  Q 412.48 443.26 411.98 443.44
  C 397.88 448.72 388.09 457.87 375.07 470.53
  A 0.28 0.28 0.0 0 1 374.69 470.53
  L 374.50 470.34
  A 0.68 0.68 0.0 0 1 374.44 469.45
  C 382.77 458.63 392.65 450.97 403.64 443.21
  A 0.52 0.52 0.0 0 0 403.40 442.27
  Q 386.81 440.32 376.35 450.98
  C 368.04 459.46 365.77 471.12 365.94 482.59
  A 0.35 0.34 -2.4 0 0 366.31 482.92
  Q 375.39 482.29 384.41 479.63
  C 397.80 475.68 408.56 464.42 409.95 449.99
  A 0.59 0.58 77.4 0 0 409.07 449.43
  Q 392.48 459.34 378.39 473.68
  A 0.28 0.26 43.5 0 1 378.01 473.68
  L 377.79 473.46
  A 0.60 0.60 0.0 0 1 377.77 472.64
  Q 393.18 454.97 413.15 443.61
  A 0.15 0.14 -55.6 0 0 413.10 443.34
  Z"
/>
<path d="
  M 523.32 272.68
  A 0.67 0.66 -32.4 0 1 524.42 272.92
  C 525.62 276.25 525.71 284.43 524.01 288.17
  Q 521.83 292.98 518.57 296.85
  A 0.77 0.77 0.0 0 1 517.21 296.40
  C 516.58 287.45 516.77 279.22 523.32 272.68
  Z
  M 521.5190 280.6668
  A 2.69 0.62 -81.9 0 0 520.5262 283.2426
  A 2.69 0.62 -81.9 0 0 520.7610 285.9932
  A 2.69 0.62 -81.9 0 0 521.7538 283.4174
  A 2.69 0.62 -81.9 0 0 521.5190 280.6668
  Z"
/>
<path d="
  M 569.67 300.89
  A 0.31 0.30 42.5 0 1 570.16 300.87
  Q 581.70 314.91 580.02 333.00
  C 579.48 338.75 576.02 344.62 573.71 347.96
  A 3.05 3.04 57.4 0 0 573.22 350.20
  Q 574.90 359.83 574.07 369.91
  A 1.77 1.77 0.0 0 1 572.12 371.52
  L 572.05 371.51
  A 2.04 2.04 0.0 0 1 570.22 369.54
  Q 569.85 356.97 569.60 355.24
  C 568.97 350.77 566.20 348.49 562.38 344.15
  C 555.95 336.85 555.65 325.61 559.94 317.20
  Q 563.93 309.36 569.67 300.89
  Z
  M 569.70 325.22
  L 569.62 324.46
  L 569.62 323.71
  L 569.68 322.79
  Q 569.73 321.75 569.97 321.23
  A 0.43 0.43 0.0 0 1 570.79 321.37
  L 572.73 337.85
  A 0.80 0.80 0.0 0 0 573.76 338.52
  Q 574.56 338.27 574.97 337.20
  C 578.52 327.81 575.71 315.94 570.31 307.90
  A 0.56 0.56 0.0 0 0 569.38 307.90
  Q 567.23 311.10 565.26 314.54
  C 561.76 320.67 560.77 328.31 561.95 334.98
  Q 562.51 338.13 564.45 339.89
  A 0.64 0.63 -68.7 0 0 565.51 339.42
  Q 565.57 331.04 566.92 323.79
  A 0.57 0.56 50.4 0 1 568.04 323.90
  L 568.04 344.06
  A 1.91 1.91 0.0 0 0 568.60 345.41
  L 569.45 346.26
  A 0.35 0.34 21.9 0 0 570.04 346.01
  L 569.70 325.22
  Z"
/>
<path d="
  M 686.63 346.49
  A 0.46 0.46 0.0 0 1 687.14 347.02
  C 684.42 363.34 679.94 378.48 661.52 382.22
  Q 658.70 382.79 656.58 383.25
  A 1.57 1.55 8.3 0 0 655.56 384.00
  C 650.19 393.47 644.73 400.98 634.90 406.12
  Q 628.90 409.26 622.79 411.79
  Q 619.21 413.27 616.24 413.68
  Q 614.95 413.85 614.35 412.65
  A 1.11 1.11 0.0 0 1 614.96 411.13
  C 629.67 405.67 645.00 397.00 651.60 381.95
  C 653.89 376.73 653.48 370.98 655.59 365.59
  C 660.44 353.21 674.28 347.85 686.63 346.49
  Z
  M 658.50 371.87
  A 0.23 0.23 0.0 0 0 658.90 372.01
  L 668.77 361.04
  A 0.55 0.55 0.0 0 1 669.50 360.97
  L 669.76 361.16
  A 0.43 0.42 37.7 0 1 669.84 361.75
  L 658.15 377.43
  A 0.57 0.57 0.0 0 0 658.50 378.33
  L 658.83 378.39
  A 1.16 1.14 -66.3 0 0 659.96 377.94
  Q 665.33 370.78 671.81 364.74
  A 0.34 0.34 0.0 0 1 672.38 365.07
  Q 672.08 366.29 671.39 367.15
  Q 667.50 371.98 663.38 376.65
  A 0.48 0.48 0.0 0 0 663.62 377.43
  Q 663.95 377.51 664.63 377.31
  Q 671.28 375.34 675.83 368.74
  Q 680.83 361.50 681.76 351.78
  A 0.32 0.32 0.0 0 0 681.36 351.44
  C 670.79 354.09 661.66 358.05 658.66 369.67
  Q 658.42 370.61 658.50 371.87
  Z"
/>
<path d="
  M 361.22 399.51
  Q 361.23 399.51 366.41 402.14
  C 372.38 405.17 379.17 406.87 386.48 409.29
  C 390.58 410.64 397.19 413.03 398.21 414.70
  A 0.75 0.75 0.0 0 1 397.78 415.81
  Q 396.03 416.32 393.77 415.74
  C 387.42 414.10 379.07 410.28 372.70 409.47
  Q 364.57 408.43 356.46 410.11
  A 0.60 0.59 81.0 0 0 355.99 410.76
  Q 356.02 411.02 356.46 414.22
  Q 357.70 423.21 349.43 425.90
  Q 347.90 426.40 343.65 426.02
  C 334.47 425.21 331.50 413.25 338.16 407.50
  C 342.56 403.70 348.99 404.37 353.62 407.49
  A 0.64 0.62 -34.6 0 0 354.10 407.57
  L 363.11 405.42
  A 0.07 0.06 56.2 0 0 363.13 405.30
  Q 356.42 400.30 348.02 399.92
  C 337.74 399.45 324.51 399.30 317.61 408.00
  C 314.21 412.28 311.41 416.56 307.68 419.58
  C 291.02 433.12 272.28 426.88 254.30 421.03
  A 0.79 0.79 0.0 0 1 253.91 419.81
  C 259.62 412.02 265.70 403.27 273.30 397.97
  Q 286.92 388.48 304.75 392.03
  Q 307.33 392.54 315.29 395.34
  C 316.93 395.92 319.29 396.15 320.52 396.12
  Q 334.79 395.74 349.30 395.89
  A 0.59 0.58 64.1 0 0 349.66 394.84
  Q 341.50 388.43 331.71 382.43
  Q 329.36 380.99 324.75 381.50
  C 317.64 382.28 311.51 383.55 306.36 383.13
  Q 293.46 382.09 283.94 371.75
  Q 274.82 361.84 270.36 355.54
  A 0.41 0.41 0.0 0 1 270.55 354.91
  C 288.77 348.17 306.78 343.90 321.60 359.57
  C 325.15 363.33 328.58 370.87 332.02 375.08
  Q 335.73 379.64 343.49 384.60
  Q 361.42 396.08 381.57 401.65
  Q 383.06 402.06 384.00 403.02
  A 0.60 0.60 0.0 0 1 383.76 404.01
  Q 380.08 405.22 375.97 404.02
  Q 368.03 401.68 361.56 398.79
  A 0.03 0.02 -58.3 0 0 361.54 398.80
  L 361.13 399.34
  A 0.11 0.11 0.0 0 0 361.22 399.51
  Z
  M 294.83 360.61
  C 303.27 361.52 312.86 365.64 321.07 368.89
  A 0.58 0.58 0.0 0 0 321.82 368.14
  Q 321.15 366.39 319.85 364.68
  Q 308.49 349.76 289.49 353.83
  Q 282.61 355.30 278.11 356.67
  A 0.43 0.43 0.0 0 0 277.88 357.33
  C 283.30 365.12 288.44 372.10 297.06 376.68
  C 303.59 380.14 312.36 379.70 319.19 377.97
  A 0.34 0.34 0.0 0 0 319.28 377.35
  Q 306.51 369.71 292.82 365.55
  A 0.38 0.38 0.0 0 1 292.67 364.91
  L 292.69 364.89
  A 1.07 1.06 29.9 0 1 293.68 364.63
  C 305.55 367.47 316.15 372.02 326.84 376.85
  A 0.39 0.39 0.0 0 0 327.32 376.27
  Q 326.24 374.74 324.28 373.70
  Q 311.14 366.76 294.65 361.50
  A 0.46 0.45 56.7 0 1 294.83 360.61
  Z
  M 277.50 409.86
  Q 279.97 408.25 284.18 406.90
  Q 297.04 402.78 308.98 399.28
  A 0.87 0.87 0.0 0 0 309.21 397.72
  Q 307.92 396.89 306.07 396.47
  Q 285.06 391.66 270.15 406.37
  Q 264.89 411.55 261.75 417.40
  A 0.80 0.80 0.0 0 0 262.17 418.53
  Q 268.93 421.09 276.29 422.58
  Q 300.01 427.38 312.17 407.38
  A 0.56 0.56 0.0 0 0 311.55 406.54
  L 280.20 414.83
  A 0.37 0.36 -20.6 0 1 279.79 414.65
  L 279.76 414.60
  A 0.36 0.35 -24.6 0 1 279.93 414.16
  Q 282.61 412.76 285.07 411.84
  Q 301.68 405.67 316.19 402.23
  A 0.47 0.47 0.0 0 0 316.21 401.33
  Q 315.17 401.04 314.02 401.25
  Q 295.36 404.68 277.85 410.58
  A 0.40 0.40 0.0 0 1 277.50 409.86
  Z
  M 352.3618 414.5799
  A 6.66 6.41 -6.9 0 0 344.9799 409.0164
  A 6.66 6.41 -6.9 0 0 339.1382 416.1801
  A 6.66 6.41 -6.9 0 0 346.5201 421.7436
  A 6.66 6.41 -6.9 0 0 352.3618 414.5799
  Z"
/>
<path d="
  M 733.02 349.10
  Q 733.41 349.29 733.95 349.19
  Q 744.49 350.14 754.14 353.71
  A 1.12 1.12 0.0 0 1 754.63 355.45
  Q 749.04 362.60 742.72 370.20
  C 735.40 379.02 725.31 383.81 713.50 382.72
  Q 705.96 382.03 700.95 381.37
  C 696.46 380.78 694.80 382.31 690.64 385.06
  Q 682.76 390.26 677.42 394.58
  A 0.54 0.54 0.0 0 0 677.76 395.54
  Q 689.27 395.74 703.49 396.50
  C 705.79 396.62 709.14 395.90 711.57 394.94
  C 715.35 393.45 719.93 391.83 723.93 391.41
  Q 744.71 389.26 758.84 405.31
  Q 761.85 408.73 766.95 415.50
  Q 769.57 418.98 770.47 420.83
  A 0.55 0.55 0.0 0 1 770.14 421.59
  Q 755.76 426.26 746.53 427.57
  C 727.56 430.28 716.48 420.89 706.55 406.47
  Q 703.88 402.59 699.27 401.50
  Q 686.94 398.55 674.56 400.24
  Q 671.01 400.73 665.71 403.87
  A 0.83 0.82 -52.7 0 0 665.91 405.38
  L 673.60 407.46
  A 2.11 2.08 30.8 0 0 675.59 406.97
  Q 677.16 405.50 680.65 404.94
  C 692.18 403.07 698.75 416.71 689.83 424.17
  C 686.95 426.59 682.53 426.64 679.21 425.78
  C 673.07 424.17 670.66 416.75 672.60 411.10
  A 0.62 0.62 0.0 0 0 672.14 410.29
  Q 664.92 408.78 658.00 408.94
  C 648.06 409.18 639.29 415.29 629.52 415.48
  A 0.66 0.66 0.0 0 1 629.09 414.30
  Q 630.83 412.89 633.53 411.76
  Q 640.28 408.95 653.99 404.78
  Q 656.76 403.94 664.45 399.58
  A 0.55 0.54 -30.5 0 0 664.65 398.83
  L 664.52 398.59
  A 0.15 0.14 61.2 0 0 664.34 398.53
  Q 654.70 403.15 644.15 404.73
  A 1.27 1.27 0.0 0 1 642.70 403.60
  L 642.70 403.55
  A 1.51 1.50 80.3 0 1 643.83 401.94
  Q 668.55 395.88 689.11 380.86
  Q 692.81 378.15 694.82 376.04
  C 698.02 372.68 700.56 366.84 702.87 363.39
  Q 711.83 350.01 727.91 349.08
  L 729.71 349.09
  L 733.02 349.10
  Z
  M 727.03 353.22
  Q 711.68 354.56 705.34 368.78
  A 0.32 0.32 0.0 0 0 705.75 369.20
  Q 717.43 364.23 729.78 360.70
  A 0.30 0.29 70.9 0 1 730.14 360.88
  L 730.23 361.15
  A 0.67 0.67 0.0 0 1 729.80 362.01
  Q 716.66 366.10 703.63 373.40
  Q 701.70 374.48 700.00 376.04
  A 0.39 0.38 30.0 0 0 700.18 376.70
  Q 700.34 376.73 700.62 376.62
  Q 718.82 369.00 723.43 367.17
  Q 727.18 365.68 730.39 364.91
  A 0.29 0.29 0.0 0 1 730.74 365.27
  L 730.68 365.52
  A 1.15 1.14 88.0 0 1 729.98 366.28
  Q 720.95 369.76 713.43 373.68
  Q 710.38 375.27 707.91 377.46
  A 0.37 0.37 0.0 0 0 708.07 378.10
  Q 727.16 382.38 739.49 367.47
  Q 743.81 362.23 747.59 356.69
  A 0.48 0.48 0.0 0 0 747.28 355.95
  L 731.71 353.13
  L 731.04 353.10
  L 727.96 353.12
  Q 727.39 353.05 727.03 353.22
  Z
  M 742.96 414.42
  L 713.54 406.46
  A 0.41 0.41 0.0 0 0 713.02 406.83
  Q 713.00 407.23 713.27 407.71
  C 718.89 417.69 729.05 424.32 740.75 423.92
  C 748.38 423.67 755.48 421.45 762.39 419.09
  A 0.62 0.61 -25.2 0 0 762.72 418.19
  C 753.61 403.23 742.28 394.03 723.73 395.88
  Q 719.65 396.28 716.52 397.75
  A 0.90 0.90 0.0 0 0 716.60 399.41
  L 723.90 402.05
  A 0.32 0.30 78.6 0 1 724.05 402.16
  L 724.70 402.96
  A 0.50 0.50 0.0 0 1 724.22 403.76
  L 709.07 400.95
  A 0.43 0.42 84.2 0 0 708.60 401.53
  L 708.66 401.66
  A 2.09 2.08 -6.7 0 0 709.98 402.70
  Q 717.30 404.64 724.31 406.43
  Q 727.81 407.32 739.80 411.93
  Q 740.73 412.29 743.22 413.82
  A 0.33 0.33 0.0 0 1 742.96 414.42
  Z
  M 678.3509 410.4828
  A 6.57 6.46 -133.1 0 0 678.1232 419.6939
  A 6.57 6.46 -133.1 0 0 687.3291 420.0772
  A 6.57 6.46 -133.1 0 0 687.5568 410.8661
  A 6.57 6.46 -133.1 0 0 678.3509 410.4828
  Z"
/>
<path d="
  M 666.43 490.16
  Q 665.96 490.18 663.68 489.18
  Q 662.02 488.45 660.92 488.19
  Q 649.22 485.39 642.49 483.49
  C 625.06 478.60 617.41 466.62 611.47 450.56
  C 609.60 445.51 607.04 443.07 601.27 441.95
  Q 595.00 440.74 588.22 441.15
  A 1.14 1.14 0.0 0 1 587.06 439.67
  C 587.90 437.01 592.41 436.79 595.01 436.88
  C 601.80 437.10 608.34 437.64 615.01 437.45
  C 620.88 437.28 627.92 436.92 633.36 437.88
  C 651.25 441.01 662.34 453.56 665.44 471.22
  Q 667.14 480.93 667.12 489.45
  A 0.71 0.71 0.0 0 1 666.43 490.16
  Z
  M 623.64 442.05
  A 0.36 0.36 0.0 0 0 623.40 442.65
  Q 624.54 443.86 625.59 444.57
  C 636.19 451.75 645.34 459.23 653.00 469.84
  A 0.15 0.15 0.0 0 1 652.95 470.05
  L 652.25 470.50
  A 0.05 0.03 -13.3 0 1 652.22 470.49
  Q 646.70 464.60 643.08 461.18
  Q 637.96 456.34 628.40 449.86
  Q 622.79 446.07 615.86 443.60
  A 0.31 0.30 -15.2 0 0 615.56 444.12
  Q 617.64 445.84 620.52 447.14
  A 4.93 4.88 -14.3 0 1 621.44 447.68
  Q 633.18 456.24 639.33 461.67
  Q 643.05 464.96 649.03 471.92
  A 0.44 0.44 0.0 0 1 648.77 472.64
  L 648.67 472.66
  A 1.36 1.35 62.8 0 1 647.47 472.27
  C 638.69 463.23 629.24 455.00 618.15 449.57
  A 0.60 0.60 0.0 0 0 617.30 450.23
  Q 620.75 468.08 635.10 476.13
  C 642.75 480.42 652.22 481.72 661.60 482.85
  A 0.53 0.53 0.0 0 0 662.19 482.33
  C 662.33 474.62 660.79 466.05 657.08 459.44
  Q 646.58 440.74 623.64 442.05
  Z"
/>
<path d="
  M 500.80 625.54
  A 0.14 0.14 0.0 0 1 500.80 625.73
  L 500.75 625.78
  A 8.45 1.35 46.6 0 1 493.96 620.57
  L 489.21 615.54
  A 8.45 1.35 46.6 0 1 484.38 608.47
  L 484.43 608.43
  A 0.14 0.14 0.0 0 1 484.63 608.43
  L 500.80 625.54
  Z"
/>
</g>
<g fill="#d9b24c" fill-opacity="0.996">
<path d="
  M 729.71 349.09
  L 727.91 349.08
  L 729.71 349.09
  Z"
/>
<path d="
  M 733.95 349.19
  Q 733.41 349.29 733.02 349.10
  Q 733.53 349.06 733.95 349.19
  Z"
/>
<path d="
  M 550.88 404.37
  L 550.76 402.54
  Q 551.10 403.37 550.88 404.37
  Z"
/>
<path d="
  M 650.64 742.67
  C 644.46 736.88 641.82 727.63 640.63 719.79
  A 0.35 0.34 16.2 0 1 641.20 719.48
  C 642.98 721.02 644.62 722.79 645.64 725.30
  C 648.95 733.42 652.40 739.79 659.65 744.35
  Q 664.34 747.30 672.07 749.15
  Q 684.26 752.08 688.06 753.17
  Q 704.06 757.78 716.10 768.89
  Q 718.11 770.74 718.71 772.44
  A 0.98 0.98 0.0 0 1 717.23 773.57
  Q 716.38 772.98 708.32 767.72
  Q 694.57 758.74 678.25 756.73
  A 0.25 0.24 76.6 0 0 678.02 757.11
  Q 682.27 763.51 688.59 774.35
  C 690.89 778.31 693.30 781.16 696.88 785.61
  A 1.05 1.05 0.0 0 1 696.25 787.30
  C 691.57 788.16 682.86 774.68 679.46 769.64
  Q 673.23 760.41 665.04 755.49
  Q 660.36 752.68 650.42 748.18
  C 648.86 747.47 647.16 746.18 645.71 745.54
  A 0.47 0.47 0.0 0 0 645.07 746.12
  L 650.18 760.61
  A 1.06 1.06 0.0 0 1 648.58 761.84
  Q 646.41 760.38 644.80 757.41
  C 640.91 750.19 640.03 744.75 637.12 733.60
  C 635.01 725.53 630.71 718.49 624.33 712.65
  Q 610.63 700.11 593.44 694.65
  A 0.31 0.30 89.4 0 0 593.06 695.04
  Q 596.41 704.61 596.86 709.19
  C 598.08 721.51 597.87 730.14 606.30 738.44
  C 609.24 741.32 616.24 746.49 619.56 750.87
  Q 624.13 756.89 626.34 764.15
  C 628.94 772.70 630.45 779.83 635.54 784.73
  C 642.59 791.52 647.93 795.26 649.98 803.24
  Q 650.36 804.72 650.29 805.17
  A 1.33 1.33 0.0 0 1 647.82 805.60
  C 644.73 800.04 642.29 796.78 636.89 792.58
  Q 631.34 788.26 627.38 784.57
  A 0.91 0.91 0.0 0 0 625.90 784.93
  C 623.23 792.35 624.29 801.52 627.02 808.80
  A 3.15 3.09 35.5 0 1 627.21 809.87
  L 627.21 811.10
  A 0.86 0.85 -69.6 0 1 625.80 811.75
  C 620.41 807.14 618.92 797.45 619.34 790.73
  Q 619.93 781.15 620.04 778.03
  C 620.42 766.44 615.90 758.36 606.90 751.84
  C 600.31 747.05 593.95 741.79 590.81 734.20
  Q 589.01 729.81 587.69 726.81
  A 0.25 0.25 0.0 0 0 587.22 726.83
  Q 584.98 733.03 581.64 741.09
  C 577.03 752.20 585.80 758.66 588.70 768.51
  Q 590.43 774.40 589.87 780.95
  Q 589.72 782.66 589.20 783.15
  A 1.18 1.17 65.8 0 1 587.23 782.40
  Q 586.54 775.14 584.46 769.91
  C 582.86 765.89 579.77 762.10 577.15 758.42
  C 575.63 756.29 574.78 754.20 573.94 751.79
  A 0.49 0.49 0.0 0 0 573.17 751.57
  Q 570.75 753.54 568.91 756.17
  Q 558.44 771.20 568.41 786.65
  C 574.13 795.50 578.81 801.47 578.13 811.77
  C 578.01 813.61 578.14 815.36 577.30 816.82
  A 0.92 0.92 0.0 0 1 575.61 816.55
  Q 574.59 811.66 573.94 808.58
  C 572.48 801.59 567.89 796.64 562.05 788.85
  Q 558.77 784.49 556.72 777.19
  Q 553.28 764.92 558.70 753.46
  Q 560.09 750.53 566.23 741.48
  Q 569.38 736.83 572.46 729.96
  Q 578.93 715.47 573.82 700.93
  C 569.54 688.76 558.68 680.53 548.26 674.58
  Q 546.97 673.85 518.23 657.84
  Q 511.33 654.00 498.61 646.16
  Q 485.22 637.90 480.11 633.27
  C 468.33 622.59 459.69 611.89 454.46 597.25
  C 442.64 564.11 456.54 530.87 480.10 507.09
  Q 486.82 500.30 491.77 494.89
  A 0.64 0.64 0.0 0 1 492.67 494.85
  Q 495.31 497.21 504.82 506.18
  Q 507.88 509.07 509.84 511.92
  A 2.08 2.08 0.0 0 1 509.65 514.51
  Q 499.66 525.38 491.02 538.97
  C 479.66 556.83 478.20 578.49 488.48 596.55
  Q 493.74 605.79 504.98 616.22
  C 515.10 625.60 525.82 634.05 538.61 642.92
  Q 561.22 658.60 581.83 671.41
  C 596.36 680.45 613.14 687.23 630.27 687.30
  Q 633.81 687.31 645.49 685.95
  Q 659.37 684.34 669.00 685.34
  Q 689.95 687.51 705.64 701.88
  C 712.01 707.71 717.83 714.23 724.97 718.40
  C 731.68 722.33 742.77 724.88 747.17 726.35
  Q 755.66 729.19 760.71 733.64
  Q 761.54 734.38 761.60 734.78
  A 1.13 1.13 0.0 0 1 759.98 735.95
  C 748.93 730.55 740.13 728.59 726.09 725.45
  Q 722.12 724.56 719.37 721.66
  Q 714.52 716.55 709.72 711.43
  A 0.48 0.47 46.2 0 0 709.03 711.41
  L 708.75 711.69
  A 0.59 0.59 0.0 0 0 708.77 712.53
  L 721.78 724.76
  A 0.22 0.17 11.4 0 1 721.84 724.83
  C 725.20 730.93 730.22 741.96 736.70 747.59
  Q 739.89 750.36 746.09 754.69
  A 0.84 0.84 0.0 0 1 745.67 756.21
  Q 744.16 756.33 742.60 755.65
  C 730.43 750.36 726.18 742.31 718.31 730.21
  Q 705.95 711.22 687.09 701.16
  C 677.90 696.26 665.30 695.76 655.43 696.63
  C 647.80 697.30 637.24 699.52 627.23 699.04
  A 0.19 0.19 0.0 0 0 627.10 699.37
  Q 638.01 709.16 640.55 710.99
  Q 646.12 715.00 650.14 715.55
  Q 655.99 716.34 659.80 716.94
  Q 676.14 719.51 687.24 731.49
  Q 688.74 733.12 689.09 734.86
  A 0.81 0.81 0.0 0 1 687.81 735.67
  C 680.44 730.18 673.48 725.00 664.72 723.50
  Q 657.82 722.32 650.01 722.07
  Q 645.75 721.93 642.53 719.83
  C 639.75 718.02 638.10 714.69 635.48 712.50
  Q 629.57 707.56 625.68 703.84
  Q 623.46 701.72 622.73 698.81
  A 1.06 1.06 0.0 0 1 623.75 697.49
  Q 624.59 697.49 633.52 696.56
  Q 637.02 696.20 642.97 694.58
  C 661.52 689.53 681.27 691.11 697.38 702.13
  Q 699.24 703.40 700.61 704.06
  A 0.25 0.25 0.0 0 0 700.89 703.66
  L 698.14 700.94
  A 0.09 0.03 16.8 0 1 698.11 700.92
  Q 687.58 693.73 678.28 691.66
  Q 664.62 688.63 651.51 689.88
  C 635.17 691.44 621.47 692.66 606.67 687.81
  Q 590.16 682.39 575.86 673.16
  Q 569.41 668.99 556.37 659.49
  Q 547.42 652.96 536.76 646.01
  Q 527.71 640.11 514.40 629.83
  C 494.07 614.13 475.15 594.95 476.70 567.52
  C 477.77 548.64 488.31 532.62 501.56 516.95
  C 502.73 515.56 503.81 514.09 504.42 512.88
  A 1.05 1.05 0.0 0 0 504.23 511.66
  L 493.90 501.33
  A 0.94 0.93 45.7 0 0 492.59 501.31
  Q 479.07 514.23 472.14 523.36
  C 460.75 538.35 453.86 557.75 455.18 577.15
  Q 456.98 603.76 476.29 622.96
  Q 491.66 638.23 510.67 648.81
  Q 525.49 657.05 547.20 668.79
  Q 555.09 673.06 564.42 680.31
  Q 578.10 690.95 580.51 708.48
  C 582.08 719.96 578.99 729.11 572.87 738.63
  Q 565.94 749.42 563.86 752.87
  Q 560.88 757.83 560.21 763.50
  A 0.25 0.25 0.0 0 0 560.67 763.66
  Q 561.95 761.60 562.46 759.97
  Q 563.48 756.69 569.15 749.63
  Q 571.35 746.91 574.02 747.30
  A 0.59 0.59 0.0 0 0 574.67 746.88
  Q 576.38 740.81 577.42 739.16
  Q 582.68 730.73 586.24 721.25
  A 1.64 1.64 0.0 0 1 588.67 720.45
  C 589.84 721.22 591.71 726.83 593.77 731.94
  C 596.86 739.63 603.80 744.09 612.44 751.29
  A 0.68 0.68 0.0 0 0 613.33 751.28
  L 613.35 751.27
  A 0.55 0.55 0.0 0 0 613.37 750.46
  Q 610.48 747.62 609.84 747.16
  C 605.29 743.91 600.46 740.43 598.17 735.60
  Q 594.57 728.02 594.10 723.06
  Q 592.52 706.36 587.84 691.72
  A 0.72 0.72 0.0 0 1 588.48 690.78
  C 600.08 690.06 616.13 700.47 625.06 707.12
  Q 631.51 711.94 636.88 720.76
  C 639.89 725.70 641.57 734.28 644.38 738.78
  Q 646.26 741.78 650.38 743.11
  A 0.26 0.26 0.0 0 0 650.64 742.67
  Z
  M 669.7365 752.1527
  A 2.10 0.88 -141.5 0 0 670.8322 754.1487
  A 2.10 0.88 -141.5 0 0 673.0235 754.7673
  A 2.10 0.88 -141.5 0 0 671.9278 752.7713
  A 2.10 0.88 -141.5 0 0 669.7365 752.1527
  Z
  M 624.4915 775.8820
  A 1.19 0.55 -93.3 0 0 624.0109 777.1017
  A 1.19 0.55 -93.3 0 0 624.6285 778.2580
  A 1.19 0.55 -93.3 0 0 625.1091 777.0383
  A 1.19 0.55 -93.3 0 0 624.4915 775.8820
  Z"
/>
<path d="
  M 576.86 588.22
  L 577.39 593.50
  A 0.62 0.62 0.0 0 0 578.50 593.81
  L 581.05 590.48
  C 577.80 612.29 561.99 630.04 544.40 641.88
  A 0.33 0.33 0.0 0 0 544.46 642.46
  C 549.49 644.52 553.38 645.90 559.29 646.67
  C 569.34 647.97 578.95 649.57 588.63 650.43
  Q 636.85 654.72 691.69 666.57
  Q 734.49 675.81 769.96 693.74
  Q 772.46 695.00 781.08 700.59
  A 1.16 1.14 -87.1 0 1 781.48 701.04
  L 781.90 701.91
  A 0.67 0.67 0.0 0 1 781.16 702.86
  Q 779.44 702.49 777.91 701.85
  Q 745.19 688.09 714.78 681.68
  Q 696.19 677.76 691.29 676.74
  C 677.11 673.79 662.59 672.16 646.80 669.83
  C 625.83 666.73 606.93 665.20 583.27 662.99
  Q 574.34 662.15 570.00 660.77
  Q 566.87 659.77 561.95 656.36
  Q 539.23 640.64 526.69 631.13
  Q 522.21 627.74 518.49 623.96
  A 0.78 0.77 -40.2 0 1 518.59 622.79
  L 528.64 615.45
  L 534.27 616.79
  L 525.46 623.84
  A 0.51 0.51 0.0 0 0 525.45 624.63
  Q 533.44 631.34 542.38 636.77
  A 0.99 0.97 -45.5 0 0 543.44 636.75
  Q 558.61 626.56 567.78 612.29
  Q 574.63 601.62 576.86 588.22
  Z
  M 700.76 673.18
  Q 700.21 672.69 698.89 672.37
  Q 673.98 666.49 646.53 662.24
  Q 612.26 656.92 584.54 654.25
  Q 579.61 653.77 573.40 652.59
  Q 565.61 651.10 562.12 651.15
  A 0.69 0.69 0.0 0 0 561.69 652.36
  C 566.38 656.29 572.06 657.46 578.00 658.22
  C 590.55 659.85 607.99 661.14 617.43 662.13
  Q 649.53 665.51 682.91 670.94
  Q 691.93 672.41 700.25 674.19
  A 0.59 0.58 71.8 0 0 700.76 673.18
  Z
  M 714.5532 676.6498
  A 0.72 0.72 0.0 0 0 713.9957 675.7977
  L 706.9870 674.3335
  A 0.72 0.72 0.0 0 0 706.1350 674.8911
  L 706.1268 674.9302
  A 0.72 0.72 0.0 0 0 706.6843 675.7823
  L 713.6930 677.2465
  A 0.72 0.72 0.0 0 0 714.5450 676.6889
  L 714.5532 676.6498
  Z"
/>
<path d="
  M 509.5980 631.8159
  A 4.11 0.75 -141.4 0 1 513.2779 633.7939
  A 4.11 0.75 -141.4 0 1 516.0220 636.9441
  A 4.11 0.75 -141.4 0 1 512.3421 634.9661
  A 4.11 0.75 -141.4 0 1 509.5980 631.8159
  Z"
/>
<path d="
  M 487.95 669.55
  A 0.28 0.28 0.0 0 0 488.03 669.18
  L 488.02 669.18
  A 0.15 0.14 61.5 0 0 487.83 669.12
  Q 481.33 672.54 473.60 677.11
  C 463.73 682.94 454.81 690.59 450.23 701.03
  C 445.02 712.91 447.38 728.20 454.11 739.13
  C 461.99 751.95 467.86 759.72 467.03 772.99
  C 466.35 783.83 461.36 789.32 454.84 798.32
  C 451.01 803.59 450.41 809.43 449.81 815.93
  A 1.08 1.08 0.0 0 1 447.85 816.45
  Q 446.89 815.09 446.61 813.09
  Q 445.37 804.20 449.71 796.45
  C 452.05 792.26 456.37 786.54 458.18 781.78
  C 462.21 771.22 459.10 761.69 452.33 753.19
  A 0.71 0.71 0.0 0 0 451.20 753.21
  Q 447.13 758.72 443.02 764.48
  C 438.61 770.64 437.53 775.87 436.93 782.42
  A 0.64 0.63 -80.5 0 1 436.15 782.98
  Q 435.77 782.89 435.50 782.50
  Q 434.32 780.79 434.10 777.45
  C 433.44 767.65 438.57 760.85 443.34 753.07
  C 445.95 748.82 441.63 738.42 439.82 734.59
  A 0.35 0.35 0.0 0 0 439.21 734.55
  C 435.84 739.95 432.45 743.95 427.10 747.99
  C 417.87 754.95 409.30 760.99 409.36 773.98
  Q 409.38 778.06 409.72 790.24
  C 409.91 796.94 408.52 805.55 403.81 810.83
  A 1.37 1.37 0.0 0 1 401.47 810.31
  Q 401.40 810.09 401.66 809.44
  Q 406.51 797.00 404.21 784.30
  A 0.34 0.34 0.0 0 0 403.66 784.10
  Q 398.87 788.07 391.40 793.65
  Q 386.14 797.59 382.61 804.60
  Q 382.45 804.90 382.21 805.12
  Q 381.83 805.47 381.66 805.54
  A 1.32 1.30 -13.5 0 1 379.88 804.46
  C 379.02 795.88 389.62 789.98 394.34 785.10
  Q 399.85 779.40 401.08 774.34
  C 403.59 764.03 405.01 756.37 412.10 749.08
  C 416.01 745.06 424.06 739.67 427.19 734.87
  C 432.13 727.30 433.12 720.17 433.75 710.52
  Q 434.04 706.00 437.35 695.93
  A 0.20 0.19 -89.1 0 0 437.11 695.68
  C 422.13 699.99 404.83 711.36 398.76 726.50
  C 395.32 735.07 392.73 743.57 384.49 748.35
  C 373.64 754.65 365.77 758.26 359.88 766.64
  C 354.03 774.96 349.56 782.78 341.88 787.35
  Q 340.86 787.96 340.27 787.84
  A 0.94 0.94 0.0 0 1 339.75 786.30
  Q 346.46 778.59 351.98 769.18
  C 354.52 764.85 357.38 760.76 360.09 757.30
  A 0.53 0.53 0.0 0 0 359.61 756.44
  C 344.81 758.03 332.59 763.79 320.39 772.13
  Q 319.58 772.69 318.71 772.69
  A 1.00 0.99 14.6 0 1 317.84 771.21
  Q 318.92 769.27 320.88 767.62
  Q 332.56 757.80 348.29 753.32
  C 357.58 750.67 366.69 749.27 375.68 744.65
  C 384.96 739.88 387.86 730.99 390.49 721.65
  A 0.27 0.27 0.0 0 0 390.19 721.31
  Q 384.93 722.04 377.44 723.45
  Q 364.96 725.79 355.18 733.97
  A 1.69 1.64 15.0 0 1 354.64 734.27
  L 353.21 734.78
  A 0.83 0.83 0.0 0 1 352.17 733.67
  Q 353.38 730.86 355.69 728.69
  C 363.00 721.83 371.67 718.90 381.33 716.86
  C 387.61 715.53 392.18 712.31 396.57 708.30
  Q 402.97 702.46 408.73 697.68
  A 0.40 0.40 0.0 0 0 408.49 696.97
  Q 394.37 696.22 385.50 695.99
  C 377.70 695.78 368.69 696.31 361.58 699.09
  C 346.60 704.94 334.28 716.69 325.24 730.02
  Q 319.75 738.13 316.15 742.88
  C 311.18 749.42 303.12 755.02 294.77 755.86
  A 0.81 0.78 -85.9 0 1 293.94 754.87
  C 294.20 753.72 297.51 752.31 300.24 750.93
  C 311.33 745.33 316.23 734.71 321.50 723.99
  A 0.31 0.31 0.0 0 0 321.11 723.56
  C 312.03 726.90 299.72 727.95 292.90 730.97
  Q 288.35 732.98 282.75 735.05
  A 0.85 0.85 0.0 0 1 281.74 733.78
  Q 282.84 732.10 284.81 730.80
  C 291.95 726.07 298.73 724.49 308.53 722.05
  Q 315.31 720.36 321.15 716.80
  C 326.82 713.35 332.75 706.70 338.04 701.82
  Q 357.05 684.29 382.46 684.67
  Q 390.03 684.79 405.74 685.59
  C 420.50 686.34 432.40 682.40 445.13 675.37
  Q 447.77 673.91 465.26 663.51
  Q 468.23 661.75 470.88 661.57
  A 0.83 0.83 0.0 0 1 471.46 663.04
  Q 463.55 669.36 454.47 674.83
  Q 443.22 681.59 436.26 684.60
  Q 421.93 690.78 405.01 689.85
  C 393.39 689.22 383.07 688.45 372.00 689.94
  C 362.18 691.26 349.21 696.22 342.07 703.98
  A 0.95 0.93 54.2 0 0 341.91 705.02
  L 341.92 705.04
  A 0.50 0.50 0.0 0 0 342.69 705.21
  Q 356.14 693.83 373.42 691.97
  Q 380.61 691.19 392.54 692.46
  Q 404.51 693.73 411.58 694.04
  A 1.47 1.47 0.0 0 1 412.97 695.32
  C 413.39 698.50 412.00 700.41 409.54 702.53
  C 403.27 707.90 398.80 711.40 395.39 716.61
  A 3.06 3.05 -21.7 0 0 395.01 717.49
  L 392.13 728.91
  A 0.33 0.32 -75.8 0 0 392.36 729.31
  L 392.62 729.38
  A 0.05 0.04 -62.9 0 0 392.67 729.36
  Q 394.84 725.59 396.44 722.14
  C 403.70 706.50 421.79 694.49 438.27 691.81
  Q 439.77 691.57 440.47 691.74
  A 1.32 1.32 0.0 0 1 441.42 693.44
  Q 439.08 700.65 438.50 706.98
  C 437.32 719.64 436.97 728.01 431.65 738.34
  A 0.37 0.36 -68.3 0 0 431.87 738.86
  L 432.20 738.94
  A 0.17 0.17 0.0 0 0 432.38 738.88
  L 438.25 731.52
  A 1.72 1.71 42.9 0 1 440.85 731.43
  Q 442.66 733.40 443.35 734.66
  C 447.87 742.88 450.83 749.24 457.49 754.42
  A 0.45 0.45 0.0 0 0 458.14 753.80
  Q 453.76 747.58 449.87 741.20
  C 441.10 726.80 439.81 709.05 448.70 694.41
  C 457.28 680.27 472.49 670.72 488.72 666.81
  A 0.95 0.88 -11.5 0 1 489.87 667.51
  Q 489.91 667.77 488.73 668.39
  A 0.32 0.32 0.0 0 0 488.97 668.98
  Q 491.47 668.22 493.62 668.82
  A 0.39 0.38 -51.7 0 1 493.70 669.53
  C 485.55 674.09 478.08 683.62 474.98 692.45
  C 466.30 717.19 481.64 738.61 501.33 752.33
  Q 508.80 757.54 511.73 760.29
  C 524.11 771.92 533.22 781.46 533.16 798.53
  A 0.36 0.36 0.0 0 0 533.86 798.64
  Q 534.52 796.55 534.52 794.23
  C 534.51 780.19 529.43 771.52 520.18 761.82
  Q 519.40 761.00 499.02 740.59
  Q 497.35 738.91 492.72 733.15
  C 481.00 718.57 477.78 699.72 488.94 683.84
  C 492.63 678.59 497.77 674.63 503.86 670.13
  C 507.98 667.09 511.93 668.47 515.85 671.23
  C 532.91 683.27 540.61 703.83 532.58 723.53
  Q 530.89 727.67 525.94 733.79
  Q 522.03 738.62 517.92 743.24
  A 1.90 1.89 47.2 0 0 517.83 745.64
  Q 519.25 747.52 521.20 748.61
  A 1.33 1.32 40.8 0 0 522.63 748.51
  C 533.29 740.49 543.97 726.50 545.48 712.73
  Q 547.95 690.24 531.60 674.86
  Q 529.61 672.99 521.54 667.21
  C 516.81 663.83 511.69 661.07 506.69 658.31
  C 501.18 655.27 494.72 650.63 488.54 647.31
  A 2.91 2.90 52.3 0 0 486.48 647.04
  Q 476.50 649.40 466.28 650.71
  Q 438.84 654.22 403.57 659.64
  Q 371.33 664.60 344.26 671.15
  C 341.32 671.86 338.47 672.30 335.93 673.72
  A 0.36 0.36 0.0 0 0 336.17 674.39
  Q 375.61 666.51 420.45 661.96
  Q 426.78 661.32 467.04 657.37
  Q 467.70 657.31 468.05 657.62
  A 0.84 0.73 -45.4 0 1 467.98 658.77
  Q 465.62 661.04 461.97 661.70
  Q 455.69 662.83 452.51 663.08
  Q 399.56 667.19 348.66 676.42
  Q 319.43 681.72 288.14 691.28
  C 277.55 694.52 268.91 698.32 258.20 702.68
  A 0.84 0.83 -3.4 0 1 257.08 701.69
  L 257.17 701.33
  A 3.52 3.51 -8.5 0 1 258.69 699.28
  Q 268.27 693.24 276.20 689.69
  C 298.70 679.62 321.69 672.18 347.01 666.41
  Q 379.46 659.02 412.27 654.06
  Q 437.23 650.30 464.42 646.65
  C 470.55 645.83 477.80 644.34 484.70 642.67
  C 487.90 641.89 489.68 643.25 492.86 645.18
  Q 499.75 649.34 524.19 664.05
  Q 530.28 667.71 536.66 673.84
  Q 548.18 684.88 549.93 701.00
  Q 551.65 716.82 544.55 729.61
  C 539.55 738.62 531.39 747.91 522.99 754.46
  A 1.84 1.83 48.4 0 1 520.57 754.31
  L 512.17 745.91
  A 2.13 2.13 0.0 0 1 512.10 742.97
  Q 518.67 735.79 524.29 728.40
  Q 530.64 720.05 531.04 710.84
  Q 531.25 705.76 530.52 700.00
  C 529.20 689.52 519.49 678.52 511.23 672.72
  A 1.72 1.71 -37.7 0 0 509.64 672.52
  C 504.88 674.32 500.37 678.49 496.62 682.19
  C 481.18 697.37 485.48 719.23 499.00 733.88
  Q 504.60 739.95 510.00 745.81
  Q 514.75 750.96 517.43 753.43
  Q 521.92 757.56 525.35 761.14
  C 536.72 773.05 542.49 789.43 536.62 804.85
  Q 534.68 809.93 529.59 817.11
  Q 524.23 824.66 516.54 833.32
  A 0.31 0.31 0.0 0 1 516.00 833.17
  C 515.50 830.25 516.27 827.25 518.10 824.79
  C 524.33 816.38 529.90 806.94 528.80 796.13
  C 527.99 788.18 524.26 780.75 519.10 774.64
  C 513.00 767.42 507.11 760.93 499.22 756.28
  Q 497.24 755.11 492.47 751.05
  C 484.80 744.53 478.13 737.56 473.55 728.73
  C 462.45 707.37 468.22 683.12 487.95 669.55
  Z
  M 324.36 676.28
  L 324.51 677.05
  A 0.20 0.20 0.0 0 0 324.75 677.20
  L 327.54 676.62
  A 5.01 0.45 -11.8 0 0 332.35 675.15
  L 332.30 674.88
  A 5.01 0.45 -11.8 0 0 327.30 675.46
  L 324.51 676.05
  A 0.20 0.20 0.0 0 0 324.36 676.28
  Z
  M 332.2207 715.0026
  A 0.68 0.68 0.0 0 0 332.2005 714.0411
  L 332.1717 714.0134
  A 0.68 0.68 0.0 0 0 331.2102 714.0336
  L 325.2993 720.1974
  A 0.68 0.68 0.0 0 0 325.3195 721.1589
  L 325.3483 721.1866
  A 0.68 0.68 0.0 0 0 326.3098 721.1664
  L 332.2207 715.0026
  Z
  M 424.7868 744.0581
  A 5.31 0.69 -44.2 0 0 420.4990 747.2653
  A 5.31 0.69 -44.2 0 0 417.1732 751.4619
  A 5.31 0.69 -44.2 0 0 421.4610 748.2547
  A 5.31 0.69 -44.2 0 0 424.7868 744.0581
  Z
  M 367.6957 753.2356
  A 2.70 0.83 -20.7 0 0 364.8766 753.4136
  A 2.70 0.83 -20.7 0 0 362.6443 755.1444
  A 2.70 0.83 -20.7 0 0 365.4634 754.9664
  A 2.70 0.83 -20.7 0 0 367.6957 753.2356
  Z
  M 404.8060 775.6415
  A 1.68 0.72 -83.3 0 0 403.8949 777.2260
  A 1.68 0.72 -83.3 0 0 404.4140 778.9785
  A 1.68 0.72 -83.3 0 0 405.3251 777.3940
  A 1.68 0.72 -83.3 0 0 404.8060 775.6415
  Z"
/>
<path d="
  M 535.7537 724.2268
  A 3.79 0.85 -65.3 0 1 534.9422 728.0252
  A 3.79 0.85 -65.3 0 1 532.5863 731.1132
  A 3.79 0.85 -65.3 0 1 533.3978 727.3148
  A 3.79 0.85 -65.3 0 1 535.7537 724.2268
  Z"
/>
<path d="
  M 509.88 833.41
  A 0.92 0.91 -52.8 0 1 508.29 833.63
  Q 504.92 829.13 497.94 820.31
  Q 491.73 812.45 488.07 803.13
  C 481.20 785.67 488.66 770.75 500.06 757.74
  A 0.75 0.74 43.0 0 1 501.15 757.71
  L 509.68 766.23
  A 1.10 1.09 43.0 0 1 509.74 767.71
  C 503.88 774.58 498.51 781.52 497.36 790.55
  Q 496.22 799.43 498.34 807.66
  C 499.99 814.13 503.68 819.70 506.99 824.49
  C 508.38 826.50 510.66 831.36 509.88 833.41
  Z
  M 502.32 764.51
  A 1.13 1.13 0.0 0 0 500.74 764.64
  Q 492.74 773.84 491.10 783.01
  Q 490.20 788.01 491.23 799.39
  A 0.82 0.81 87.6 0 0 492.03 800.13
  L 492.06 800.13
  A 0.58 0.58 0.0 0 0 492.65 799.50
  Q 492.25 794.84 492.70 789.98
  C 493.53 780.85 498.20 774.57 503.65 767.14
  A 1.25 1.24 -52.3 0 0 503.44 765.45
  L 502.32 764.51
  Z"
/>
</g>
<g fill="#e5c762">
<path d="
  M 524.72 353.78
  L 522.50 353.90
  Q 513.55 353.01 504.65 353.85
  C 502.05 354.09 499.18 355.11 496.26 355.36
  L 495.30 355.37
  Q 494.41 355.18 494.18 354.61
  A 0.52 0.52 0.0 0 1 494.54 353.91
  Q 507.58 350.92 521.25 352.30
  Q 523.40 352.52 524.94 353.29
  A 0.24 0.24 0.0 0 1 525.04 353.64
  Q 524.91 353.83 524.72 353.78
  Z"
/>
<path d="
  M 534.29 357.02
  A 0.29 0.29 0.0 0 1 533.94 357.24
  L 532.96 356.99
  A 3.86 1.13 13.9 0 1 529.48 354.97
  L 529.51 354.85
  A 3.86 1.13 13.9 0 1 533.53 354.68
  L 534.51 354.92
  A 0.29 0.29 0.0 0 1 534.72 355.28
  L 534.29 357.02
  Z"
/>
<path d="
  M 511.14 358.30
  L 502.23 359.14
  A 2.69 2.52 30.9 0 0 501.63 359.27
  Q 489.16 363.56 479.95 373.42
  Q 473.25 380.59 469.90 390.05
  A 0.56 0.56 0.0 0 1 468.81 389.89
  Q 468.73 388.34 469.06 387.55
  Q 473.32 377.33 479.86 371.60
  Q 487.57 364.83 491.24 362.23
  Q 492.98 361.00 500.64 357.29
  A 0.94 0.81 26.2 0 1 500.99 357.20
  L 510.19 356.78
  A 1.26 1.25 69.0 0 1 511.22 357.24
  L 511.46 357.55
  A 0.46 0.46 0.0 0 1 511.14 358.30
  Z"
/>
<path d="
  M 520.31 357.88
  L 520.35 357.81
  A 1.19 1.18 15.8 0 1 521.51 357.17
  Q 527.67 357.70 533.47 359.88
  A 7.34 7.09 71.2 0 1 534.93 360.63
  Q 542.51 365.74 546.00 369.27
  Q 547.09 370.37 550.24 373.70
  C 554.61 378.33 557.23 384.21 558.83 390.24
  A 0.53 0.53 0.0 0 1 558.22 390.90
  L 557.91 390.84
  A 0.93 0.93 0.0 0 1 557.19 390.21
  Q 551.43 372.38 536.92 363.61
  Q 530.66 359.82 520.76 358.71
  A 0.58 0.57 -73.6 0 1 520.31 357.88
  Z"
/>
<path d="
  M 488.6407 360.1970
  A 3.35 0.69 -34.2 0 1 486.2578 362.6507
  A 3.35 0.69 -34.2 0 1 483.0993 363.9630
  A 3.35 0.69 -34.2 0 1 485.4822 361.5093
  A 3.35 0.69 -34.2 0 1 488.6407 360.1970
  Z"
/>
<path d="
  M 540.4078 360.8386
  A 4.64 0.59 -145.9 0 1 544.5808 362.9514
  A 4.64 0.59 -145.9 0 1 548.0922 366.0414
  A 4.64 0.59 -145.9 0 1 543.9192 363.9286
  A 4.64 0.59 -145.9 0 1 540.4078 360.8386
  Z"
/>
<path d="
  M 468.89 380.32
  A 0.14 0.14 0.0 0 1 468.69 380.35
  L 468.65 380.31
  A 4.96 1.36 -53.4 0 1 470.51 375.52
  L 472.72 372.55
  A 4.96 1.36 -53.4 0 1 476.77 369.38
  L 476.81 369.41
  A 0.14 0.14 0.0 0 1 476.84 369.61
  L 468.89 380.32
  Z"
/>
<path d="
  M 564.03 394.49
  L 563.57 394.65
  A 0.02 0.02 0.0 0 1 563.54 394.64
  L 559.61 382.56
  A 1.82 1.19 33.2 0 0 559.47 382.24
  L 554.54 373.27
  A 0.77 0.74 38.6 0 1 554.47 372.73
  Q 554.66 371.92 555.32 372.66
  Q 559.30 377.15 560.18 382.60
  A 6.14 5.81 28.9 0 0 560.73 384.33
  Q 562.86 388.63 564.09 394.37
  A 0.11 0.10 73.8 0 1 564.03 394.49
  Z"
/>
<path d="
  M 463.18 397.04
  L 463.19 395.30
  A 6.39 0.64 -82.3 0 1 464.74 385.61
  A 6.41 0.65 -82.4 0 1 465.21 385.26
  A 6.53 0.74 -80.2 0 1 465.28 385.74
  A 6.39 0.65 -82.3 0 1 463.81 396.94
  A 6.38 0.66 -82.6 0 1 463.25 397.57
  A 5.95 0.55 -82.9 0 1 463.18 397.04
  Z"
/>
<path d="
  M 467.89 405.07
  L 467.87 410.17
  Q 467.87 410.35 467.87 410.52
  L 467.86 411.21
  L 467.87 412.57
  L 467.88 417.48
  Q 467.73 419.61 465.67 421.04
  A 1.31 1.29 75.5 0 0 465.13 421.97
  Q 464.79 425.75 465.53 427.23
  Q 468.70 433.50 470.25 437.52
  A 0.46 0.46 0.0 0 1 469.52 438.04
  Q 468.52 437.20 467.91 435.59
  C 466.22 431.13 465.95 429.39 464.40 426.63
  Q 463.60 425.21 462.30 418.71
  Q 460.99 412.10 461.11 407.11
  A 0.93 0.92 -5.9 0 1 461.84 406.22
  L 461.86 406.21
  A 0.43 0.43 0.0 0 1 462.36 406.56
  L 464.48 419.69
  A 0.31 0.31 0.0 0 0 465.05 419.80
  Q 465.45 419.14 465.41 418.01
  Q 465.12 409.70 465.79 401.47
  Q 465.93 401.03 465.89 400.51
  Q 466.05 397.79 466.89 395.65
  A 0.89 0.89 0.0 0 1 468.60 396.05
  L 467.89 405.07
  Z"
/>
<path d="
  M 500.02 470.75
  Q 494.35 465.53 493.38 464.62
  Q 477.01 449.42 469.62 428.66
  Q 469.05 427.06 469.16 425.52
  A 0.67 0.67 0.0 0 1 470.49 425.44
  Q 471.79 432.01 476.17 439.85
  Q 484.40 454.57 497.17 466.00
  Q 497.89 466.64 498.87 467.96
  Q 499.51 468.81 500.57 469.93
  A 0.47 0.46 -44.6 0 1 500.56 470.57
  L 500.38 470.75
  A 0.26 0.26 0.0 0 1 500.02 470.75
  Z"
/>
<path d="
  M 565.81 544.33
  L 565.79 544.34
  A 0.79 0.78 -21.7 0 1 564.95 543.98
  Q 552.98 524.06 540.12 511.46
  Q 532.13 503.65 519.62 493.38
  Q 507.42 483.37 489.85 467.50
  Q 480.92 459.44 474.93 449.64
  Q 472.09 444.99 470.49 440.53
  A 0.27 0.27 0.0 0 1 470.94 440.26
  L 472.35 441.83
  A 1.69 1.04 84.8 0 1 472.50 442.03
  C 478.08 451.92 484.17 459.70 492.72 467.02
  C 497.54 471.15 501.70 475.86 506.21 479.54
  C 519.78 490.58 531.66 499.55 541.82 510.06
  Q 550.12 518.64 557.58 528.90
  Q 562.27 535.34 566.15 543.63
  A 0.50 0.50 0.0 0 1 565.81 544.33
  Z"
/>
<path d="
  M 538.23 464.06
  A 0.11 0.11 0.0 0 1 538.39 464.05
  L 538.42 464.08
  A 5.26 1.40 -49.6 0 1 536.08 469.00
  L 534.45 470.92
  A 5.26 1.40 -49.6 0 1 529.97 474.01
  L 529.93 473.98
  A 0.11 0.11 0.0 0 1 529.92 473.83
  L 538.23 464.06
  Z"
/>
<path d="
  M 535.7205 477.7565
  A 0.60 0.60 0.0 0 1 534.8731 477.7994
  L 534.8434 477.7726
  A 0.60 0.60 0.0 0 1 534.8005 476.9252
  L 541.7595 469.2235
  A 0.60 0.60 0.0 0 1 542.6069 469.1806
  L 542.6366 469.2074
  A 0.60 0.60 0.0 0 1 542.6795 470.0548
  L 535.7205 477.7565
  Z"
/>
<path d="
  M 541.73 525.90
  Q 546.66 532.15 550.04 537.81
  Q 550.46 538.51 550.43 538.90
  A 0.54 0.54 0.0 0 1 549.45 539.16
  Q 544.80 532.42 540.45 526.90
  Q 536.11 521.38 530.64 515.29
  A 0.54 0.54 0.0 0 1 531.13 514.39
  Q 531.52 514.46 532.10 515.03
  Q 536.81 519.64 541.73 525.90
  Z"
/>
</g>
<g fill="#d9b24c" fill-opacity="0.996">
<path d="
  M 548.20 272.15
  Q 548.30 272.55 547.79 273.03
  Q 547.50 272.77 547.74 272.48
  Q 547.96 272.22 548.20 272.15
  Z"
/>
<path d="
  M 374.71 276.07
  Q 374.40 275.90 374.17 275.63
  Q 374.66 275.57 374.71 276.07
  Z"
/>
<path d="
  M 600.93 281.97
  Q 601.04 282.58 600.82 283.04
  Q 600.74 282.43 600.93 281.97
  Z"
/>
<path d="
  M 457.89 323.30
  Q 457.77 322.82 457.90 322.53
  Q 457.99 322.97 457.89 323.30
  Z"
/>
<path d="
  M 569.68 322.79
  L 569.62 323.71
  L 569.68 322.79
  Z"
/>
<path d="
  M 569.70 325.22
  Q 569.56 324.91 569.62 324.46
  L 569.70 325.22
  Z"
/>
<path d="
  M 513.46 330.63
  L 512.45 330.61
  L 513.46 330.63
  Z"
/>
<path d="
  M 416.71 350.41
  L 416.05 350.37
  L 416.71 350.41
  Z"
/>
<path d="
  M 727.96 353.12
  Q 727.45 353.09 727.03 353.22
  Q 727.39 353.05 727.96 353.12
  Z"
/>
<path d="
  M 731.71 353.13
  L 731.04 353.10
  L 731.71 353.13
  Z"
/>
<path d="
  M 524.72 353.78
  Q 523.92 354.11 522.50 353.90
  L 524.72 353.78
  Z"
/>
<path d="
  M 496.26 355.36
  L 495.30 355.37
  L 496.26 355.36
  Z"
/>
<path d="
  M 556.20 437.22
  L 556.17 437.21
  A 0.86 0.86 0.0 0 1 555.64 436.16
  Q 561.16 418.04 558.73 397.50
  Q 558.62 396.58 558.73 394.18
  A 0.78 0.78 0.0 0 1 560.19 393.82
  Q 561.52 396.11 561.80 399.72
  C 562.49 408.80 562.44 417.44 559.94 426.74
  Q 558.34 432.70 557.14 436.75
  A 0.73 0.72 18.3 0 1 556.20 437.22
  Z"
/>
<path d="
  M 463.19 395.30
  L 463.18 397.04
  A 6.38 0.72 -81.7 0 1 463.19 395.30
  Z"
/>
<path d="
  M 465.89 400.51
  Q 465.93 401.03 465.79 401.47
  L 465.89 400.51
  Z"
/>
<path d="
  M 467.89 405.07
  L 467.87 410.17
  L 467.89 405.07
  Z"
/>
<path d="
  M 467.86 411.21
  L 467.87 410.52
  L 467.86 411.21
  Z"
/>
<path d="
  M 467.88 417.48
  L 467.87 412.57
  L 467.88 417.48
  Z"
/>
<path d="
  M 565.5249 428.2603
  A 0.77 0.77 0.0 0 1 564.6680 428.9323
  L 564.6084 428.9250
  A 0.77 0.77 0.0 0 1 563.9365 428.0681
  L 565.4551 415.5197
  A 0.77 0.77 0.0 0 1 566.3120 414.8477
  L 566.3716 414.8550
  A 0.77 0.77 0.0 0 1 567.0435 415.7119
  L 565.5249 428.2603
  Z"
/>
<path d="
  M 553.81 544.03
  C 556.85 545.49 559.52 555.24 560.35 558.93
  A 2.27 2.26 -33.9 0 1 560.00 560.70
  L 559.90 560.83
  A 0.34 0.34 0.0 0 1 559.30 560.74
  L 553.51 544.30
  A 0.22 0.22 0.0 0 1 553.81 544.03
  Z"
/>
<path d="
  M 561.51 568.88
  A 0.09 0.09 0.0 0 1 561.60 568.78
  A 1.77 1.19 87.6 0 1 562.85 570.50
  L 563.14 577.41
  A 1.77 1.19 87.6 0 1 562.03 579.23
  A 0.09 0.09 0.0 0 1 561.94 579.14
  L 561.51 568.88
  Z"
/>
</g>
<path fill="#e5c762" d="
  M 728.52 404.72
  A 0.01 0.01 0.0 0 1 728.51 404.70
  L 728.52 404.67
  A 9.59 1.85 18.3 0 1 738.21 405.92
  L 738.55 406.03
  A 9.59 1.85 18.3 0 1 747.07 410.80
  L 747.06 410.84
  A 0.01 0.01 0.0 0 1 747.05 410.85
  L 728.52 404.72
  Z"
/>
<path fill="#d9b24c" fill-opacity="0.996" d="
  M 660.95 269.57
  A 0.45 0.45 0.0 0 1 660.50 270.02
  A 0.45 0.45 0.0 0 1 660.05 269.57
  A 0.45 0.45 0.0 0 1 660.50 269.12
  A 0.45 0.45 0.0 0 1 660.95 269.57
  Z"
/>
</svg>
