<svg viewBox="0 0 600 608" fill="none" xmlns="http://www.w3.org/2000/svg">
  <g transform="translate(0,608) scale(0.1,-0.1)">
    <path d="M2881 5897 c-72 -153 -69 -251 15 -363 43 -58 44 -60 44 -137 0 -54 5 -88 17 -110 23 -43 26 -23 15 89 -9 84 -8 91 14 129 94 161 94 244 2 387 -24 36 -47 73 -53 82 -8 13 -19 -3 -54 -77z m96 -39 c-3 -10 0 -16 7 -15 6 1 10 -4 9 -10 -2 -7 1 -13 5 -13 13 0 32 -71 32 -117 0 -52 -28 -135 -43 -126 -8 5 -7 8 1 11 10 3 10 7 0 19 -7 9 -16 50 -19 92 -5 64 -6 54 -7 -61 -1 -84 -6 -138 -12 -138 -5 0 -10 24 -10 53 0 28 -3 97 -7 152 -9 134 -25 82 -18 -59 5 -98 5 -98 -14 -75 -37 48 -65 169 -42 183 4 3 11 24 15 46 3 23 16 61 29 85 l22 43 28 -26 c17 -16 26 -34 24 -44z" fill="#d4a853"/>
    <path d="M3498 5893 c7 -3 16 -2 19 1 4 3 -2 6 -13 5 -11 0 -14 -3 -6 -6z" fill="#d4a853"/>
    <path d="M3610 5880 c-9 -5 -53 -22 -99 -39 -212 -77 -295 -177 -309 -373 -7 -93 -7 -93 -60 -161 -28 -37 -56 -77 -62 -87 -6 -11 -17 -20 -25 -20 -7 0 -19 -16 -25 -35 -15 -46 -30 -45 -30 3 0 40 -34 107 -50 97 -6 -3 -10 -1 -10 5 0 7 -14 29 -30 50 -17 22 -38 63 -46 92 -19 67 -76 152 -120 179 -19 11 -34 25 -34 30 0 5 -7 9 -15 9 -10 0 -13 -8 -10 -27 2 -16 7 -48 10 -73 8 -59 48 -126 88 -147 l32 -17 -39 -7 c-22 -3 -45 -15 -53 -25 -12 -17 -13 -17 -13 0 0 14 -5 17 -22 12 -13 -3 -31 -6 -41 -6 -10 0 -32 -13 -48 -29 -33 -34 -39 -92 -14 -140 18 -37 76 -64 116 -56 39 9 87 58 95 99 7 39 -18 96 -42 96 -13 0 -13 -4 1 -30 18 -35 17 -93 -2 -86 -7 3 -15 0 -19 -6 -4 -7 -3 -8 4 -4 13 8 16 -3 4 -20 -18 -29 -134 -22 -117 6 4 6 1 9 -7 8 -7 -2 -12 3 -10 11 2 8 -3 18 -9 22 -10 6 -10 13 -1 34 7 15 9 31 5 37 -4 8 0 9 11 5 9 -4 15 -3 12 2 -3 5 6 17 20 26 20 13 32 15 48 7 16 -7 30 -6 50 5 44 23 88 9 134 -41 88 -96 98 -290 22 -449 l-27 -59 30 6 c16 3 51 6 77 6 46 0 48 1 54 33 10 53 69 102 140 116 104 20 173 93 200 213 9 39 15 72 14 74 -2 1 -43 -17 -93 -40 -95 -45 -152 -96 -178 -159 -8 -18 -29 -48 -48 -66 -18 -19 -46 -50 -61 -69 -37 -46 -39 -13 -3 34 14 18 29 55 34 81 19 99 61 200 111 263 15 19 36 53 48 75 11 22 43 69 71 105 105 133 187 234 204 253 10 10 17 21 14 23 -2 3 -15 -7 -28 -22 -13 -15 -40 -43 -59 -63 -19 -20 -34 -39 -35 -42 0 -4 -12 -19 -27 -34 -16 -15 -28 -32 -28 -38 0 -6 -3 -7 -6 -4 -4 4 -22 -15 -40 -41 l-34 -47 0 35 c1 30 9 77 24 140 2 8 9 14 16 12 6 -1 9 2 5 8 -15 25 105 141 152 146 14 1 29 7 32 12 7 12 74 41 117 52 l31 7 -4 -51 c-2 -28 -7 -67 -10 -86 -4 -19 -5 -41 -4 -49 2 -8 -2 -24 -8 -35 -5 -12 -17 -38 -26 -58 -23 -50 -92 -128 -115 -128 -10 0 -21 -7 -24 -16 -4 -9 -9 -14 -12 -11 -3 3 -21 -1 -39 -9 -44 -18 -48 -18 -41 4 6 16 5 16 -8 0 -23 -31 -38 -20 -15 12 12 16 26 27 30 24 5 -3 6 3 2 13 -3 10 -3 15 2 11 4 -4 16 7 26 25 9 17 22 31 27 30 5 -1 18 8 28 20 l19 22 -22 -19 c-37 -31 -26 -5 18 44 23 25 38 37 35 27 -4 -11 -2 -16 5 -12 5 4 7 14 4 24 -3 10 4 27 16 40 12 12 19 24 16 27 -2 3 -14 -6 -25 -18 -34 -37 -272 -337 -272 -343 0 -3 10 0 22 6 13 7 53 18 90 25 92 18 134 39 193 99 62 63 91 133 105 257 6 51 12 110 15 131 5 38 1 43 -25 27z m-850 -340 c37 -38 76 -98 68 -105 -2 -2 -19 21 -37 51 -19 29 -37 52 -39 49 -6 -6 63 -122 91 -152 11 -13 17 -26 13 -30 -15 -16 -99 110 -137 205 -12 31 -4 28 41 -18z m220 -366 c13 -44 40 -70 48 -46 2 7 8 12 13 12 5 0 3 -12 -5 -27 -7 -16 -16 -47 -19 -70 -9 -62 -18 -93 -28 -93 -5 0 -9 -6 -9 -14 0 -8 -5 -18 -12 -22 -8 -5 -9 -2 -4 12 33 83 25 222 -16 299 -10 17 -9 18 4 7 9 -7 21 -33 28 -58z m375 -17 c-4 -13 -16 -30 -28 -36 -14 -7 -15 -10 -4 -6 10 2 16 1 14 -3 -2 -4 -11 -23 -20 -43 -16 -34 -47 -70 -47 -54 0 4 -8 -2 -17 -13 -18 -20 -83 -47 -83 -34 1 14 50 43 62 36 6 -4 8 -3 5 3 -4 5 7 23 23 38 52 49 33 48 -30 -2 -99 -80 -118 -93 -131 -93 -18 0 16 35 76 78 67 47 115 93 109 103 -2 5 -18 -6 -35 -24 -25 -26 -32 -29 -39 -17 -6 8 -10 18 -10 21 0 11 31 20 43 12 7 -3 8 -2 4 3 -8 8 103 67 111 59 2 -1 0 -14 -3 -28z m-151 -89 c-3 -5 -9 -6 -14 -3 -5 3 -16 -5 -24 -17 -9 -12 -16 -18 -16 -12 0 6 10 24 21 38 16 21 24 24 30 15 4 -7 5 -17 3 -21z m-202 -210 c23 23 28 12 8 -16 -14 -19 -29 -28 -43 -26 -12 1 -25 3 -29 3 -4 1 -2 15 4 32 10 29 11 29 29 13 15 -13 22 -15 31 -6z" fill="#d4a853"/>
    <path d="M2215 5853 c4 -10 13 -55 21 -101 8 -46 24 -100 34 -121 41 -78 125 -134 218 -146 35 -5 63 -16 83 -32 38 -33 45 -25 18 21 -12 20 -25 67 -30 108 -10 77 -37 130 -93 181 -42 38 -67 50 -161 81 -94 31 -99 31 -90 9z m145 -56 c25 -11 48 -21 51 -21 14 -2 81 -72 96 -101 9 -16 17 -44 18 -62 2 -17 6 -37 10 -45 5 -7 -18 16 -51 52 -78 86 -116 122 -122 116 -2 -3 18 -29 46 -58 67 -70 152 -178 152 -192 0 -6 -15 5 -33 25 -17 20 -63 71 -101 113 -37 42 -71 75 -74 72 -6 -6 30 -54 87 -115 23 -24 41 -51 41 -60 0 -9 -3 -12 -8 -6 -4 6 -18 11 -32 13 -41 4 -81 26 -75 40 3 7 0 10 -6 6 -14 -8 -71 56 -64 74 3 8 0 10 -7 6 -8 -5 -9 -2 -5 9 3 10 3 17 -2 17 -5 0 -12 24 -15 53 -4 28 -10 63 -13 76 -5 22 -4 23 28 16 19 -4 54 -16 79 -28z" fill="#d4a853"/>
    <path d="M2320 5733 c0 -15 18 -35 23 -27 3 5 -1 15 -9 22 -8 7 -14 9 -14 5z" fill="#d4a853"/>
    <path d="M1459 5565 c10 -22 23 -67 30 -100 40 -183 136 -268 336 -295 69 -10 71 -11 127 -71 58 -61 147 -201 193 -301 23 -51 75 -114 75 -91 0 6 -18 42 -40 79 -42 72 -50 94 -26 72 8 -7 12 -16 10 -20 -2 -4 0 -9 5 -12 5 -3 19 -24 30 -47 12 -23 37 -58 56 -78 19 -20 35 -42 35 -49 0 -7 4 -10 10 -7 6 3 10 2 10 -3 0 -5 13 -23 29 -40 16 -16 26 -34 23 -38 -4 -4 -2 -4 4 -1 6 4 19 -2 29 -13 15 -16 21 -18 33 -8 13 11 14 9 7 -11 -5 -16 -4 -21 4 -17 6 4 11 2 11 -3 0 -6 -3 -11 -8 -11 -4 0 -12 -10 -17 -21 -10 -21 -30 -28 -30 -10 0 4 -15 21 -33 36 -24 20 -31 33 -27 49 2 11 2 15 -1 8 -4 -9 -18 -3 -47 20 -23 18 -45 37 -49 43 -4 5 -8 7 -8 3 0 -4 -20 2 -45 13 -25 11 -49 17 -55 14 -5 -3 -12 1 -17 8 -4 7 -25 23 -45 36 -21 12 -38 25 -38 27 0 2 17 -3 38 -12 20 -9 47 -19 59 -21 14 -3 20 -10 16 -17 -4 -7 -1 -7 8 1 9 7 19 9 25 4 5 -5 18 -5 29 -1 19 8 19 9 -2 9 -12 1 -24 5 -27 10 -3 5 -52 23 -108 41 -175 55 -189 62 -227 110 -31 42 -32 45 -13 48 28 4 52 34 58 73 7 40 -19 79 -66 103 -27 13 -33 13 -62 -2 -45 -21 -57 -40 -58 -85 0 -30 7 -45 30 -69 17 -17 37 -28 45 -24 9 3 17 -3 21 -17 3 -12 13 -30 21 -39 29 -33 7 -36 -63 -9 -118 46 -153 75 -199 163 -50 97 -100 148 -179 184 -83 39 -189 39 -330 0 -55 -14 -102 -29 -105 -31 -3 -3 5 -12 16 -20 12 -8 46 -48 76 -88 113 -149 197 -200 331 -200 58 1 97 7 138 22 48 19 63 20 96 11 22 -5 50 -18 63 -29 41 -31 106 -61 161 -72 98 -20 257 -84 258 -104 0 -14 -49 -35 -82 -35 -94 0 -149 -114 -89 -186 45 -56 117 -60 167 -10 45 45 49 98 12 150 -26 36 -11 49 45 41 88 -13 192 -95 245 -192 27 -52 30 -54 37 -32 4 13 20 45 35 70 19 31 25 51 19 60 -15 23 -11 177 4 186 21 12 86 102 103 142 9 20 16 65 17 101 1 82 -28 145 -113 249 -33 41 -60 78 -60 82 0 5 -4 9 -10 9 -5 0 -10 -9 -10 -20 0 -11 -13 -49 -29 -85 -73 -160 -63 -284 33 -410 37 -48 37 -50 30 -109 -4 -34 -7 -73 -6 -88 1 -16 -2 -28 -6 -28 -7 0 -83 81 -146 157 -15 18 -51 72 -80 120 -49 82 -53 93 -55 158 -2 73 -6 85 -23 85 -7 0 -9 -20 -5 -60 3 -36 1 -60 -5 -60 -5 0 -6 -5 -2 -12 4 -7 3 -8 -5 -4 -6 4 -9 12 -6 17 9 13 -27 61 -105 139 -88 89 -100 107 -100 152 0 21 -9 64 -20 95 -51 144 -140 206 -356 246 l-72 13 17 -41z m74 -25 c7 0 6 4 -3 10 -32 21 57 10 119 -15 82 -32 124 -64 166 -128 36 -55 55 -129 36 -141 -6 -4 -11 -4 -10 1 3 18 -1 36 -8 30 -9 -9 -34 13 -27 24 3 5 0 8 -8 7 -7 -2 -12 4 -10 12 2 8 1 12 -3 8 -9 -9 -76 52 -70 63 3 4 0 11 -6 15 -8 4 -9 3 -5 -4 15 -25 -11 -11 -44 23 -19 19 -39 35 -44 35 -6 0 -4 -6 4 -13 48 -40 270 -277 270 -288 0 -8 -68 54 -151 136 -83 83 -145 139 -139 125 7 -14 22 -32 32 -42 20 -17 8 -35 -14 -22 -10 6 -10 4 0 -7 9 -10 15 -10 24 -1 15 15 31 16 22 0 -4 -7 -3 -8 4 -4 7 4 12 1 12 -8 0 -9 4 -16 10 -16 5 0 7 -8 4 -17 -5 -15 -4 -16 5 -3 6 8 11 12 11 8 0 -16 5 -24 27 -44 12 -12 19 -24 15 -28 -4 -4 0 -6 8 -4 8 2 14 -2 13 -9 -2 -8 4 -10 14 -6 13 5 15 2 10 -11 -4 -9 -3 -15 2 -11 5 3 12 1 16 -5 11 -18 -82 -1 -138 25 -79 36 -126 102 -161 224 -19 64 -22 127 -5 99 5 -10 15 -18 22 -18z m898 -312 c1 -7 1 -17 0 -21 -1 -5 3 -6 8 -3 5 4 26 -13 46 -36 76 -90 100 -198 66 -300 -11 -32 -36 -56 -48 -44 -3 2 -7 46 -9 98 -3 51 -9 109 -13 128 -5 20 -6 -28 -3 -116 3 -83 2 -163 -2 -178 -14 -58 -24 -10 -25 126 -1 79 -5 159 -11 178 -7 28 -9 15 -8 -65 0 -55 0 -122 -1 -149 l-1 -50 -24 32 c-36 50 -58 133 -53 199 5 71 10 89 38 150 12 26 21 51 21 56 -1 4 3 7 8 7 6 0 11 -6 11 -12z m-1105 -59 c24 -6 44 -15 44 -20 0 -5 7 -9 16 -9 9 0 12 -5 8 -12 -5 -7 -3 -8 5 -4 14 9 101 -71 101 -91 0 -7 6 -13 13 -13 9 0 9 -2 -1 -9 -11 -7 -10 -9 3 -15 22 -8 9 -27 -13 -19 -9 3 -29 15 -44 25 -14 10 -35 18 -45 18 -11 0 -41 11 -69 23 -47 23 -168 57 -196 57 -7 0 30 -16 82 -34 159 -57 308 -124 355 -160 34 -26 6 -18 -99 30 -127 58 -240 104 -258 104 -8 0 -19 5 -25 11 -7 7 -20 8 -30 4 -14 -5 -6 -10 32 -22 83 -24 82 -23 65 -34 -11 -7 -6 -8 15 -3 24 4 27 3 15 -6 -12 -9 -11 -10 8 -5 12 4 22 2 22 -4 0 -6 7 -7 17 -4 12 5 14 3 8 -7 -5 -8 -4 -11 1 -7 6 3 44 -10 85 -28 40 -19 65 -35 54 -35 -17 0 -17 -2 -5 -10 13 -9 13 -10 0 -11 -8 -1 -28 -4 -45 -7 -68 -13 -169 -5 -217 17 -27 12 -48 26 -48 32 0 6 -5 7 -12 3 -7 -4 -8 -3 -4 4 4 7 2 12 -4 12 -6 0 -8 4 -5 10 3 5 0 7 -8 4 -15 -6 -107 100 -107 124 0 7 -4 11 -9 7 -5 -3 -13 5 -17 17 -4 13 -12 27 -18 31 -6 5 3 7 21 5 18 -3 30 -1 27 4 -3 4 4 8 15 8 12 0 21 5 21 11 0 6 9 8 20 4 11 -4 20 -2 20 4 0 15 148 14 206 0z m520 -137 c28 -36 8 -106 -31 -116 -74 -19 -119 70 -64 125 25 25 73 20 95 -9z m223 -452 c23 -44 27 -85 11 -95 -6 -4 -8 -11 -5 -16 9 -13 -9 -11 -25 4 -12 10 -12 9 0 -6 19 -25 1 -40 -48 -40 -52 0 -86 33 -86 83 1 75 17 90 125 109 4 0 16 -17 28 -39z" fill="#d4a853"/>
    <path d="M1178 5163 c7 -3 16 -2 19 1 4 3 -2 6 -13 5 -11 0 -14 -3 -6 -6z" fill="#d4a853"/>
    <path d="M1795 4939 c-11 -17 1 -21 15 -4 8 9 8 15 2 15 -6 0 -14 -5 -17 -11z" fill="#d4a853"/>
    <path d="M1948 4468 c5 -5 16 -8 23 -6 8 3 3 7 -10 11 -17 4 -21 3 -13 -5z" fill="#d4a853"/>
    <path d="M4465 5599 c-205 -45 -249 -64 -313 -133 -48 -52 -76 -110 -86 -176 -4 -25 -9 -57 -12 -71 -3 -15 -30 -53 -61 -85 -78 -84 -153 -173 -153 -185 0 -5 -9 -18 -20 -29 -11 -11 -39 -55 -61 -97 -40 -76 -81 -139 -148 -234 -31 -44 -33 -52 -32 -125 1 -78 14 -116 27 -78 36 111 185 244 273 244 16 0 42 -5 58 -11 15 -6 51 -11 80 -10 48 1 52 -1 72 -33 21 -34 21 -86 0 -86 -5 0 -6 -7 -2 -17 5 -13 2 -15 -15 -11 -14 4 -19 2 -16 -7 6 -14 -22 -28 -37 -19 -5 3 -9 1 -9 -5 0 -6 -7 -8 -16 -4 -14 5 -13 8 6 18 19 10 20 13 6 18 -10 4 -15 3 -12 -2 3 -5 -1 -12 -10 -15 -43 -17 -71 79 -38 129 15 23 15 25 0 25 -10 0 -23 -15 -32 -36 -33 -79 17 -154 103 -154 38 0 50 5 79 34 27 27 34 42 34 74 0 74 -66 134 -124 112 -15 -5 -28 -3 -44 10 -21 18 -59 19 -152 6 -8 -1 -28 -14 -44 -29 -27 -25 -40 -31 -59 -28 -5 1 -6 -3 -3 -8 4 -5 0 -13 -7 -18 -7 -4 -26 -25 -41 -45 -16 -21 -33 -35 -39 -31 -5 3 -7 2 -4 -3 3 -6 2 -16 -4 -24 -6 -10 -9 0 -9 34 0 27 3 46 7 43 3 -4 14 10 23 31 10 20 27 47 39 59 11 12 21 26 21 30 0 14 57 92 63 87 3 -3 8 5 13 18 12 38 66 149 71 144 2 -2 0 -12 -6 -23 -20 -37 -81 -176 -87 -198 -4 -17 0 -26 15 -35 14 -7 21 -7 21 0 0 5 7 10 16 10 9 0 12 5 8 12 -4 7 -3 8 5 4 6 -4 17 -3 24 2 7 5 27 13 45 17 17 3 32 10 32 15 0 4 9 10 20 13 30 8 24 -6 -12 -28 -63 -37 -6 -26 71 14 44 23 104 46 133 52 76 16 186 72 243 125 27 25 70 54 95 66 125 57 239 105 278 118 23 7 40 15 38 18 -8 8 -105 -19 -154 -43 -26 -12 -57 -22 -69 -20 -12 1 -20 -2 -17 -6 3 -5 0 -9 -7 -9 -7 0 -20 -6 -28 -14 -9 -8 -29 -17 -46 -21 -16 -4 -25 -3 -19 2 5 4 16 22 22 38 16 38 68 100 84 100 7 0 14 4 15 9 3 18 79 44 143 51 70 6 260 -20 260 -37 0 -5 5 -6 10 -3 17 11 11 -4 -14 -33 -13 -15 -46 -56 -73 -92 -28 -37 -56 -64 -65 -64 -10 1 -14 -4 -11 -12 6 -16 -62 -48 -140 -64 -72 -14 -160 -4 -190 22 -18 16 -18 19 -4 14 10 -3 15 -2 12 3 -6 10 31 26 55 23 12 -1 12 0 1 5 -9 4 -3 10 19 19 17 8 37 11 43 7 5 -3 7 -2 4 4 -6 9 68 39 86 35 4 -1 7 2 7 7 0 5 25 17 55 26 30 10 55 22 55 27 0 5 -13 2 -30 -7 -16 -8 -36 -15 -45 -15 -37 0 -355 -146 -355 -163 0 -5 7 -6 16 -3 9 4 45 -3 79 -15 50 -17 81 -20 147 -17 136 6 209 53 328 211 24 32 52 65 64 72 11 8 18 16 15 19 -2 2 -49 16 -104 31 -138 39 -247 39 -332 0 -77 -34 -127 -85 -178 -182 -35 -67 -47 -82 -95 -110 -60 -36 -181 -86 -188 -78 -3 3 3 14 13 25 11 12 16 29 13 44 -4 20 -1 24 15 20 41 -8 87 45 87 100 0 29 -33 68 -70 83 -31 12 -81 -6 -104 -39 -33 -47 -10 -138 35 -138 24 0 24 -13 2 -48 -28 -42 -54 -61 -108 -77 -105 -32 -208 -75 -231 -96 -30 -28 -41 -19 -18 16 10 15 39 73 65 130 52 115 118 220 182 290 41 44 45 46 117 54 122 13 188 39 243 94 47 46 107 156 107 195 0 19 22 105 35 135 8 19 7 19 -50 6z m-2 -91 c-19 -86 -53 -179 -64 -172 -5 3 -9 -1 -9 -10 0 -21 -58 -76 -81 -76 -13 0 -18 -4 -13 -12 5 -8 0 -9 -14 -6 -14 4 -20 2 -15 -5 4 -6 0 -8 -10 -4 -9 3 -17 2 -19 -3 -4 -12 -98 -24 -98 -13 0 5 46 54 103 109 109 107 144 145 117 129 -20 -12 -88 -74 -185 -170 -44 -44 -89 -87 -99 -95 -18 -14 -19 -14 -6 9 7 13 67 78 134 143 66 66 111 115 100 109 -12 -6 -25 -7 -29 -3 -5 4 -5 2 -1 -5 4 -8 -8 -22 -34 -38 -22 -14 -39 -30 -37 -36 1 -6 -4 -14 -12 -17 -9 -3 -11 0 -6 8 5 9 4 11 -4 6 -6 -4 -9 -12 -6 -17 4 -5 2 -9 -4 -9 -5 0 -11 3 -14 8 -2 4 -2 1 0 -6 1 -8 -13 -30 -34 -49 l-36 -36 7 48 c7 54 58 152 76 147 6 -1 9 2 6 7 -7 10 40 49 90 74 30 16 150 45 190 46 21 1 21 0 7 -61z m-268 -454 c26 -10 46 -59 36 -87 -6 -14 -15 -28 -22 -33 -9 -5 -10 -2 -6 10 4 10 3 15 -3 11 -6 -3 -10 -13 -10 -21 0 -24 -17 -15 -34 19 -8 17 -16 25 -16 17 0 -9 5 -21 12 -28 19 -19 -4 -33 -26 -16 -14 10 -16 14 -5 15 8 0 4 4 -8 9 -31 13 -29 42 6 79 29 31 45 36 76 25z" fill="#d4a853"/>
    <path d="M4330 5475 c-11 -13 -10 -14 4 -9 9 3 16 10 16 15 0 13 -6 11 -20 -6z" fill="#d4a853"/>
    <path d="M3804 5530 c-112 -126 -140 -230 -89 -335 22 -46 57 -95 68 -95 2 0 7 53 11 118 3 64 8 135 10 157 3 22 2 29 -1 15 -3 -14 -8 -29 -13 -35 -9 -12 -19 -72 -22 -131 -1 -25 -7 -41 -14 -41 -7 0 -11 4 -8 9 3 4 1 8 -3 8 -12 0 -33 82 -25 95 4 5 5 18 4 28 -5 27 18 88 47 127 44 59 101 113 101 95 0 -9 9 -35 19 -58 10 -23 21 -67 25 -97 4 -41 3 -48 -4 -30 -8 20 -9 17 -6 -19 3 -24 1 -51 -4 -60 -5 -9 -14 -30 -21 -48 -7 -17 -17 -29 -21 -27 -5 3 -7 0 -6 -7 2 -6 -3 -14 -11 -17 -12 -4 -13 6 -7 59 15 130 18 169 13 169 -12 0 -29 -122 -41 -293 -7 -100 -12 -184 -10 -186 1 -1 7 0 13 4 7 3 11 41 11 89 0 78 2 86 31 122 90 111 105 216 55 367 -16 48 -32 87 -35 86 -3 0 -33 -31 -67 -69z" fill="#d4a853"/>
    <path d="M2007 5491 c-31 -139 -17 -232 47 -307 18 -22 38 -49 45 -62 17 -31 40 -16 76 50 23 42 29 65 29 114 0 75 -25 122 -116 216 l-64 65 -17 -76z m142 -99 c28 -40 37 -126 17 -172 -13 -32 -13 -32 -25 44 -7 42 -17 76 -22 76 -5 0 -10 10 -10 23 -1 12 -3 15 -5 7 -3 -8 4 -57 15 -107 12 -60 16 -103 11 -120 -10 -35 -16 -19 -24 59 -6 57 -31 167 -40 176 -3 2 -3 -11 0 -29 2 -19 8 -62 13 -97 8 -61 7 -62 -11 -42 -32 35 -60 129 -53 180 10 71 16 90 27 84 6 -4 7 2 3 17 -6 19 2 15 37 -21 24 -25 54 -60 67 -78z" fill="#d4a853"/>
    <path d="M3052 5383 c-24 -54 -25 -59 -23 -125 0 -27 5 -48 10 -48 17 0 54 71 54 103 0 82 -4 117 -11 117 -5 0 -18 -21 -30 -47z m9 -106 c-13 -13 -15 41 -3 70 5 13 8 8 10 -21 2 -21 -1 -43 -7 -49z" fill="#d4a853"/>
    <path d="M3497 5128 c-10 -18 -30 -54 -47 -80 -33 -53 -50 -107 -50 -159 0 -47 43 -131 86 -169 34 -30 35 -32 41 -130 3 -55 9 -100 13 -100 17 0 21 106 6 154 -16 54 -17 50 48 171 18 34 21 122 5 178 -6 21 -24 61 -40 88 -16 27 -29 56 -29 64 0 25 -15 17 -33 -17z m53 -84 c17 -36 27 -70 24 -76 -4 -7 -2 -8 4 -4 19 12 6 -117 -16 -153 l-19 -32 -6 88 c-3 55 -1 90 5 94 7 4 6 9 -1 13 -6 4 -8 12 -5 18 4 7 2 8 -4 4 -8 -5 -12 -53 -13 -149 0 -110 -3 -136 -11 -117 -6 14 -11 78 -12 142 -1 136 -14 135 -17 -2 l-2 -94 -23 29 c-20 26 -23 39 -20 100 3 70 34 153 51 137 5 -4 5 -1 1 5 -6 10 20 61 32 63 1 0 16 -30 32 -66z" fill="#d4a853"/>
    <path d="M1065 4890 c-3 -6 1 -7 9 -4 18 7 21 14 7 14 -6 0 -13 -4 -16 -10z" fill="#d4a853"/>
    <path d="M2814 4735 c-100 -32 -160 -70 -239 -149 -165 -165 -226 -407 -165 -650 12 -49 31 -105 41 -123 10 -18 15 -33 10 -33 -19 0 -49 52 -66 115 l-18 66 -96 54 c-53 29 -118 75 -144 102 -54 53 -111 150 -122 203 -11 57 -16 70 -27 70 -30 0 23 -213 64 -257 24 -25 17 -44 -10 -26 -9 7 -54 30 -100 53 -57 28 -103 61 -146 103 -77 76 -106 129 -106 196 0 60 -23 125 -59 165 -26 29 -133 86 -161 86 -8 0 -27 6 -42 14 -15 8 -29 12 -31 10 -2 -3 1 -23 8 -47 7 -23 21 -69 30 -102 29 -100 78 -149 183 -180 51 -16 60 -14 39 7 -8 7 -19 24 -26 36 -14 27 -25 40 -82 102 -23 25 -36 37 -29 28 7 -10 9 -18 4 -18 -5 0 4 -11 19 -24 18 -15 26 -30 21 -37 -4 -8 -3 -9 4 -5 7 4 12 2 12 -3 0 -6 10 -21 22 -33 l21 -21 -34 7 c-18 3 -37 13 -42 21 -4 8 -13 15 -20 15 -14 0 -57 63 -57 84 0 8 -5 18 -10 21 -12 7 -14 51 -2 58 4 2 1 2 -5 1 -8 -2 -13 6 -13 20 0 22 3 23 33 17 57 -14 154 -71 140 -85 -3 -3 -1 -6 5 -6 7 0 10 -10 8 -22 -3 -13 -5 -25 -5 -27 -1 -3 -15 8 -32 25 -19 18 -28 36 -25 47 3 15 2 16 -10 7 -14 -12 -6 -42 16 -55 22 -13 92 -129 110 -179 31 -91 109 -194 141 -188 9 2 30 -11 48 -27 18 -16 34 -30 37 -29 10 2 114 -45 114 -52 0 -8 29 -6 53 5 11 5 16 14 13 24 -5 14 -5 14 6 1 7 -8 31 -31 53 -49 22 -19 39 -39 37 -44 -1 -5 2 -6 8 -2 11 7 53 -18 45 -27 -3 -2 1 -5 9 -5 26 0 76 -25 69 -36 -3 -6 -1 -7 5 -3 15 9 52 -29 52 -53 0 -11 3 -27 6 -36 6 -14 4 -15 -12 -7 -10 6 -27 13 -37 16 -11 3 -21 15 -24 26 -3 11 -10 20 -15 20 -5 0 -16 7 -25 15 -8 8 -19 12 -25 9 -7 -4 -8 -2 -4 4 4 7 2 13 -3 13 -18 2 -33 8 -111 39 -79 31 -115 40 -166 40 -27 0 -44 4 -37 8 6 4 10 19 10 34 -1 15 -6 23 -10 19 -9 -9 -107 36 -107 49 0 4 -9 6 -20 3 -11 -3 -20 -1 -20 3 0 5 -12 10 -27 11 -68 6 -109 17 -120 33 -6 9 -35 27 -62 41 -28 13 -51 27 -51 32 0 4 17 -1 38 -12 89 -45 138 -65 156 -62 10 1 16 -1 13 -6 -3 -5 12 -9 34 -9 21 0 39 2 39 6 0 3 -33 17 -72 29 -92 30 -240 104 -343 173 -70 47 -84 61 -110 114 -35 72 -56 98 -110 141 -49 39 -147 67 -207 58 -34 -5 -215 -61 -225 -69 -1 -1 37 -43 86 -94 135 -140 217 -170 379 -137 101 21 109 18 203 -58 30 -24 64 -49 77 -56 12 -6 22 -15 22 -19 0 -6 -87 -11 -265 -14 -44 -1 -78 6 -130 26 -62 25 -79 27 -153 23 -131 -8 -218 -59 -313 -185 -24 -31 -50 -61 -56 -65 -24 -15 -13 -24 50 -40 34 -9 87 -24 117 -32 164 -45 314 11 407 152 54 81 84 95 208 101 89 4 114 1 179 -19 42 -13 76 -29 76 -35 0 -7 -8 -10 -18 -7 -11 2 -36 -3 -57 -11 -24 -10 -42 -13 -49 -7 -6 5 -27 12 -46 16 -44 8 -83 -19 -100 -70 -32 -98 105 -160 170 -78 21 27 27 78 11 88 -13 7 -29 -24 -24 -45 6 -21 -41 -60 -72 -60 -12 0 -31 10 -42 23 -18 20 -20 31 -15 77 3 21 64 58 70 42 2 -7 8 -9 14 -6 5 3 15 -2 22 -11 11 -15 16 -16 37 -4 15 8 58 13 114 14 78 0 102 -4 180 -33 50 -19 96 -35 104 -38 25 -8 1 -18 -38 -16 -60 4 -194 -50 -361 -144 -35 -19 -54 -24 -85 -20 -144 18 -158 18 -218 2 -150 -41 -247 -167 -283 -367 -7 -42 -14 -80 -15 -85 -3 -20 2 -26 14 -16 12 10 62 19 192 36 180 24 286 123 335 314 16 62 58 103 152 149 123 60 194 77 323 77 125 1 172 -11 294 -78 l76 -41 -70 -7 c-38 -3 -88 -11 -110 -18 -31 -10 -54 -10 -107 0 -126 24 -233 -4 -312 -84 -80 -80 -110 -160 -120 -323 l-6 -92 35 24 c20 13 78 33 133 45 109 25 139 38 197 85 58 46 90 98 120 189 28 89 45 112 92 132 52 22 171 18 212 -7 70 -43 124 -97 179 -179 40 -61 105 -132 226 -250 465 -452 499 -490 560 -629 54 -121 47 -286 -17 -413 -36 -74 -140 -181 -210 -218 -26 -14 -46 -28 -45 -32 2 -4 51 -43 111 -88 l107 -81 48 33 c212 144 322 348 322 594 0 166 -39 289 -142 449 -70 110 -124 166 -452 478 -297 283 -390 428 -403 628 -12 183 56 319 202 404 57 34 167 45 242 25 89 -25 179 -99 221 -183 82 -162 62 -358 -55 -536 -42 -64 -114 -153 -186 -227 l-48 -51 68 -64 c37 -35 79 -76 94 -91 l26 -27 83 90 c81 88 115 128 155 184 77 106 89 119 230 226 57 44 190 106 265 125 125 32 319 0 469 -75 97 -50 128 -83 147 -157 22 -83 49 -130 108 -189 70 -71 134 -93 290 -105 67 -4 133 -13 148 -19 l27 -10 -13 32 c-8 18 -19 57 -26 87 -20 84 -74 190 -124 241 -92 93 -211 126 -355 99 l-67 -13 -125 66 c-168 88 -304 128 -334 98 -6 -6 -50 -15 -100 -21 -49 -6 -94 -15 -100 -21 -5 -5 -17 -9 -27 -9 -10 0 -18 -5 -18 -11 0 -7 -9 -9 -21 -6 -12 3 -18 3 -15 -1 9 -8 -54 -33 -65 -26 -5 3 -8 0 -7 -8 2 -7 -3 -12 -10 -10 -8 1 -11 -2 -7 -8 3 -5 0 -10 -9 -10 -8 0 -28 -11 -44 -25 -36 -30 -52 -33 -27 -5 10 11 13 20 7 20 -6 0 -5 11 5 30 8 17 18 28 23 25 4 -3 13 2 20 10 8 9 21 13 34 10 13 -4 16 -3 9 2 -9 6 -1 15 25 28 20 10 56 34 78 52 23 18 44 29 48 26 3 -4 6 1 6 9 0 9 7 22 16 29 15 12 16 11 10 -9 -5 -13 -3 -22 3 -23 42 -5 71 -2 75 7 2 6 26 19 53 29 26 10 55 24 64 31 9 8 18 11 22 8 3 -3 14 -1 24 6 16 10 15 10 -6 4 -16 -4 -21 -3 -17 5 4 6 14 11 23 11 9 0 34 15 57 34 37 30 64 74 125 204 9 18 44 67 79 108 35 41 55 71 44 65 -17 -9 -79 -75 -118 -126 -14 -18 -14 -17 -1 10 8 17 12 35 10 41 -7 21 62 99 107 121 45 22 107 39 115 31 14 -13 -41 -172 -56 -162 -5 3 -9 -2 -9 -10 0 -23 -64 -68 -85 -59 -13 4 -16 3 -11 -5 4 -7 1 -12 -8 -12 -13 0 -14 4 -4 25 6 14 16 25 22 24 25 -3 37 2 30 12 -4 8 -9 7 -15 -2 -5 -8 -9 -9 -9 -3 0 5 16 27 35 49 20 21 33 40 31 43 -6 5 -92 -87 -118 -126 -9 -15 -25 -37 -33 -48 -16 -21 -16 -21 33 -9 62 17 121 47 149 77 24 25 54 103 73 186 7 28 17 52 23 52 8 0 8 3 0 11 -7 7 -17 7 -29 1 -11 -5 -44 -17 -74 -26 -30 -9 -73 -26 -95 -39 -52 -30 -102 -104 -110 -165 -3 -26 -8 -61 -11 -79 -7 -45 -83 -144 -148 -192 -71 -52 -226 -132 -226 -116 0 7 6 18 14 24 24 20 54 103 64 176 5 39 8 73 5 78 -8 14 -21 -3 -28 -39 -22 -118 -134 -262 -250 -322 -82 -42 -114 -71 -119 -107 -7 -56 -40 -120 -56 -110 -5 3 3 30 17 61 22 48 26 73 30 192 4 107 2 153 -11 207 -52 220 -208 392 -419 462 -99 32 -260 32 -363 -2z m290 -8 c68 -14 170 -51 187 -68 11 -11 23 -19 28 -19 5 0 19 -11 32 -25 13 -13 29 -25 34 -25 16 0 87 -89 80 -100 -3 -6 0 -10 8 -10 13 0 31 -32 70 -122 69 -158 49 -493 -34 -587 -30 -34 -64 -49 -55 -24 4 10 3 14 -1 9 -4 -4 -8 -18 -8 -32 -1 -22 0 -23 20 -6 11 9 9 4 -6 -13 -15 -17 -32 -40 -38 -53 -7 -12 -16 -20 -22 -17 -5 4 -8 2 -7 -3 2 -5 -8 -22 -22 -38 -14 -16 -38 -46 -54 -66 -15 -21 -32 -35 -37 -32 -5 3 -9 0 -9 -5 0 -16 -33 -51 -48 -51 -7 0 -10 -4 -7 -10 16 -27 -24 -5 -57 30 -21 22 -38 38 -38 36 0 -3 -14 9 -30 26 -24 24 -28 33 -19 44 6 8 16 11 23 7 6 -3 8 -3 4 2 -4 4 11 28 32 53 22 25 40 49 40 55 0 5 7 4 15 -3 13 -11 15 -10 10 1 -5 16 99 172 109 162 3 -3 6 1 6 10 0 10 9 36 19 60 71 154 73 358 6 461 -10 14 -15 26 -11 26 3 0 -2 10 -12 22 -88 110 -207 173 -317 170 -67 -3 -135 -14 -135 -23 0 -5 -5 -9 -11 -9 -13 0 -90 -59 -102 -77 -5 -8 -13 -11 -18 -7 -5 3 -8 1 -7 -4 2 -5 -11 -23 -28 -39 -16 -16 -28 -35 -26 -43 3 -8 0 -10 -7 -5 -8 4 -11 2 -10 -6 3 -20 -12 -70 -20 -65 -3 2 -7 -17 -8 -42 -1 -25 -6 -48 -11 -51 -12 -8 3 -153 22 -216 9 -27 16 -61 16 -74 0 -13 3 -21 6 -18 4 4 16 -10 26 -31 26 -49 68 -111 96 -142 12 -14 22 -28 22 -32 0 -4 10 -16 22 -28 12 -11 18 -20 14 -20 -4 0 5 -11 21 -24 74 -63 143 -138 137 -148 -5 -7 -2 -8 6 -3 7 4 15 4 19 -1 3 -5 56 -54 116 -109 61 -55 112 -103 115 -107 3 -4 35 -38 71 -75 93 -98 141 -161 133 -174 -4 -7 -3 -9 4 -5 16 10 27 -15 11 -26 -11 -8 -10 -9 3 -4 20 6 64 -57 52 -75 -5 -8 -3 -9 6 -4 10 6 12 4 7 -8 -3 -10 -3 -17 1 -17 11 0 34 -58 27 -70 -3 -5 -1 -10 5 -10 43 0 61 -289 25 -405 -11 -33 -20 -64 -21 -70 -3 -23 -17 -45 -25 -39 -5 3 -6 -3 -2 -12 5 -12 3 -15 -6 -9 -10 6 -11 2 -6 -15 4 -13 3 -20 -2 -17 -5 3 -17 -12 -27 -33 -9 -22 -23 -39 -29 -37 -7 1 -12 -6 -12 -15 0 -10 -6 -23 -14 -30 -10 -10 -12 -10 -7 0 4 6 5 12 2 12 -3 0 -13 -14 -21 -30 -9 -17 -20 -28 -25 -25 -6 4 -10 2 -10 -4 0 -11 -75 -72 -93 -75 -6 -1 -18 -5 -24 -9 -16 -10 -73 31 -74 52 0 11 -2 12 -6 3 -3 -9 -15 -3 -39 18 -19 16 -38 30 -43 30 -4 0 -8 7 -8 15 0 8 4 12 9 9 4 -3 8 0 8 5 0 6 6 11 13 11 14 0 144 123 164 155 7 11 30 54 52 95 l39 76 -3 119 c-3 134 -10 182 -30 202 -8 7 -19 29 -26 48 -7 19 -16 35 -19 35 -4 0 -12 16 -20 35 -7 19 -18 31 -23 28 -6 -4 -8 0 -4 10 3 9 3 16 -1 14 -4 -1 -9 3 -12 8 -2 6 -17 21 -32 33 -15 13 -28 30 -28 38 0 9 -4 12 -10 9 -9 -6 -14 8 -11 28 1 5 -3 5 -9 2 -7 -4 -14 2 -17 14 -3 12 -10 20 -16 18 -11 -3 -87 69 -87 83 0 4 -8 14 -17 21 -17 13 -17 13 -3 -6 l15 -20 -25 20 c-14 11 -38 34 -53 50 -16 17 -33 29 -38 28 -5 -2 -9 4 -9 12 0 9 -12 20 -26 25 -18 7 -24 15 -20 26 3 8 2 13 -3 10 -10 -7 -171 149 -171 165 0 6 -4 7 -10 4 -5 -3 -10 -1 -10 5 0 14 -35 61 -41 56 -2 -2 -11 3 -19 12 -13 14 -12 15 3 9 9 -3 19 -1 23 5 4 7 3 8 -4 4 -6 -4 -29 10 -51 31 -31 29 -38 40 -29 51 7 7 7 12 1 10 -15 -5 -59 53 -73 97 -7 22 -19 49 -26 60 -7 11 -15 43 -19 70 -4 28 -8 57 -10 65 -16 109 -16 172 0 253 10 48 22 87 27 87 5 0 6 4 3 10 -7 11 64 160 76 160 5 0 9 -5 9 -11 0 -5 5 -7 11 -3 8 5 8 9 -1 14 -16 10 49 92 67 85 7 -2 10 1 7 8 -6 16 61 61 78 51 7 -4 10 -4 6 1 -5 5 1 14 11 21 16 11 94 42 126 49 6 1 17 5 25 8 8 3 21 7 27 9 20 5 175 1 207 -5z m-2050 -63 c9 -8 16 -11 16 -5 0 12 64 -23 98 -53 12 -11 20 -26 18 -33 -3 -7 0 -12 6 -10 5 1 19 -13 29 -30 21 -37 12 -44 -16 -13 -10 12 -25 18 -33 15 -8 -3 -21 0 -28 6 -8 6 -14 8 -14 5 0 -4 -12 1 -27 12 -27 19 -170 59 -178 50 -3 -2 28 -15 68 -27 74 -24 273 -116 283 -132 11 -18 -22 -8 -87 25 -75 38 -268 110 -276 103 -6 -6 35 -30 57 -33 41 -7 109 -37 103 -47 -3 -5 -1 -7 4 -4 12 7 106 -31 111 -44 2 -5 9 -6 15 -3 9 5 9 4 1 -5 -6 -6 -47 -14 -92 -18 -74 -5 -84 -4 -97 13 -8 11 -14 14 -15 7 0 -19 -18 -16 -37 6 -9 11 -21 17 -26 14 -4 -3 -36 24 -70 59 -61 63 -100 108 -94 108 2 0 35 11 73 25 83 29 184 34 208 9z m589 -131 c-5 -12 -3 -14 7 -8 10 6 12 4 7 -8 -3 -9 -1 -18 6 -21 9 -3 9 -5 0 -5 -18 -1 -43 28 -37 44 4 8 10 15 15 15 4 0 5 -7 2 -17z m-588 -267 c6 -7 15 -11 22 -9 6 2 14 0 17 -6 3 -5 -11 -15 -31 -21 -21 -7 -44 -17 -50 -22 -7 -6 -20 -8 -28 -4 -8 3 -15 1 -15 -5 0 -6 -5 -7 -11 -4 -11 7 -61 -9 -159 -53 -46 -20 7 -13 68 9 143 51 322 90 322 71 0 -6 -17 -14 -37 -17 -21 -3 -54 -10 -73 -15 -135 -36 -190 -53 -227 -70 -24 -11 -50 -20 -60 -20 -9 0 -13 -3 -10 -6 4 -4 28 -1 54 7 26 7 53 14 58 14 6 1 17 4 25 8 8 4 40 13 70 21 41 11 57 11 62 3 6 -9 8 -9 8 -1 0 7 11 15 24 18 13 3 32 9 41 12 15 6 16 4 5 -16 -22 -41 -117 -130 -139 -130 -12 0 -21 -4 -21 -9 0 -5 -26 -15 -57 -22 -64 -13 -172 -1 -227 26 -16 8 -37 15 -47 15 -25 0 -33 17 -12 29 10 5 15 13 11 17 -4 3 14 27 40 52 26 26 40 43 32 38 -8 -5 -1 3 15 18 44 37 131 80 146 71 7 -5 10 -4 5 3 -14 23 161 21 179 -2z m3730 -390 c49 -9 121 -49 117 -66 -1 -6 2 -8 9 -5 16 11 74 -59 114 -136 19 -38 33 -69 31 -69 -3 0 2 -23 10 -51 13 -43 13 -53 2 -60 -9 -6 -15 -2 -20 14 -5 17 -6 18 -7 4 -1 -17 -9 -18 -91 -13 -93 5 -195 31 -185 47 4 5 0 6 -8 4 -13 -6 -36 10 -91 63 -32 30 -46 60 -47 100 0 24 -1 25 -9 7 l-9 -20 -1 20 c-2 11 -2 26 -1 34 2 7 -2 11 -7 8 -4 -3 -8 7 -8 24 0 28 9 38 20 20 4 -5 0 -12 -6 -15 -7 -3 -2 -3 11 0 14 4 21 2 17 -4 -5 -9 17 -25 39 -27 6 0 21 -8 35 -16 135 -85 159 -103 153 -112 -4 -6 0 -8 10 -4 10 3 17 3 17 -2 0 -4 12 -13 28 -20 80 -34 -169 145 -310 223 -38 21 -68 42 -68 47 0 13 5 12 68 -21 70 -37 165 -98 261 -168 68 -50 133 -86 87 -48 -11 9 -31 26 -46 38 -14 13 -35 28 -46 35 -10 6 -18 17 -16 23 2 8 -3 10 -14 6 -12 -5 -15 -2 -10 9 3 9 2 13 -4 10 -10 -6 -65 27 -88 55 -8 8 -11 9 -7 3 4 -9 1 -11 -9 -7 -9 3 -13 10 -10 15 3 5 -3 6 -12 2 -12 -4 -15 -3 -10 6 4 6 4 11 -1 10 -15 -4 -43 13 -43 26 0 20 76 25 155 11z m-3413 -10 c8 -12 -49 -49 -63 -40 -5 3 -8 0 -7 -6 2 -6 -16 -22 -40 -35 -24 -12 -53 -34 -65 -48 -27 -29 -54 -40 -61 -24 -3 7 -4 3 -1 -9 4 -16 -5 -28 -40 -53 -25 -18 -50 -42 -57 -54 -10 -19 -7 -19 23 6 137 111 172 138 234 179 91 59 178 103 173 87 -3 -8 -44 -37 -92 -65 -47 -28 -119 -75 -158 -104 -80 -60 -195 -167 -161 -150 12 5 26 16 30 24 4 7 19 19 33 26 14 7 30 21 37 30 7 10 26 23 43 30 16 7 30 16 30 21 0 5 7 9 16 9 9 0 12 5 8 12 -5 8 -2 9 9 5 10 -3 17 -3 17 2 0 7 132 101 143 101 9 0 2 -27 -13 -46 -9 -11 -10 -15 -3 -10 9 5 11 2 6 -11 -3 -10 -9 -22 -13 -28 -4 -5 -7 -17 -7 -25 0 -24 -66 -111 -80 -106 -7 3 -13 -1 -13 -10 0 -8 -10 -19 -22 -24 -13 -6 -30 -14 -38 -19 -47 -26 -79 -40 -96 -41 -47 -1 -132 -9 -166 -16 -42 -7 -42 -7 -27 51 5 22 12 54 14 70 6 44 46 126 77 160 16 17 28 34 28 39 0 4 7 5 16 2 8 -3 12 -2 9 4 -8 13 73 63 91 56 8 -3 12 -2 9 3 -3 5 5 12 17 14 39 8 153 3 160 -7z m583 -36 c3 -5 12 -10 18 -10 7 0 6 4 -3 10 -13 8 -13 10 2 10 31 0 29 -19 -3 -36 -18 -9 -50 -29 -72 -45 -22 -16 -43 -26 -48 -24 -4 3 -11 0 -15 -6 -5 -8 -3 -9 6 -4 9 5 11 4 6 -3 -4 -7 -12 -12 -17 -12 -6 0 -20 -11 -33 -25 -13 -13 -26 -21 -30 -17 -4 4 -6 3 -4 -3 3 -10 -53 -71 -62 -68 -3 1 -7 -8 -7 -20 -2 -18 3 -16 34 17 41 43 147 129 202 163 51 32 163 84 168 79 5 -5 -48 -39 -107 -69 -87 -44 -290 -217 -290 -247 0 -9 6 -5 16 9 13 18 19 20 26 10 8 -11 9 -10 5 3 -4 11 8 27 35 50 23 18 45 32 50 30 5 -1 7 2 3 7 -3 6 5 15 17 22 13 7 25 15 28 18 14 19 71 51 80 46 6 -4 9 -1 8 7 -2 7 6 13 17 13 11 0 22 5 25 12 3 7 10 9 18 4 10 -6 9 -14 -4 -39 -8 -17 -13 -36 -9 -42 3 -5 1 -10 -5 -10 -7 0 -10 -5 -8 -12 4 -12 -9 -31 -44 -70 -10 -10 -15 -18 -12 -18 8 0 -18 -24 -48 -44 -15 -10 -33 -14 -39 -10 -7 4 -9 3 -5 -4 4 -6 -14 -16 -46 -26 -83 -24 -141 -38 -163 -39 -11 0 -23 -5 -27 -11 -16 -24 -19 8 -9 90 8 63 20 106 42 150 29 60 81 119 93 107 3 -4 6 2 6 12 0 10 3 15 7 12 3 -4 15 0 25 10 10 9 18 13 18 10 0 -3 12 1 28 9 31 16 118 19 127 4z" fill="#d4a853"/>
    <path d="M2891 4673 c-14 -3 -41 -16 -60 -29 -39 -26 -32 -32 12 -9 71 37 217 41 296 9 48 -20 61 -17 25 6 -25 16 -53 21 -140 24 -60 3 -120 2 -133 -1z" fill="#d4a853"/>
    <path d="M2895 4631 c-126 -33 -264 -156 -303 -270 -7 -19 -12 -35 -12 -36 0 -1 6 -2 14 -2 8 0 12 6 9 13 -5 13 31 89 52 111 7 7 15 16 17 20 9 23 130 115 151 117 14 0 23 5 19 10 -3 5 5 7 16 4 12 -4 22 -3 22 2 0 4 27 13 59 20 48 10 73 10 125 0 36 -7 63 -16 60 -21 -3 -5 2 -6 10 -3 8 3 25 -1 38 -10 12 -9 28 -16 35 -16 37 0 148 -121 184 -199 36 -79 46 -139 43 -259 -2 -64 -9 -110 -24 -148 -11 -31 -16 -53 -11 -50 13 8 41 95 41 127 0 15 4 30 10 34 12 8 3 154 -15 219 -35 132 -121 244 -223 291 -31 15 -66 32 -77 38 -24 13 -198 19 -240 8z" fill="#d4a853"/>
    <path d="M3234 4611 c4 -6 16 -16 28 -22 15 -8 18 -8 14 0 -4 6 -16 16 -28 22 -15 8 -18 8 -14 0z" fill="#d4a853"/>
    <path d="M2745 4602 c-5 -4 -17 -16 -25 -27 -11 -15 -7 -14 15 5 17 14 32 26 34 28 2 1 0 2 -5 2 -5 0 -13 -4 -19 -8z" fill="#d4a853"/>
    <path d="M3304 4561 c4 -6 16 -16 28 -22 15 -8 18 -8 14 0 -4 6 -16 16 -28 22 -15 8 -18 8 -14 0z" fill="#d4a853"/>
    <path d="M2655 4524 c-11 -14 -28 -33 -37 -42 -10 -9 -18 -22 -18 -29 0 -7 -4 -13 -9 -13 -5 0 -11 -10 -14 -22 l-6 -23 17 23 c9 13 34 46 55 73 21 28 37 52 35 54 -2 2 -12 -7 -23 -21z" fill="#d4a853"/>
    <path d="M3380 4483 c0 -15 18 -35 23 -27 3 5 -1 15 -9 22 -8 7 -14 9 -14 5z" fill="#d4a853"/>
    <path d="M3416 4441 c-6 -10 10 -61 19 -61 2 0 0 12 -5 26 -6 14 -8 30 -4 35 3 5 3 9 0 9 -3 0 -7 -4 -10 -9z" fill="#d4a853"/>
    <path d="M2550 4363 c-15 -30 -17 -42 -25 -113 l-4 -45 10 45 c6 25 11 54 12 65 0 11 4 22 8 25 7 6 22 50 16 50 -2 0 -10 -12 -17 -27z" fill="#d4a853"/>
    <path d="M2570 4281 c0 -11 -4 -23 -10 -26 -14 -9 -12 -130 3 -187 11 -44 12 -38 12 92 0 77 -1 140 -2 140 -2 0 -3 -9 -3 -19z" fill="#d4a853"/>
    <path d="M3472 4210 c0 -19 2 -27 5 -17 2 9 2 25 0 35 -3 9 -5 1 -5 -18z" fill="#d4a853"/>
    <path d="M2520 4121 c0 -34 7 -78 15 -98 8 -19 15 -46 15 -59 0 -12 4 -25 9 -29 5 -3 12 -19 16 -35 4 -17 10 -30 15 -30 4 0 11 -15 14 -33 3 -18 17 -44 30 -59 14 -14 22 -28 19 -31 -3 -3 12 -23 33 -45 59 -58 75 -82 68 -94 -4 -6 -3 -8 4 -4 6 3 50 -32 98 -79 48 -47 89 -85 90 -85 2 0 14 -10 27 -22 14 -13 51 -46 83 -74 210 -185 227 -201 218 -215 -4 -8 -3 -9 5 -5 10 6 71 -46 71 -61 0 -9 31 -35 36 -31 12 13 -189 221 -294 303 -145 113 -389 361 -437 443 -11 18 -23 32 -27 32 -4 0 -8 5 -8 11 0 5 -12 35 -26 65 -31 66 -52 147 -61 229 -7 80 -13 83 -13 6z" fill="#d4a853"/>
    <path d="M3472 4075 c0 -16 2 -22 5 -12 2 9 2 23 0 30 -3 6 -5 -1 -5 -18z" fill="#d4a853"/>
    <path d="M2587 3975 c15 -74 163 -315 163 -266 0 6 -4 11 -8 11 -5 0 -21 22 -36 50 -15 27 -33 55 -39 62 -16 16 -43 80 -39 91 1 5 -2 6 -8 2 -5 -3 -10 0 -10 7 -1 7 -7 27 -15 43 l-14 30 6 -30z" fill="#d4a853"/>
    <path d="M2760 3685 c0 -11 91 -105 101 -105 3 0 6 7 6 15 0 8 -4 12 -9 9 -4 -3 -28 16 -53 43 -25 26 -45 43 -45 38z" fill="#d4a853"/>
    <path d="M2945 3500 c10 -11 20 -20 23 -20 3 0 -3 9 -13 20 -10 11 -20 20 -23 20 -3 0 3 -9 13 -20z" fill="#d4a853"/>
    <path d="M2700 3501 c0 -5 5 -13 10 -16 6 -3 10 -2 10 4 0 5 -4 13 -10 16 -5 3 -10 2 -10 -4z" fill="#d4a853"/>
    <path d="M3130 3346 c0 -2 8 -10 18 -17 15 -13 16 -12 3 4 -13 16 -21 21 -21 13z" fill="#d4a853"/>
    <path d="M3017 3279 c7 -7 15 -10 18 -7 3 3 -2 9 -12 12 -14 6 -15 5 -6 -5z" fill="#d4a853"/>
    <path d="M3140 3140 c0 -5 5 -10 11 -10 5 0 7 5 4 10 -3 6 -8 10 -11 10 -2 0 -4 -4 -4 -10z" fill="#d4a853"/>
    <path d="M3155 3110 c3 -5 8 -10 11 -10 2 0 4 5 4 10 0 6 -5 10 -11 10 -5 0 -7 -4 -4 -10z" fill="#d4a853"/>
    <path d="M3180 3105 c0 -5 25 -37 55 -69 30 -33 55 -63 55 -67 0 -4 7 -10 16 -13 19 -7 11 7 -32 54 -18 19 -46 51 -63 70 -17 19 -31 31 -31 25z" fill="#d4a853"/>
    <path d="M3390 3012 c0 -5 9 -18 20 -30 11 -12 36 -52 56 -89 20 -38 33 -55 30 -40 -8 32 -86 167 -98 167 -4 0 -8 -4 -8 -8z" fill="#d4a853"/>
    <path d="M3320 2931 c0 -6 5 -13 10 -16 6 -3 10 1 10 9 0 9 -4 16 -10 16 -5 0 -10 -4 -10 -9z" fill="#d4a853"/>
    <path d="M3350 2890 c0 -5 5 -10 11 -10 5 0 7 5 4 10 -3 6 -8 10 -11 10 -2 0 -4 -4 -4 -10z" fill="#d4a853"/>
    <path d="M3376 2847 c3 -10 9 -15 12 -12 3 3 0 11 -7 18 -10 9 -11 8 -5 -6z" fill="#d4a853"/>
    <path d="M3396 2805 c4 -8 8 -15 10 -15 2 0 4 7 4 15 0 8 -4 15 -10 15 -5 0 -7 -7 -4 -15z" fill="#d4a853"/>
    <path d="M3521 2774 c0 -11 3 -14 6 -6 3 7 2 16 -1 19 -3 4 -6 -2 -5 -13z" fill="#d4a853"/>
    <path d="M3410 2771 c0 -5 7 -22 16 -37 15 -27 15 -27 10 -4 -3 14 -6 31 -6 38 0 6 -4 12 -10 12 -5 0 -10 -4 -10 -9z" fill="#d4a853"/>
    <path d="M3442 2655 c0 -16 3 -52 8 -80 l7 -50 1 55 c0 30 -4 66 -8 80 -8 24 -8 24 -8 -5z" fill="#d4a853"/>
    <path d="M3552 2540 c0 -14 2 -19 5 -12 2 6 2 18 0 25 -3 6 -5 1 -5 -13z" fill="#d4a853"/>
    <path d="M950 4220 c-9 -6 -10 -10 -3 -10 6 0 15 5 18 10 8 12 4 12 -15 0z" fill="#d4a853"/>
    <path d="M4970 3728 c0 -9 7 -19 16 -22 15 -6 15 -4 3 11 -7 10 -15 20 -16 22 -2 2 -3 -3 -3 -11z" fill="#d4a853"/>
    <path d="M4706 3592 c-3 -5 1 -9 9 -9 8 0 12 4 9 9 -3 4 -7 8 -9 8 -2 0 -6 -4 -9 -8z" fill="#d4a853"/>
    <path d="M958 3483 c6 -2 18 -2 25 0 6 3 1 5 -13 5 -14 0 -19 -2 -12 -5z" fill="#d4a853"/>
    <path d="M1860 3640 c-9 -6 -10 -10 -3 -10 6 0 15 5 18 10 8 12 4 12 -15 0z" fill="#d4a853"/>
    <path d="M1670 3539 c0 -5 5 -7 10 -4 6 3 10 8 10 11 0 2 -4 4 -10 4 -5 0 -10 -5 -10 -11z" fill="#d4a853"/>
    <path d="M3719 4693 c-13 -16 -12 -17 4 -4 16 13 21 21 13 21 -2 0 -10 -8 -17 -17z" fill="#d4a853"/>
    <path d="M4939 4686 c-80 -21 -156 -91 -191 -177 -17 -41 -32 -55 -118 -112 -129 -86 -198 -120 -337 -166 -64 -21 -111 -41 -104 -45 6 -4 16 -4 21 -1 6 4 18 1 27 -7 10 -8 14 -8 10 -1 -8 13 6 19 68 28 21 3 42 9 45 14 7 12 50 24 50 14 0 -4 -14 -14 -31 -22 -23 -10 -28 -16 -18 -22 10 -6 8 -9 -8 -11 -13 -1 -36 -3 -53 -5 -16 -2 -41 -5 -55 -6 -14 -1 -25 -6 -25 -10 0 -5 -10 -5 -22 -2 -19 5 -20 4 -8 -5 13 -9 12 -10 -5 -8 -11 1 -34 -6 -50 -18 -17 -11 -42 -26 -58 -34 -19 -9 -24 -16 -15 -21 7 -4 15 -5 18 -1 6 8 91 43 163 66 55 18 164 21 220 5 32 -8 36 -13 27 -25 -19 -21 -3 -80 27 -104 31 -24 89 -26 120 -5 13 9 28 33 34 54 9 31 8 43 -5 70 -25 48 -98 67 -139 36 -16 -11 -25 -11 -59 1 -22 8 -51 14 -64 14 -13 0 -24 5 -24 10 0 6 6 10 14 10 7 0 35 9 61 21 41 18 63 21 166 18 134 -4 156 -14 197 -87 13 -23 43 -61 67 -86 92 -92 206 -116 355 -75 47 12 104 24 128 27 l42 4 -27 32 c-16 18 -37 45 -48 61 -125 179 -293 236 -479 161 -58 -24 -76 -27 -120 -21 -28 4 -91 10 -139 14 l-88 6 98 73 c95 72 99 73 143 67 112 -15 192 -17 232 -6 64 18 132 72 192 155 30 40 62 76 70 79 27 11 17 27 -16 27 -18 1 -60 7 -93 15 -72 18 -134 18 -196 1z m206 -25 c48 -15 55 -20 43 -32 -7 -8 -19 -26 -27 -42 -32 -62 -136 -145 -193 -155 -49 -9 -149 -5 -159 5 -10 10 148 93 176 93 8 0 17 5 21 11 3 6 14 9 23 6 10 -2 18 1 18 9 0 15 -34 10 -76 -12 -14 -8 -30 -14 -34 -14 -4 0 -50 -20 -100 -45 -100 -49 -126 -56 -87 -25 23 18 183 100 196 100 9 0 94 40 94 45 0 2 -15 -1 -32 -6 -18 -6 -43 -12 -55 -15 -12 -2 -44 -16 -70 -29 -26 -14 -53 -23 -61 -20 -7 2 -11 1 -8 -4 6 -10 -24 -25 -32 -16 -3 3 0 5 7 5 7 0 10 4 6 9 -3 6 3 18 13 28 11 10 25 28 31 41 13 24 108 75 123 66 4 -3 8 -1 8 5 0 16 113 11 175 -8z m-665 -401 c-24 -15 -36 -11 -14 4 10 8 21 12 24 10 2 -3 -2 -9 -10 -14z m618 13 c18 -4 21 -8 10 -15 -8 -5 -2 -6 16 -2 20 5 27 4 22 -4 -4 -7 -2 -10 7 -7 17 7 110 -63 101 -76 -3 -5 -1 -8 4 -7 13 4 64 -60 57 -72 -4 -6 -1 -9 7 -8 7 2 12 -5 12 -14 -1 -10 2 -18 8 -18 5 0 6 -5 3 -11 -4 -6 -19 -7 -37 -4 -23 6 -29 4 -23 -5 5 -9 4 -11 -4 -6 -6 4 -17 3 -24 -2 -23 -19 -131 -33 -183 -23 -63 12 -116 35 -107 46 5 4 2 5 -5 1 -15 -9 -45 12 -36 25 3 5 0 9 -6 9 -15 0 -49 41 -50 58 0 7 -4 10 -10 7 -6 -4 -7 1 -3 11 4 12 3 15 -5 10 -7 -4 -12 -2 -12 3 0 13 37 15 44 2 4 -5 29 -12 57 -16 55 -8 103 -28 92 -39 -4 -4 0 -4 9 -1 8 3 31 0 49 -7 19 -8 42 -12 53 -10 22 5 -73 46 -132 57 -20 4 -50 13 -67 20 -16 8 -56 19 -87 25 -32 6 -60 16 -63 21 -10 15 48 10 106 -10 30 -10 70 -21 90 -25 20 -3 65 -18 99 -32 34 -14 67 -23 73 -21 16 5 -79 47 -131 57 -64 12 -83 20 -75 33 3 6 1 7 -6 3 -6 -4 -28 -2 -47 4 l-36 12 28 19 c23 15 46 19 104 18 41 0 86 -3 98 -6z m-457 -151 c19 -37 14 -72 -10 -73 -11 0 -12 -2 -3 -6 9 -3 4 -10 -14 -19 -15 -8 -35 -12 -43 -8 -9 4 -22 8 -29 10 -8 1 -15 4 -15 6 -1 2 -8 13 -14 25 -10 18 -10 25 3 38 8 8 11 15 5 15 -6 0 -11 9 -11 21 0 11 4 17 10 14 5 -3 18 -1 27 4 10 6 32 10 48 8 23 -1 34 -10 46 -35z" fill="#d4a853"/>
    <path d="M5226 4173 c-6 -14 -5 -15 5 -6 7 7 10 15 7 18 -3 3 -9 -2 -12 -12z" fill="#d4a853"/>
    <path d="M4525 4080 c-3 -6 1 -7 9 -4 18 7 21 14 7 14 -6 0 -13 -4 -16 -10z" fill="#d4a853"/>
    <path d="M4545 4060 c-10 -11 -14 -20 -9 -20 5 0 15 9 22 20 7 11 11 20 9 20 -2 0 -12 -9 -22 -20z" fill="#d4a853"/>
    <path d="M4040 4240 c0 -5 5 -10 11 -10 5 0 7 5 4 10 -3 6 -8 10 -11 10 -2 0 -4 -4 -4 -10z" fill="#d4a853"/>
    <path d="M1186 4133 c-4 -9 -3 -20 1 -24 4 -4 9 3 9 17 2 28 -1 31 -10 7z" fill="#d4a853"/>
    <path d="M1377 4079 c7 -7 15 -10 18 -7 3 3 -2 9 -12 12 -14 6 -15 5 -6 -5z" fill="#d4a853"/>
    <path d="M3713 3870 c-35 -14 -27 -29 11 -23 54 8 123 -6 154 -32 18 -15 37 -50 56 -103 54 -156 135 -237 271 -268 127 -29 174 -44 190 -60 9 -9 19 -14 22 -10 12 12 -16 213 -38 271 -16 44 -38 76 -83 121 -94 94 -188 121 -327 93 -45 -9 -65 -8 -109 5 -59 18 -113 20 -147 6z m279 -71 c74 -38 168 -109 267 -203 75 -71 71 -55 -6 30 -13 14 -23 30 -23 35 0 6 -4 8 -10 4 -5 -3 -16 5 -25 19 -9 13 -31 31 -49 40 -41 19 -87 62 -78 72 4 4 1 4 -5 0 -16 -9 -56 17 -45 29 4 4 -2 5 -13 1 -15 -5 -17 -4 -8 5 7 7 36 10 82 7 57 -3 75 -8 97 -28 15 -14 24 -19 20 -12 -9 15 -4 15 28 -1 14 -8 23 -17 19 -20 -3 -4 1 -7 9 -7 31 0 88 -86 113 -171 25 -84 33 -179 15 -179 -5 0 -10 5 -10 10 0 6 -11 10 -24 10 -14 0 -37 5 -52 10 -14 6 -42 12 -62 15 -20 2 -38 8 -41 13 -9 12 -43 24 -36 12 10 -15 -27 2 -73 35 -23 17 -40 36 -37 42 2 7 -1 12 -7 10 -10 -2 -67 87 -66 103 2 27 -4 50 -12 45 -6 -4 -10 5 -10 20 0 18 4 24 13 18 6 -4 17 -8 24 -9 21 -3 178 -121 178 -134 0 -5 4 -12 9 -17 5 -5 6 -3 2 5 -11 19 11 14 26 -5 21 -28 78 -78 78 -68 0 4 -30 38 -68 74 -71 70 -172 142 -259 185 -29 15 -53 31 -53 36 0 11 28 1 92 -31z" fill="#d4a853"/>
    <path d="M2717 3240 c-147 -165 -232 -295 -266 -409 -89 -295 -12 -572 216 -781 80 -73 211 -157 453 -290 246 -135 324 -185 382 -248 118 -126 130 -297 33 -455 -18 -29 -50 -81 -72 -117 -50 -81 -66 -129 -66 -200 -1 -69 32 -144 97 -219 62 -71 77 -103 83 -172 7 -71 23 -68 23 4 0 77 -14 113 -77 206 -54 78 -58 87 -61 151 -4 73 5 101 62 177 35 48 46 53 46 20 0 -12 21 -47 46 -77 58 -69 74 -106 74 -170 0 -32 4 -49 10 -45 15 9 12 106 -4 153 -8 22 -27 58 -41 81 -44 65 -44 114 -1 208 20 44 36 90 36 102 0 12 4 19 10 16 6 -3 10 -20 10 -36 0 -61 55 -141 133 -192 132 -88 176 -167 161 -291 -4 -39 -8 -107 -8 -151 -1 -67 3 -87 23 -122 14 -24 28 -43 33 -43 11 0 11 2 -12 51 -23 51 -25 103 -6 173 12 48 36 75 36 42 0 -9 28 -37 63 -62 70 -51 100 -85 124 -141 15 -33 17 -35 21 -15 5 33 -40 104 -113 175 -66 64 -95 115 -95 165 0 80 -54 168 -156 253 -97 81 -121 129 -130 259 -6 108 -26 179 -55 206 -21 19 -21 18 -18 -1 2 -11 10 -27 18 -35 9 -9 10 -15 3 -18 -8 -2 -6 -11 4 -27 9 -13 13 -29 9 -35 -3 -5 -3 -15 1 -22 4 -6 9 -36 10 -66 4 -58 29 -159 46 -179 6 -7 8 -20 4 -28 -3 -10 -2 -13 5 -10 12 8 49 -23 49 -41 0 -7 6 -11 13 -9 6 3 32 -13 55 -35 27 -25 38 -40 28 -40 -9 0 -16 5 -16 11 0 5 -4 8 -9 4 -6 -3 -13 0 -18 7 -4 7 -27 26 -51 41 -23 15 -40 32 -37 36 2 5 -4 11 -15 14 -23 6 -80 92 -80 122 0 23 -21 75 -31 75 -7 0 -24 -36 -52 -110 -17 -46 -21 -52 -29 -35 -7 16 -7 14 -3 -7 3 -15 -1 -32 -8 -40 -8 -7 -13 -30 -12 -51 0 -21 -3 -41 -7 -43 -4 -3 -8 -1 -8 4 0 6 -7 12 -15 16 -18 7 -59 -32 -85 -82 -11 -20 -20 -32 -21 -27 -1 6 -7 -8 -14 -30 -8 -25 -14 -32 -14 -19 -2 41 36 137 50 128 5 -3 6 2 3 10 -3 9 -1 16 5 16 6 0 11 4 11 10 0 5 15 31 34 58 19 26 43 70 54 97 10 28 22 59 27 70 4 11 9 25 10 30 1 6 3 12 4 15 8 17 7 120 0 120 -5 0 -9 7 -9 16 0 23 -45 110 -80 154 -16 20 -27 40 -25 44 3 3 2 4 -2 1 -3 -3 -16 4 -27 14 -12 11 -48 36 -80 55 -33 20 -56 36 -50 36 5 1 -12 10 -38 22 -26 11 -45 24 -42 29 3 5 -1 6 -9 3 -8 -3 -18 -1 -22 5 -3 6 -15 11 -26 11 -11 0 -22 7 -25 15 -4 8 -10 13 -14 10 -4 -2 -15 4 -25 15 -10 11 -23 20 -28 20 -5 0 -16 8 -23 18 -8 11 -13 12 -14 4 0 -9 -8 -8 -27 5 -16 10 -31 21 -34 26 -3 5 -10 9 -15 9 -21 2 -74 29 -74 38 0 6 -6 10 -14 10 -8 0 -28 11 -44 25 -17 14 -35 25 -42 25 -6 0 -9 4 -6 9 3 5 -2 8 -11 7 -10 0 -18 4 -18 9 -1 18 -15 34 -28 30 -16 -6 -53 26 -61 53 -4 12 -12 20 -17 17 -11 -8 -70 36 -63 47 3 4 -2 8 -10 8 -9 0 -16 5 -16 11 0 5 5 7 12 3 7 -4 8 -3 4 4 -4 7 -12 12 -18 12 -12 0 -53 49 -54 65 -1 24 -16 54 -25 52 -10 -2 -24 29 -58 133 -20 60 -37 169 -21 135 6 -14 7 -5 4 30 -3 28 -7 56 -10 63 -2 7 -1 33 3 58 4 32 9 41 15 32 6 -9 7 -6 3 9 -8 27 35 154 48 146 6 -4 8 0 4 10 -7 19 24 86 58 123 13 14 27 35 30 45 4 11 11 17 16 14 5 -4 9 0 9 8 0 8 8 23 18 35 9 11 22 29 29 39 10 16 13 16 22 3 10 -13 11 -13 12 0 1 8 2 22 3 30 0 8 7 14 14 13 6 -2 11 3 10 10 -2 6 2 11 9 10 7 -2 10 4 7 12 -5 11 -2 13 12 8 12 -5 15 -3 9 6 -7 12 9 30 26 31 9 0 49 -36 49 -44 0 -4 6 -14 14 -22 11 -11 16 -11 19 -1 3 7 6 4 6 -6 1 -10 6 -15 11 -12 14 9 12 -8 -2 -24 -11 -11 -9 -12 7 -3 17 9 21 7 21 -8 0 -11 -5 -16 -15 -12 -9 3 -12 1 -7 -6 4 -7 2 -12 -3 -12 -6 0 -11 -6 -11 -13 0 -8 -18 -33 -40 -56 -22 -23 -40 -45 -40 -50 0 -4 -9 -16 -20 -26 -11 -10 -20 -23 -20 -29 0 -6 -10 -27 -23 -46 -32 -48 -78 -194 -81 -255 -3 -83 12 -170 40 -242 15 -38 30 -70 33 -73 3 -3 17 -21 30 -40 14 -19 31 -39 38 -43 7 -5 11 -12 8 -18 -4 -5 -1 -9 5 -9 6 0 8 -5 5 -10 -8 -13 14 -42 26 -35 4 3 18 -2 29 -12 12 -10 34 -28 48 -40 15 -13 31 -23 35 -23 5 0 5 -5 2 -10 -4 -6 -3 -9 2 -8 12 4 93 -64 87 -73 -4 -8 6 -10 31 -9 3 1 12 -5 19 -12 7 -7 29 -24 49 -38 20 -14 37 -28 37 -32 0 -5 6 -8 13 -8 18 -1 88 -56 80 -64 -4 -4 1 -4 11 0 14 5 17 4 12 -4 -4 -7 -1 -12 7 -12 7 0 29 -13 47 -30 18 -16 38 -30 42 -30 5 0 6 -5 2 -12 -4 -7 -3 -8 4 -4 14 8 105 -47 95 -58 -5 -4 -3 -7 2 -6 21 5 36 0 30 -10 -3 -5 0 -10 7 -10 8 0 28 -10 46 -23 25 -19 29 -26 19 -37 -7 -8 -8 -11 -1 -7 12 7 75 -11 84 -23 3 -4 38 -20 79 -37 40 -17 69 -33 65 -35 -5 -3 -4 -4 3 -2 6 1 35 -4 65 -11 29 -8 69 -17 88 -20 48 -9 230 -12 230 -3 0 4 8 7 18 7 9 0 65 3 123 7 181 11 307 -35 452 -167 16 -15 17 -17 2 -23 -12 -4 -18 0 -22 13 -3 11 -18 24 -35 30 -19 7 -27 15 -22 22 5 9 2 10 -10 6 -10 -4 -19 -1 -22 8 -4 8 -12 15 -20 15 -8 0 -14 4 -14 10 0 5 -8 9 -17 8 -34 -3 -54 2 -48 11 3 5 0 13 -6 17 -8 4 -9 3 -5 -4 9 -15 -26 -16 -41 -1 -25 25 -195 27 -303 3 -80 -18 -164 -25 -203 -16 -31 6 -44 6 -44 -2 0 -7 7 -13 16 -14 89 -13 134 -12 218 3 68 12 129 16 207 13 103 -4 116 -7 187 -42 143 -70 264 -195 348 -357 26 -51 101 -127 147 -148 64 -30 81 -20 19 11 -68 35 -86 57 -140 170 -45 95 -65 123 -65 96 -1 -8 -6 -6 -15 6 -8 10 -12 23 -8 29 3 6 1 7 -5 3 -6 -4 -19 6 -29 21 -10 15 -28 36 -40 46 -24 20 -30 37 -12 37 5 0 7 -5 3 -12 -5 -8 -2 -9 12 -4 10 4 15 4 12 1 -4 -4 15 -26 42 -50 27 -24 46 -47 42 -51 -4 -4 1 -4 11 -1 11 4 16 3 12 -3 -9 -15 49 -36 147 -53 63 -11 106 -26 152 -51 74 -41 87 -45 60 -15 -29 32 -103 66 -206 95 -132 38 -154 52 -265 162 -121 120 -212 172 -348 198 -84 17 -96 17 -244 0 -179 -20 -278 -13 -397 28 -92 31 -137 55 -274 144 -177 115 -222 146 -410 284 -343 251 -438 358 -475 535 -18 86 -18 130 0 218 25 121 106 258 227 388 l45 48 -70 67 c-39 37 -77 75 -86 85 -8 9 -18 17 -21 16 -3 0 -40 -40 -83 -89z m-173 -996 c3 -8 2 -12 -4 -9 -6 3 -10 10 -10 16 0 14 7 11 14 -7z m306 -44 c0 -5 -2 -10 -4 -10 -3 0 -8 5 -11 10 -3 6 -1 10 4 10 6 0 11 -4 11 -10z m1160 -1360 c32 -62 23 -71 -10 -11 -17 30 -30 56 -30 58 0 13 23 -14 40 -47z m27 -92 c-3 -8 -6 -5 -6 6 -1 11 2 17 5 13 3 -3 4 -12 1 -19z m7 -118 c-12 -12 -14 -12 -14 2 0 8 3 31 7 49 l7 34 7 -35 c6 -25 4 -39 -7 -50z m-570 -36 c3 -8 2 -12 -4 -9 -6 3 -10 10 -10 16 0 14 7 11 14 -7z" fill="#d4a853"/>
    <path d="M3651 2814 c0 -11 3 -14 6 -6 3 7 2 16 -1 19 -3 4 -6 -2 -5 -13z" fill="#d4a853"/>
    <path d="M2740 2212 c0 -4 10 -13 23 -21 22 -14 22 -14 3 8 -20 22 -26 25 -26 13z" fill="#d4a853"/>
    <path d="M2600 2180 c0 -5 5 -10 10 -10 6 0 10 5 10 10 0 6 -4 10 -10 10 -5 0 -10 -4 -10 -10z" fill="#d4a853"/>
    <path d="M2790 2174 c0 -11 40 -47 46 -41 2 2 -7 14 -21 27 -14 13 -25 19 -25 14z" fill="#d4a853"/>
    <path d="M2870 2101 c0 -6 4 -13 10 -16 6 -3 7 1 4 9 -7 18 -14 21 -14 7z" fill="#d4a853"/>
    <path d="M2960 2032 c0 -10 70 -45 77 -38 3 2 -13 14 -36 26 -23 11 -41 17 -41 12z" fill="#d4a853"/>
    <path d="M3040 1976 c0 -2 7 -7 16 -10 8 -3 12 -2 9 4 -6 10 -25 14 -25 6z" fill="#d4a853"/>
    <path d="M2747 1933 c-18 -17 -122 -45 -207 -54 -761 -85 -1246 -192 -1655 -366 -120 -51 -284 -136 -279 -144 3 -5 35 6 72 25 225 112 819 252 1307 306 173 19 371 39 463 45 69 5 98 12 115 26 l22 19 -35 -5 c-47 -7 -307 -34 -399 -42 -55 -5 -72 -3 -67 5 5 8 2 10 -8 6 -9 -3 -14 -10 -11 -14 3 -5 -30 -10 -72 -13 -43 -2 -96 -9 -118 -15 -35 -10 -101 -19 -253 -36 -23 -3 -45 -7 -50 -9 -15 -10 -88 -21 -131 -20 -30 0 -39 -2 -30 -9 10 -7 4 -8 -18 -4 -18 3 -35 1 -38 -4 -7 -12 -25 -13 -25 -2 0 4 21 15 47 24 37 13 50 14 62 5 10 -8 13 -9 8 0 -9 14 37 30 80 27 20 -1 30 2 26 9 -4 6 4 8 21 5 14 -3 26 -2 26 3 0 7 24 14 80 24 14 2 53 9 88 15 34 6 66 8 71 5 5 -3 11 -1 13 4 3 10 25 15 128 31 36 5 99 14 140 20 153 23 197 29 275 35 44 3 91 8 105 11 14 2 45 6 70 9 68 8 100 16 148 36 40 17 45 18 67 3 14 -9 22 -20 19 -25 -3 -5 2 -6 10 -3 9 3 16 1 16 -6 0 -6 5 -8 10 -5 6 3 10 2 10 -3 0 -5 10 -12 21 -15 15 -4 20 -11 15 -23 -5 -14 -4 -15 8 -5 8 7 20 10 27 6 8 -6 7 -10 -2 -17 -10 -6 -7 -7 9 -3 13 4 22 2 22 -5 0 -6 4 -9 9 -6 5 3 14 -1 21 -9 7 -8 16 -12 21 -9 5 3 9 1 9 -5 0 -5 9 -13 20 -16 11 -4 18 -11 15 -16 -3 -5 2 -6 11 -2 13 5 15 3 9 -7 -6 -10 -4 -12 7 -7 22 8 30 -3 15 -22 -10 -14 -10 -14 3 -4 12 9 25 5 65 -22 28 -19 50 -38 50 -44 0 -5 13 -21 28 -35 19 -18 27 -32 22 -44 -3 -9 -3 -13 1 -9 9 9 45 -43 38 -55 -3 -4 1 -20 9 -35 15 -29 23 -198 10 -190 -5 3 -9 -5 -9 -16 -2 -37 -13 -68 -31 -96 -10 -14 -17 -29 -16 -32 1 -4 -7 -15 -19 -25 -20 -18 -21 -18 -15 -1 4 11 3 16 -4 12 -6 -4 -8 -13 -5 -21 8 -21 -108 -149 -125 -138 -4 2 -10 0 -14 -5 -8 -15 -55 29 -48 45 3 8 9 11 14 8 5 -3 9 0 9 5 0 16 42 61 51 55 4 -2 11 1 15 7 4 8 3 9 -4 5 -22 -14 -11 9 18 38 17 16 30 38 30 48 0 13 4 17 13 12 6 -4 9 -4 5 0 -3 4 1 27 11 49 30 70 32 173 5 253 -12 38 -23 65 -23 59 -1 -5 -10 5 -22 24 -24 40 -116 131 -124 123 -3 -3 -5 -1 -5 5 0 17 -46 24 -77 11 -15 -6 -32 -10 -36 -9 -5 1 -5 -4 -1 -10 5 -9 2 -10 -10 -6 -9 4 -15 3 -12 -2 3 -4 -12 -21 -33 -36 -34 -26 -88 -94 -82 -104 2 -2 -1 -7 -6 -10 -22 -16 -44 -88 -44 -146 -1 -75 10 -155 21 -155 9 0 23 -35 24 -56 1 -7 13 -24 28 -39 15 -15 25 -32 21 -38 -3 -6 -1 -7 5 -3 7 4 12 1 12 -8 0 -9 4 -15 8 -13 12 3 152 -140 144 -148 -4 -4 0 -5 8 -3 9 2 14 -3 12 -12 -2 -8 -1 -12 3 -8 10 9 45 -24 38 -35 -3 -6 -2 -8 3 -5 5 3 15 0 22 -8 7 -8 10 -14 7 -14 -3 0 10 -14 29 -30 33 -29 85 -107 94 -140 3 -8 6 -50 8 -92 2 -55 -1 -78 -9 -78 -7 0 -13 18 -15 41 -1 23 -7 50 -13 61 -6 11 -8 26 -5 33 2 7 -2 16 -10 19 -8 3 -14 12 -14 19 0 8 -12 26 -26 40 -14 14 -23 31 -19 37 4 6 3 9 -2 8 -12 -4 -73 48 -73 61 0 6 5 11 12 11 6 0 8 3 5 6 -4 4 -12 2 -20 -4 -10 -8 -16 -6 -25 9 -7 10 -18 19 -26 19 -8 0 -16 7 -20 15 -5 13 -2 14 15 4 11 -6 24 -8 27 -4 3 3 -4 8 -16 12 -12 3 -19 10 -15 16 4 6 1 7 -7 2 -7 -4 -16 -2 -22 6 -8 11 -9 10 -4 -3 3 -12 -13 -3 -47 23 -68 54 -117 97 -117 103 0 3 -17 23 -39 46 -86 90 -131 231 -110 345 10 58 56 148 70 139 4 -2 10 0 14 6 3 5 1 10 -5 10 -6 0 -8 5 -5 10 4 6 11 7 17 4 6 -4 8 -2 5 3 -8 13 70 96 82 88 9 -5 21 17 21 41 0 11 -4 10 -18 -3 -11 -10 -40 -35 -65 -56 -120 -98 -173 -262 -133 -412 33 -126 120 -233 296 -362 84 -61 218 -206 241 -261 50 -114 29 -229 -66 -371 -31 -46 -54 -88 -53 -93 5 -15 176 206 200 258 18 39 22 67 22 139 0 79 -3 97 -28 145 -39 76 -84 129 -206 245 -166 158 -215 223 -246 324 -19 63 -18 107 6 184 24 76 90 157 169 205 l48 30 34 -26 c100 -75 149 -148 170 -250 12 -56 11 -72 -4 -129 -22 -84 -65 -159 -135 -234 l-55 -60 47 -47 47 -47 87 91 c143 150 188 248 180 395 -4 62 -12 91 -41 154 -57 118 -128 181 -348 303 -20 11 -73 43 -117 71 -89 55 -86 54 -95 44z m-1437 -312 c-20 -11 -154 -41 -145 -33 11 11 108 41 135 41 19 0 21 -2 10 -8z m1887 -1198 c-9 -21 -13 -23 -15 -9 -5 24 6 49 18 41 6 -3 5 -16 -3 -32z" fill="#d4a853"/>
    <path d="M3127 1929 c7 -7 15 -10 18 -7 3 3 -2 9 -12 12 -14 6 -15 5 -6 -5z" fill="#d4a853"/>
    <path d="M3290 1923 c1 -16 218 -155 256 -163 21 -6 156 -21 299 -35 279 -27 656 -76 770 -100 39 -8 88 -17 110 -21 191 -29 577 -142 723 -210 60 -29 96 -27 42 1 -276 147 -619 260 -1043 345 -169 34 -573 89 -887 120 -114 12 -170 24 -224 51 -45 22 -46 22 -46 12z m315 -94 c65 -6 144 -15 175 -21 89 -16 92 -16 160 -17 36 -1 60 -5 54 -9 -7 -4 18 -8 55 -9 36 -1 86 -7 111 -13 25 -7 77 -16 115 -20 39 -5 90 -13 115 -18 25 -6 63 -13 85 -16 22 -4 54 -11 71 -17 18 -5 36 -9 40 -8 15 4 128 -23 141 -33 7 -5 17 -7 23 -3 5 3 10 1 10 -6 0 -13 -51 -8 -200 21 -52 10 -126 21 -165 25 -38 3 -122 16 -185 27 -63 12 -137 20 -163 19 -27 0 -46 3 -43 7 3 5 -8 6 -24 4 -16 -2 -91 3 -167 11 -76 9 -168 19 -205 22 -37 4 -70 11 -74 16 -3 5 -10 7 -15 3 -9 -5 -89 42 -89 53 0 3 12 2 28 -1 15 -3 81 -10 147 -17z m1302 -224 c61 -22 1 -18 -77 5 l-65 20 52 -5 c28 -3 69 -12 90 -20z" fill="#d4a853"/>
    <path d="M4300 1726 c0 -2 7 -7 16 -10 8 -3 12 -2 9 4 -6 10 -25 14 -25 6z" fill="#d4a853"/>
    <path d="M4380 1706 c0 -2 7 -7 16 -10 8 -3 12 -2 9 4 -6 10 -25 14 -25 6z" fill="#d4a853"/>
    <path d="M4648 1653 c6 -2 18 -2 25 0 6 3 1 5 -13 5 -14 0 -19 -2 -12 -5z" fill="#d4a853"/>
    <path d="M3168 1893 c6 -2 18 -2 25 0 6 3 1 5 -13 5 -14 0 -19 -2 -12 -5z" fill="#d4a853"/>
    <path d="M3206 1882 c-2 -4 4 -8 14 -8 10 0 16 4 14 8 -3 4 -9 8 -14 8 -5 0 -11 -4 -14 -8z" fill="#d4a853"/>
    <path d="M3218 1853 c7 -3 16 -2 19 1 4 3 -2 6 -13 5 -11 0 -14 -3 -6 -6z" fill="#d4a853"/>
    <path d="M2575 1748 c-336 -215 -395 -234 -672 -223 -286 11 -380 -22 -563 -201 -93 -91 -166 -132 -275 -154 -60 -12 -194 -73 -207 -94 -17 -26 -5 -23 52 10 45 28 84 41 167 56 59 11 118 25 130 31 23 11 46 2 27 -11 -6 -4 -29 -43 -53 -87 -53 -100 -80 -128 -158 -167 -35 -17 -63 -35 -63 -39 0 -13 4 -12 73 19 76 35 131 89 204 201 76 118 114 161 191 224 134 108 243 137 450 119 70 -7 137 -9 150 -6 34 10 26 -13 -11 -31 -18 -8 -50 -35 -70 -60 -48 -57 -102 -88 -202 -115 -101 -27 -196 -87 -226 -142 -14 -25 -7 -22 32 12 62 56 111 79 194 91 44 6 87 15 97 20 32 17 38 9 18 -28 -11 -21 -20 -44 -20 -51 0 -28 -41 -91 -81 -126 -46 -39 -144 -80 -230 -95 -105 -19 -275 -105 -334 -171 -26 -29 -6 -24 40 10 67 49 176 97 250 109 39 7 81 20 95 29 14 9 42 22 64 29 37 11 38 11 19 -6 -27 -26 -68 -47 -58 -31 5 8 3 11 -4 9 -7 -3 -11 -7 -9 -11 2 -3 -9 -15 -23 -27 -15 -11 -45 -56 -68 -100 -23 -44 -61 -100 -86 -126 -50 -51 -55 -61 -24 -45 40 22 70 55 129 140 73 108 110 144 180 177 61 30 125 75 155 112 11 13 34 58 51 100 68 171 143 243 355 340 25 12 48 21 51 21 3 0 -6 -22 -19 -48 -17 -35 -26 -76 -33 -155 -9 -103 -28 -169 -62 -207 -7 -8 -42 -39 -77 -68 -100 -82 -134 -137 -153 -242 -14 -79 -35 -116 -98 -169 -57 -48 -123 -142 -118 -168 3 -14 8 -11 22 15 26 49 81 107 136 142 26 17 51 37 54 45 10 27 24 15 26 -22 7 -99 3 -140 -19 -181 -28 -54 -22 -79 8 -32 46 75 56 131 43 245 -10 91 -9 111 5 156 19 57 83 135 141 171 59 36 111 88 124 125 12 34 28 44 28 18 0 -9 9 -33 20 -55 12 -23 20 -59 20 -88 0 -41 -7 -59 -39 -106 -45 -66 -67 -153 -52 -201 l9 -30 1 40 c2 53 31 116 81 172 22 26 44 60 48 76 l8 31 42 -63 c73 -110 72 -187 -6 -305 -59 -90 -74 -135 -70 -209 4 -65 19 -59 22 8 3 58 23 101 78 167 54 65 79 127 79 197 1 81 -13 125 -66 206 -25 39 -62 104 -83 145 -35 71 -37 80 -37 170 0 88 3 101 33 162 43 89 120 157 263 237 130 73 124 69 116 77 -3 4 -21 -3 -39 -14 -18 -11 -42 -22 -53 -24 -11 -1 -22 -5 -25 -9 -13 -14 -79 -49 -93 -49 -8 0 -18 -7 -21 -16 -4 -9 -9 -14 -12 -11 -3 3 -25 -12 -47 -34 -23 -21 -45 -39 -50 -39 -4 0 -6 -3 -4 -7 3 -5 -1 -14 -9 -21 -8 -7 -14 -9 -14 -5 0 4 -13 -19 -27 -52 -15 -33 -30 -62 -33 -65 -19 -18 -17 -285 3 -273 4 2 7 -3 7 -11 0 -9 5 -16 10 -16 6 0 10 -7 10 -15 0 -8 11 -31 25 -51 14 -20 22 -41 18 -48 -3 -6 -3 -8 2 -4 5 5 18 -7 30 -25 32 -47 55 -97 45 -97 -5 0 -12 10 -15 23 -7 23 -81 97 -96 97 -5 0 -9 -5 -9 -11 0 -5 5 -7 12 -3 7 4 8 3 4 -4 -16 -27 -27 -10 -23 38 3 27 1 48 -3 45 -4 -3 -14 10 -21 28 -25 62 -39 78 -60 66 -10 -5 -19 -16 -19 -24 0 -8 -4 -15 -9 -15 -5 0 -13 -9 -16 -20 -3 -11 -12 -20 -18 -20 -7 0 -18 -9 -24 -20 -7 -10 -23 -24 -35 -31 -13 -6 -5 6 19 29 23 22 39 42 36 46 -4 3 -1 6 5 6 7 0 12 7 12 16 0 9 5 12 12 8 6 -4 8 -3 5 3 -4 6 -2 25 3 43 5 19 10 68 11 109 1 42 5 85 10 96 20 50 41 136 35 142 -8 8 -113 -24 -145 -46 -14 -9 -34 -15 -45 -14 -12 2 -15 0 -7 -3 8 -4 -4 -16 -35 -35 -26 -15 -52 -25 -56 -23 -4 3 -12 -5 -17 -18 -5 -13 -19 -32 -31 -43 -12 -11 -33 -39 -47 -62 -14 -24 -30 -40 -35 -36 -7 3 -8 1 -4 -6 4 -6 2 -18 -4 -26 -6 -8 -9 -19 -5 -25 3 -5 2 -10 -3 -10 -5 0 -15 -20 -21 -45 -11 -42 -70 -124 -71 -98 0 7 9 17 20 23 11 6 19 14 19 18 -4 23 2 42 12 37 6 -4 9 -1 8 6 -1 8 0 21 4 29 18 48 26 89 23 118 -3 21 0 32 8 32 7 0 21 9 31 20 10 11 22 17 26 14 5 -3 6 3 2 12 -5 14 -3 16 11 11 14 -6 17 -3 12 8 -4 10 5 22 27 35 17 11 29 20 25 20 -4 0 4 11 18 25 41 41 21 51 -116 60 -66 4 -122 11 -125 15 -3 5 -16 5 -29 0 -13 -5 -29 -4 -37 1 -19 12 -32 11 -23 -2 4 -8 -7 -10 -39 -8 -25 2 -43 1 -40 -3 2 -5 -3 -8 -12 -8 -9 0 -27 -7 -40 -16 -13 -9 -28 -13 -34 -10 -5 3 -11 3 -13 -2 -3 -9 -98 -65 -98 -59 0 2 -35 -30 -78 -72 -42 -42 -76 -79 -75 -82 6 -13 -28 -32 -38 -22 -7 7 8 24 45 54 30 24 55 47 56 51 0 7 63 69 104 105 8 7 21 10 28 8 8 -3 22 2 33 10 19 15 19 16 -3 5 -13 -7 -26 -9 -29 -6 -3 3 20 18 52 32 99 46 175 59 300 54 176 -8 271 -4 350 13 43 10 82 21 85 25 7 11 93 48 103 44 5 -1 6 1 3 6 -5 8 63 48 89 53 6 1 16 10 23 20 7 11 20 19 28 19 8 0 14 5 14 12 0 6 3 9 6 6 3 -3 22 9 42 28 42 38 41 49 -3 22z m-820 -798 c-10 -11 -23 -20 -29 -20 -6 0 0 9 14 20 32 25 38 25 15 0z m380 0 c-3 -5 -16 -15 -28 -21 -22 -12 -22 -12 -3 10 19 21 43 30 31 11z m-104 -113 c-10 -9 -11 -8 -5 6 3 10 9 15 12 12 3 -3 0 -11 -7 -18z m-41 -178 c0 -16 -4 -28 -9 -25 -8 5 -3 56 5 56 2 0 4 -14 4 -31z" fill="#d4a853"/>
    <path d="M2760 1740 c8 -5 20 -10 25 -10 6 0 3 5 -5 10 -8 5 -19 10 -25 10 -5 0 -3 -5 5 -10z" fill="#d4a853"/>
    <path d="M1758 1703 c7 -3 16 -2 19 1 4 3 -2 6 -13 5 -11 0 -14 -3 -6 -6z" fill="#d4a853"/>
    <path d="M2570 1700 c-9 -6 -10 -10 -3 -10 6 0 15 5 18 10 8 12 4 12 -15 0z" fill="#d4a853"/>
    <path d="M1658 1573 c7 -3 16 -2 19 1 4 3 -2 6 -13 5 -11 0 -14 -3 -6 -6z" fill="#d4a853"/>
    <path d="M3745 1460 c17 -11 67 -39 112 -61 82 -40 166 -100 210 -148 41 -46 90 -135 102 -186 26 -108 34 -132 58 -187 14 -32 30 -58 34 -58 13 0 11 12 -10 56 -22 47 -36 114 -23 114 6 0 12 -7 15 -15 8 -19 71 -58 132 -80 96 -35 128 -65 204 -182 48 -75 124 -153 137 -140 3 3 -13 23 -35 45 -24 23 -55 72 -75 116 -19 42 -47 87 -62 101 -15 14 -25 27 -22 30 2 3 39 -2 82 -10 88 -17 152 -46 242 -110 34 -24 64 -42 67 -38 10 10 -124 111 -190 143 -33 17 -92 37 -130 46 -239 56 -291 88 -356 221 -22 46 -44 83 -50 83 -5 0 -6 -8 -2 -17 4 -10 9 -25 10 -33 3 -19 17 -53 24 -60 3 -3 15 -21 26 -40 23 -42 51 -70 87 -89 15 -8 25 -18 22 -22 -6 -11 -94 43 -94 58 0 6 -11 10 -24 9 -21 -3 -26 3 -35 37 -5 23 -7 45 -4 50 4 6 1 7 -7 2 -10 -6 -12 -4 -7 8 3 10 2 17 -2 17 -5 0 -14 14 -20 32 -6 17 -29 55 -50 83 -31 40 -37 55 -28 64 9 9 8 11 -6 5 -13 -5 -28 3 -53 27 -19 18 -34 29 -34 24 0 -4 -8 -1 -17 7 -29 25 -216 118 -238 118 -17 0 -15 -3 10 -20z m642 -536 c-3 -3 -12 -4 -19 -1 -8 3 -5 6 6 6 11 1 17 -2 13 -5z m97 -25 c25 -7 35 -14 29 -20 -12 -12 -65 -1 -58 11 3 5 -3 11 -12 13 -10 3 -13 5 -8 6 6 0 27 -4 49 -10z" fill="#d4a853"/>
    <path d="M4556 1457 c3 -10 9 -15 12 -12 3 3 0 11 -7 18 -10 9 -11 8 -5 -6z" fill="#d4a853"/>
    <path d="M3683 1445 c0 -8 4 -12 9 -9 5 3 6 10 3 15 -9 13 -12 11 -12 -6z" fill="#d4a853"/>
    <path d="M4021 1379 c5 -10 14 -19 20 -19 5 0 32 -21 60 -46 27 -26 71 -58 97 -71 43 -22 35 -27 -13 -7 -18 7 -18 6 -5 -7 31 -31 63 -40 173 -48 129 -8 176 -26 245 -92 52 -50 56 -34 5 23 -47 52 -155 105 -231 113 -127 14 -181 38 -274 121 -54 47 -94 65 -77 33z" fill="#d4a853"/>
    <path d="M2050 1380 c-8 -5 -10 -10 -5 -10 6 0 17 5 25 10 8 5 11 10 5 10 -5 0 -17 -5 -25 -10z" fill="#d4a853"/>
    <path d="M3249 1338 c4 -28 6 -29 9 -9 2 13 0 27 -5 32 -6 6 -7 -3 -4 -23z" fill="#d4a853"/>
    <path d="M4034 1335 c8 -8 18 -15 22 -15 3 0 1 7 -6 15 -7 8 -17 15 -22 15 -5 0 -3 -7 6 -15z" fill="#d4a853"/>
    <path d="M4110 1256 c0 -4 5 -12 10 -19 6 -7 19 -23 31 -37 l20 -25 -18 33 c-18 33 -43 61 -43 48z" fill="#d4a853"/>
    <path d="M3230 1239 c0 -5 5 -7 10 -4 6 3 10 8 10 11 0 2 -4 4 -10 4 -5 0 -10 -5 -10 -11z" fill="#d4a853"/>
    <path d="M2301 1214 c0 -11 3 -14 6 -6 3 7 2 16 -1 19 -3 4 -6 -2 -5 -13z" fill="#d4a853"/>
    <path d="M3190 1138 c-12 -22 -12 -22 6 -6 10 10 15 20 12 24 -4 3 -12 -5 -18 -18z" fill="#d4a853"/>
    <path d="M2007 947 c-3 -8 1 -14 8 -14 7 0 11 6 8 14 -3 7 -6 13 -8 13 -2 0 -5 -6 -8 -13z" fill="#d4a853"/>
    <path d="M2821 774 c-94 -143 -102 -281 -24 -412 20 -33 61 -91 92 -130 31 -38 61 -78 68 -88 11 -18 12 -18 12 -1 1 10 -12 38 -28 61 -81 117 -117 224 -108 315 8 75 26 116 85 193 l49 63 -48 38 -48 37 -50 -76z m94 -2 c-3 -7 -5 -20 -5 -29 0 -10 -6 -13 -16 -9 -8 3 -12 2 -9 -4 6 -10 -29 -66 -53 -85 -7 -6 -12 -15 -11 -20 2 -6 -3 -36 -10 -68 -7 -32 -10 -75 -6 -97 4 -23 3 -40 -3 -40 -34 0 -39 188 -7 255 10 22 23 43 28 46 5 3 8 9 8 13 -3 23 2 27 9 9 5 -13 15 -23 22 -22 10 0 10 2 1 6 -16 6 -16 25 -2 57 10 21 14 23 36 13 14 -6 22 -16 18 -25z m-95 -383 c0 -6 -4 -7 -10 -4 -5 3 -10 11 -10 16 0 6 5 7 10 4 6 -3 10 -11 10 -16z" fill="#d4a853"/>
    <path d="M3076 757 c3 -10 9 -15 12 -12 3 3 0 11 -7 18 -10 9 -11 8 -5 -6z" fill="#d4a853"/>
    <path d="M3150 657 c0 -9 4 -18 9 -21 5 -4 8 1 7 9 -3 21 -16 31 -16 12z" fill="#d4a853"/>
    <path d="M3184 593 c1 -19 5 -28 10 -23 6 6 5 18 -1 32 -10 21 -10 21 -9 -9z" fill="#d4a853"/>
  </g>
</svg>
