<svg width="716" height="284" viewBox="0 0 716 284" fill="none" xmlns="http://www.w3.org/2000/svg">
<path fill-rule="evenodd" clip-rule="evenodd" d="M291.226 50.5033C327.31 50.5033 356.562 80.2436 356.562 116.93V155.126C356.562 191.812 327.31 221.552 291.226 221.552C285.558 221.552 280.059 220.819 274.815 219.439L274.815 223.948C274.815 250.786 253.313 272.593 226.624 273.027L225.813 273.033V126.894L225.888 126.892L225.89 116.93C225.89 80.2436 255.142 50.5033 291.226 50.5033ZM583.816 50.5033C619.921 50.5033 649.19 80.4136 649.19 117.31V155.724C649.19 192.62 619.921 222.53 583.816 222.53C547.711 222.53 518.442 192.62 518.442 155.724V117.31C518.442 80.4136 547.711 50.5033 583.816 50.5033ZM437.502 47.3468C473.607 47.3468 502.876 77.2571 502.876 114.153V152.567C502.876 189.463 473.607 219.374 437.502 219.374C401.397 219.374 372.128 189.463 372.128 152.567V114.153C372.128 77.2571 401.397 47.3468 437.502 47.3468ZM714.565 0V169.48C714.565 196.76 692.708 218.926 665.579 219.367L664.756 219.374V49.8933C664.756 22.338 687.056 0 714.565 0ZM583.816 100.608C574.79 100.608 567.472 108.086 567.472 117.31V155.724C567.472 164.948 574.79 172.425 583.816 172.425C592.842 172.425 600.16 164.948 600.16 155.724V117.31C600.16 108.086 592.842 100.608 583.816 100.608ZM291.226 100.323C282.205 100.323 274.892 107.758 274.892 116.93V155.126C274.892 164.297 282.205 171.732 291.226 171.732C300.247 171.732 307.56 164.297 307.56 155.126V116.93C307.56 107.758 300.247 100.323 291.226 100.323ZM437.502 97.4517C428.476 97.4517 421.158 104.929 421.158 114.153V152.567C421.158 161.791 428.476 169.269 437.502 169.269C446.528 169.269 453.845 161.791 453.845 152.567V114.153C453.845 104.929 446.528 97.4517 437.502 97.4517Z" fill="#9391F7"/>
<path d="M150.342 59.0848C150.294 64.5697 123.755 68.7848 91.0653 68.4995C58.3754 68.2142 31.1194 63.5227 31.1673 58.0378C31.2152 52.553 58.5488 48.3517 91.2387 48.637C123.929 48.9223 150.39 53.5999 150.342 59.0848Z" fill="#FFD469"/>
<path d="M133.184 78.6368C136.105 78.6368 136.626 78.6368 141.923 76.7831C141.266 80.3072 137.812 107.016 136.626 111.208C133.458 122.409 129.879 139.718 125.24 143.064C124.358 143.699 120.473 143.064 119.027 142.132C117.581 141.2 122.592 131.598 128.682 111.208C132.125 89.229 131.066 79.696 133.184 78.6368Z" fill="#FFCC4E"/>
<path d="M97.5418 138.533C112.461 138.533 124.556 126.438 124.556 111.518C124.556 96.5987 112.461 84.5039 97.5418 84.5039C82.6221 84.5039 70.5273 96.5987 70.5273 111.518C70.5273 126.438 82.6221 138.533 97.5418 138.533Z" fill="#9391F7"/>
<path d="M168.149 138.533C183.069 138.533 195.164 126.438 195.164 111.518C195.164 96.5987 183.069 84.5039 168.149 84.5039C153.23 84.5039 141.135 96.5987 141.135 111.518C141.135 126.438 153.23 138.533 168.149 138.533Z" fill="#9391F7"/>
<path d="M132.8 0C59.4497 0 -0.0191954 60.6017 4.64786e-06 135.335H33.9264C33.9264 79.3281 77.8433 33.92 132.8 33.92C187.757 33.92 231.674 79.3281 231.674 135.335H265.6C265.613 60.6017 206.144 0 132.8 0Z" fill="#9391F7"/>
</svg>
